Karma_0.ufo
<glyph name="numbersign" format="1">
  <advance width="705"/>
  <unicode hex="0023"/>
  <outline>
    <contour>
      <point x="400" y="235" type="line"/>
      <point x="225" y="235" type="line"/>
      <point x="280" y="424" type="line"/>
      <point x="455" y="424" type="line"/>
    </contour>
    <contour>
      <point x="447" y="235" type="line"/>
      <point x="502" y="424" type="line"/>
      <point x="645" y="424" type="line"/>
      <point x="643" y="439"/>
      <point x="639" y="456"/>
      <point x="631" y="468" type="curve"/>
      <point x="515" y="468" type="line"/>
      <point x="566" y="644" type="line"/>
      <point x="519" y="644" type="line"/>
      <point x="468" y="468" type="line"/>
      <point x="293" y="467" type="line"/>
      <point x="344" y="644" type="line"/>
      <point x="297" y="644" type="line"/>
      <point x="246" y="467" type="line"/>
      <point x="88" y="467" type="line"/>
      <point x="90" y="453"/>
      <point x="95" y="438"/>
      <point x="102" y="424" type="curve"/>
      <point x="233" y="424" type="line"/>
      <point x="178" y="235" type="line"/>
      <point x="60" y="235" type="line"/>
      <point x="61" y="219"/>
      <point x="64" y="205"/>
      <point x="74" y="190" type="curve"/>
      <point x="165" y="190" type="line"/>
      <point x="115" y="17" type="line"/>
      <point x="162" y="17" type="line"/>
      <point x="212" y="190" type="line"/>
      <point x="387" y="190" type="line"/>
      <point x="337" y="17" type="line"/>
      <point x="384" y="17" type="line"/>
      <point x="434" y="190" type="line"/>
      <point x="616" y="190" type="line"/>
      <point x="615" y="205"/>
      <point x="611" y="220"/>
      <point x="603" y="235" type="curve"/>
    </contour>
  </outline>
</glyph>
<glyph name="dollar" format="1">
  <advance width="458"/>
  <unicode hex="0024"/>
  <outline>
    <contour>
      <point x="217" y="-17" type="curve" smooth="yes"/>
      <point x="137" y="-17"/>
      <point x="40" y="22"/>
      <point x="40" y="83" type="curve" smooth="yes"/>
      <point x="40" y="106"/>
      <point x="55" y="127"/>
      <point x="79" y="127" type="curve"/>
      <point x="97" y="62"/>
      <point x="151" y="26"/>
      <point x="223" y="26" type="curve" smooth="yes"/>
      <point x="297" y="26"/>
      <point x="367" y="65"/>
      <point x="367" y="152" type="curve" smooth="yes"/>
      <point x="367" y="227"/>
      <point x="316" y="249"/>
      <point x="236" y="281" type="curve" smooth="yes"/>
      <point x="139" y="318"/>
      <point x="53" y="365"/>
      <point x="53" y="446" type="curve" smooth="yes"/>
      <point x="53" y="536"/>
      <point x="138" y="595"/>
      <point x="236" y="596" type="curve" smooth="yes"/>
      <point x="294" y="597"/>
      <point x="391" y="577"/>
      <point x="391" y="505" type="curve" smooth="yes"/>
      <point x="391" y="466"/>
      <point x="363" y="456"/>
      <point x="342" y="456" type="curve"/>
      <point x="342" y="512"/>
      <point x="312" y="550"/>
      <point x="232" y="550" type="curve" smooth="yes"/>
      <point x="162" y="550"/>
      <point x="108" y="520"/>
      <point x="108" y="462" type="curve" smooth="yes"/>
      <point x="108" y="389"/>
      <point x="192" y="354"/>
      <point x="258" y="329" type="curve" smooth="yes"/>
      <point x="348" y="295"/>
      <point x="418" y="261"/>
      <point x="418" y="170" type="curve" smooth="yes"/>
      <point x="418" y="75"/>
      <point x="340" y="-17"/>
    </contour>
    <contour>
      <point x="246" y="6" type="line"/>
      <point x="252" y="-99" type="line"/>
      <point x="234" y="-105"/>
      <point x="210" y="-104"/>
      <point x="194" y="-99" type="curve"/>
      <point x="201" y="4" type="line"/>
    </contour>
    <contour>
      <point x="202" y="568" type="line"/>
      <point x="194" y="677" type="line"/>
      <point x="210" y="682"/>
      <point x="234" y="683"/>
      <point x="252" y="677" type="curve"/>
      <point x="245" y="568" type="line"/>
    </contour>
  </outline>
</glyph>
<glyph name="percent" format="1">
  <advance width="737"/>
  <unicode hex="0025"/>
  <outline>
    <contour>
      <point x="571" y="620" type="line"/>
      <point x="519" y="620" type="line"/>
      <point x="165" y="0" type="line"/>
      <point x="217" y="0" type="line"/>
    </contour>
    <contour>
      <point x="174" y="582" type="curve" smooth="yes"/>
      <point x="230" y="582"/>
      <point x="258" y="533"/>
      <point x="258" y="453" type="curve" smooth="yes"/>
      <point x="258" y="363"/>
      <point x="228" y="321"/>
      <point x="173" y="321" type="curve" smooth="yes"/>
      <point x="121" y="321"/>
      <point x="91" y="364"/>
      <point x="91" y="451" type="curve" smooth="yes"/>
      <point x="91" y="534"/>
      <point x="118" y="582"/>
    </contour>
    <contour>
      <point x="175" y="620" type="curve" smooth="yes"/>
      <point x="89" y="620"/>
      <point x="45" y="560"/>
      <point x="45" y="450" type="curve" smooth="yes"/>
      <point x="45" y="335"/>
      <point x="94" y="282"/>
      <point x="173" y="282" type="curve" smooth="yes"/>
      <point x="256" y="282"/>
      <point x="304" y="341"/>
      <point x="304" y="453" type="curve" smooth="yes"/>
      <point x="304" y="560"/>
      <point x="261" y="620"/>
    </contour>
    <contour>
      <point x="562" y="285" type="curve" smooth="yes"/>
      <point x="618" y="285"/>
      <point x="646" y="236"/>
      <point x="646" y="156" type="curve" smooth="yes"/>
      <point x="646" y="66"/>
      <point x="616" y="24"/>
      <point x="561" y="24" type="curve" smooth="yes"/>
      <point x="509" y="24"/>
      <point x="479" y="67"/>
      <point x="479" y="154" type="curve" smooth="yes"/>
      <point x="479" y="237"/>
      <point x="506" y="285"/>
    </contour>
    <contour>
      <point x="563" y="323" type="curve" smooth="yes"/>
      <point x="477" y="323"/>
      <point x="433" y="263"/>
      <point x="433" y="153" type="curve" smooth="yes"/>
      <point x="433" y="38"/>
      <point x="482" y="-15"/>
      <point x="561" y="-15" type="curve" smooth="yes"/>
      <point x="644" y="-15"/>
      <point x="692" y="44"/>
      <point x="692" y="156" type="curve" smooth="yes"/>
      <point x="692" y="263"/>
      <point x="649" y="323"/>
    </contour>
  </outline>
</glyph>
<glyph name="quotesingle" format="1">
  <advance width="171"/>
  <unicode hex="0027"/>
  <outline>
    <contour>
      <point x="62" y="507" type="line"/>
      <point x="78" y="504"/>
      <point x="90" y="504"/>
      <point x="104" y="507" type="curve"/>
      <point x="121" y="682" type="line"/>
      <point x="95" y="687"/>
      <point x="71" y="685"/>
      <point x="50" y="679" type="curve"/>
    </contour>
  </outline>
</glyph>
<glyph name="parenleft" format="1">
  <advance width="271"/>
  <unicode hex="0028"/>
  <outline>
    <contour>
      <point x="230" y="702" type="line"/>
      <point x="166" y="627"/>
      <point x="60" y="488"/>
      <point x="60" y="245" type="curve" smooth="yes"/>
      <point x="60" y="2"/>
      <point x="156" y="-117"/>
      <point x="222" y="-196" type="curve"/>
      <point x="255" y="-170" type="line"/>
      <point x="218" y="-124"/>
      <point x="124" y="1"/>
      <point x="124" y="250" type="curve" smooth="yes"/>
      <point x="124" y="493"/>
      <point x="219" y="618"/>
      <point x="261" y="679" type="curve"/>
    </contour>
  </outline>
</glyph>
<glyph name="asterisk" format="1">
  <advance width="600"/>
  <unicode hex="002A"/>
  <outline>
    <contour>
      <point x="270" y="547" type="line"/>
      <point x="293" y="698" type="line"/>
      <point x="268" y="705"/>
      <point x="241" y="705"/>
      <point x="214" y="698" type="curve"/>
      <point x="238" y="546" type="line"/>
      <point x="101" y="617" type="line"/>
      <point x="87" y="598"/>
      <point x="78" y="572"/>
      <point x="75" y="542" type="curve"/>
      <point x="226" y="515" type="line"/>
      <point x="118" y="404" type="line"/>
      <point x="134" y="382"/>
      <point x="156" y="365"/>
      <point x="182" y="357" type="curve"/>
      <point x="254" y="495" type="line"/>
      <point x="325" y="358" type="line"/>
      <point x="352" y="367"/>
      <point x="374" y="383"/>
      <point x="389" y="404" type="curve"/>
      <point x="280" y="516" type="line"/>
      <point x="432" y="543" type="line"/>
      <point x="432" y="570"/>
      <point x="423" y="596"/>
      <point x="407" y="618" type="curve"/>
    </contour>
  </outline>
</glyph>
<glyph name="plus" format="1">
  <advance width="470"/>
  <unicode hex="002B"/>
  <outline>
    <contour>
      <point x="50" y="316" type="line"/>
      <point x="50" y="266" type="line"/>
      <point x="420" y="266" type="line"/>
      <point x="420" y="316" type="line"/>
    </contour>
    <contour>
      <point x="261" y="476" type="line"/>
      <point x="209" y="476" type="line"/>
      <point x="209" y="106" type="line"/>
      <point x="261" y="106" type="line"/>
    </contour>
  </outline>
</glyph>
<glyph name="comma" format="1">
  <advance width="172"/>
  <unicode hex="002C"/>
  <outline>
    <contour>
      <point x="82" y="1" type="line"/>
      <point x="82" y="-16"/>
      <point x="69" y="-62"/>
      <point x="42" y="-81" type="curve"/>
      <point x="42" y="-86"/>
      <point x="54" y="-99"/>
      <point x="60" y="-96" type="curve"/>
      <point x="93" y="-82"/>
      <point x="132" y="-29"/>
      <point x="132" y="29" type="curve" smooth="yes"/>
      <point x="132" y="58"/>
      <point x="113" y="77"/>
      <point x="86" y="77" type="curve" smooth="yes"/>
      <point x="58" y="77"/>
      <point x="40" y="58"/>
      <point x="40" y="30" type="curve" smooth="yes"/>
      <point x="40" y="7"/>
      <point x="56" y="-17"/>
      <point x="84" y="-17" type="curve" smooth="yes"/>
      <point x="92" y="-17"/>
      <point x="97" y="-14"/>
      <point x="106" y="-10" type="curve"/>
    </contour>
  </outline>
</glyph>
<glyph name="hyphen" format="1">
  <advance width="383"/>
  <unicode hex="002D"/>
  <outline>
    <contour>
      <point x="50" y="270" type="line"/>
      <point x="50" y="220" type="line"/>
      <point x="333" y="220" type="line"/>
      <point x="333" y="270" type="line"/>
    </contour>
  </outline>
</glyph>
<glyph name="period" format="1">
  <advance width="172"/>
  <unicode hex="002E"/>
  <outline>
    <contour>
      <point x="86" y="-15" type="curve" smooth="yes"/>
      <point x="113" y="-15"/>
      <point x="132" y="5"/>
      <point x="132" y="32" type="curve" smooth="yes"/>
      <point x="132" y="59"/>
      <point x="113" y="79"/>
      <point x="86" y="79" type="curve" smooth="yes"/>
      <point x="59" y="79"/>
      <point x="40" y="59"/>
      <point x="40" y="32" type="curve" smooth="yes"/>
      <point x="40" y="5"/>
      <point x="59" y="-15"/>
    </contour>
  </outline>
</glyph>
<glyph name="slash" format="1">
  <advance width="409"/>
  <unicode hex="002F"/>
  <outline>
    <contour>
      <point x="79" y="-142" type="line"/>
      <point x="389" y="696" type="line"/>
      <point x="330" y="696" type="line"/>
      <point x="20" y="-142" type="line"/>
    </contour>
  </outline>
</glyph>
<glyph name="zero" format="1">
  <advance width="494"/>
  <unicode hex="0030"/>
  <outline>
    <contour>
      <point x="247" y="620" type="curve" smooth="yes"/>
      <point x="102" y="620"/>
      <point x="35" y="519"/>
      <point x="35" y="295" type="curve" smooth="yes"/>
      <point x="35" y="82"/>
      <point x="102" y="-15"/>
      <point x="247" y="-15" type="curve" smooth="yes"/>
      <point x="392" y="-15"/>
      <point x="459" y="82"/>
      <point x="459" y="295" type="curve" smooth="yes"/>
      <point x="459" y="519"/>
      <point x="392" y="620"/>
    </contour>
    <contour>
      <point x="247" y="575" type="curve" smooth="yes"/>
      <point x="351" y="575"/>
      <point x="399" y="488"/>
      <point x="399" y="295" type="curve" smooth="yes"/>
      <point x="399" y="113"/>
      <point x="351" y="30"/>
      <point x="247" y="30" type="curve" smooth="yes"/>
      <point x="143" y="30"/>
      <point x="95" y="113"/>
      <point x="95" y="295" type="curve" smooth="yes"/>
      <point x="95" y="488"/>
      <point x="143" y="575"/>
    </contour>
  </outline>
</glyph>
<glyph name="one" format="1">
  <advance width="342"/>
  <unicode hex="0031"/>
  <outline>
    <contour>
      <point x="209" y="591" type="line"/>
      <point x="209" y="613"/>
      <point x="197" y="620"/>
      <point x="183" y="620" type="curve" smooth="yes"/>
      <point x="172" y="620"/>
      <point x="159" y="617"/>
      <point x="148" y="611" type="curve" smooth="yes"/>
      <point x="45" y="553" type="line"/>
      <point x="45" y="540"/>
      <point x="56" y="517"/>
      <point x="75" y="524" type="curve" smooth="yes"/>
      <point x="151" y="552" type="line"/>
      <point x="151" y="0" type="line"/>
      <point x="209" y="0" type="line"/>
    </contour>
    <contour>
      <point x="209" y="41" type="line"/>
      <point x="151" y="39" type="line"/>
      <point x="86" y="36" type="line" smooth="yes"/>
      <point x="53" y="34"/>
      <point x="59" y="10"/>
      <point x="58" y="0" type="curve"/>
      <point x="273" y="0" type="line" smooth="yes"/>
      <point x="301" y="0"/>
      <point x="297" y="25"/>
      <point x="296" y="35" type="curve"/>
    </contour>
  </outline>
</glyph>
<glyph name="three" format="1">
  <advance width="426"/>
  <unicode hex="0033"/>
  <outline>
    <contour>
      <point x="209" y="620" type="curve" smooth="yes"/>
      <point x="125" y="620"/>
      <point x="65" y="575"/>
      <point x="59" y="528" type="curve" smooth="yes"/>
      <point x="55" y="497"/>
      <point x="77" y="479"/>
      <point x="109" y="476" type="curve"/>
      <point x="110" y="538"/>
      <point x="142" y="575"/>
      <point x="203" y="575" type="curve" smooth="yes"/>
      <point x="265" y="575"/>
      <point x="307" y="536"/>
      <point x="307" y="474" type="curve" smooth="yes"/>
      <point x="307" y="366"/>
      <point x="181" y="340"/>
      <point x="129" y="340" type="curve"/>
      <point x="130" y="294" type="line"/>
      <point x="218" y="300"/>
      <point x="330" y="279"/>
      <point x="334" y="168" type="curve" smooth="yes"/>
      <point x="337" y="87"/>
      <point x="279" y="28"/>
      <point x="191" y="28" type="curve" smooth="yes"/>
      <point x="119" y="28"/>
      <point x="82" y="67"/>
      <point x="70" y="117" type="curve"/>
      <point x="38" y="108"/>
      <point x="34" y="87"/>
      <point x="34" y="74" type="curve" smooth="yes"/>
      <point x="34" y="17"/>
      <point x="103" y="-15"/>
      <point x="183" y="-15" type="curve" smooth="yes"/>
      <point x="308" y="-15"/>
      <point x="396" y="62"/>
      <point x="396" y="169" type="curve" smooth="yes"/>
      <point x="396" y="277"/>
      <point x="307" y="345"/>
      <point x="173" y="332" type="curve"/>
      <point x="173" y="309" type="line"/>
      <point x="308" y="331"/>
      <point x="369" y="404"/>
      <point x="369" y="482" type="curve" smooth="yes"/>
      <point x="369" y="565"/>
      <point x="301" y="620"/>
    </contour>
  </outline>
</glyph>
<glyph name="four" format="1">
  <advance width="455"/>
  <unicode hex="0034"/>
  <outline>
    <contour>
      <point x="350" y="610" type="line"/>
      <point x="331" y="615"/>
      <point x="312" y="615"/>
      <point x="293" y="610" type="curve"/>
      <point x="20" y="195" type="line"/>
      <point x="21" y="176"/>
      <point x="33" y="163"/>
      <point x="39" y="152" type="curve"/>
      <point x="440" y="152" type="line"/>
      <point x="440" y="197" type="line"/>
      <point x="43" y="197" type="line"/>
      <point x="56" y="171" type="line"/>
      <point x="333" y="602" type="line"/>
      <point x="297" y="591" type="line"/>
      <point x="297" y="-10" type="line"/>
      <point x="352" y="0" type="line"/>
    </contour>
  </outline>
</glyph>
<glyph name="five" format="1">
  <advance width="413"/>
  <unicode hex="0035"/>
  <outline>
    <contour>
      <point x="87" y="611" type="line"/>
      <point x="73" y="307" type="line"/>
      <point x="85" y="300" type="line"/>
      <point x="113" y="317"/>
      <point x="143" y="327"/>
      <point x="190" y="327" type="curve" smooth="yes"/>
      <point x="254" y="327"/>
      <point x="329" y="301"/>
      <point x="329" y="194" type="curve" smooth="yes"/>
      <point x="329" y="94"/>
      <point x="271" y="28"/>
      <point x="185" y="28" type="curve" smooth="yes"/>
      <point x="95" y="28"/>
      <point x="77" y="75"/>
      <point x="73" y="102" type="curve"/>
      <point x="64" y="101"/>
      <point x="33" y="97"/>
      <point x="33" y="65" type="curve" smooth="yes"/>
      <point x="33" y="17"/>
      <point x="87" y="-15"/>
      <point x="181" y="-15" type="curve" smooth="yes"/>
      <point x="306" y="-15"/>
      <point x="390" y="71"/>
      <point x="390" y="201" type="curve" smooth="yes"/>
      <point x="390" y="320"/>
      <point x="311" y="374"/>
      <point x="209" y="374" type="curve" smooth="yes"/>
      <point x="162" y="374"/>
      <point x="121" y="364"/>
      <point x="80" y="347" type="curve"/>
      <point x="121" y="347" type="line"/>
      <point x="131" y="589" type="line"/>
      <point x="107" y="561" type="line"/>
      <point x="341" y="561" type="line"/>
      <point x="344" y="610" type="line"/>
    </contour>
  </outline>
</glyph>
<glyph name="six" format="1">
  <advance width="467"/>
  <unicode hex="0036"/>
  <outline>
    <contour>
      <point x="248" y="-15" type="curve" smooth="yes"/>
      <point x="364" y="-15"/>
      <point x="430" y="76"/>
      <point x="430" y="181" type="curve" smooth="yes"/>
      <point x="430" y="283"/>
      <point x="376" y="347"/>
      <point x="268" y="347" type="curve" smooth="yes"/>
      <point x="195" y="347"/>
      <point x="136" y="321"/>
      <point x="87" y="279" type="curve"/>
      <point x="87" y="225" type="line"/>
      <point x="133" y="279"/>
      <point x="192" y="303"/>
      <point x="253" y="303" type="curve" smooth="yes"/>
      <point x="330" y="303"/>
      <point x="370" y="255"/>
      <point x="370" y="173" type="curve" smooth="yes"/>
      <point x="370" y="82"/>
      <point x="325" y="28"/>
      <point x="248" y="28" type="curve" smooth="yes"/>
      <point x="163" y="28"/>
      <point x="115" y="100"/>
      <point x="115" y="238" type="curve" smooth="yes"/>
      <point x="115" y="449"/>
      <point x="182" y="577"/>
      <point x="291" y="577" type="curve" smooth="yes"/>
      <point x="347" y="577"/>
      <point x="365" y="542"/>
      <point x="365" y="515" type="curve"/>
      <point x="398" y="519"/>
      <point x="405" y="541"/>
      <point x="405" y="560" type="curve" smooth="yes"/>
      <point x="405" y="594"/>
      <point x="371" y="620"/>
      <point x="298" y="620" type="curve" smooth="yes"/>
      <point x="144" y="620"/>
      <point x="55" y="490"/>
      <point x="55" y="241" type="curve" smooth="yes"/>
      <point x="55" y="73"/>
      <point x="119" y="-15"/>
    </contour>
  </outline>
</glyph>
<glyph name="seven" format="1">
  <advance width="378"/>
  <unicode hex="0037"/>
  <outline>
    <contour>
      <point x="15" y="611" type="line"/>
      <point x="15" y="476" type="line"/>
      <point x="22" y="469"/>
      <point x="53" y="473"/>
      <point x="57" y="498" type="curve" smooth="yes"/>
      <point x="67" y="567" type="line"/>
      <point x="310" y="571" type="line"/>
      <point x="61" y="15" type="line"/>
      <point x="121" y="-4" type="line"/>
      <point x="370" y="585" type="line"/>
      <point x="370" y="597"/>
      <point x="366" y="605"/>
      <point x="363" y="611" type="curve"/>
    </contour>
  </outline>
</glyph>
<glyph name="eight" format="1">
  <advance width="447"/>
  <unicode hex="0038"/>
  <outline>
    <contour>
      <point x="335" y="482" type="curve" smooth="yes"/>
      <point x="335" y="394"/>
      <point x="255" y="345"/>
      <point x="219" y="326" type="curve"/>
      <point x="241" y="306" type="line"/>
      <point x="281" y="327"/>
      <point x="386" y="379"/>
      <point x="386" y="486" type="curve" smooth="yes"/>
      <point x="386" y="576"/>
      <point x="312" y="620"/>
      <point x="237" y="620" type="curve" smooth="yes"/>
      <point x="152" y="620"/>
      <point x="86" y="564"/>
      <point x="86" y="476" type="curve" smooth="yes"/>
      <point x="86" y="380"/>
      <point x="165" y="336"/>
      <point x="241" y="294" type="curve" smooth="yes"/>
      <point x="306" y="258"/>
      <point x="367" y="217"/>
      <point x="367" y="148" type="curve" smooth="yes"/>
      <point x="367" y="84"/>
      <point x="315" y="28"/>
      <point x="228" y="28" type="curve" smooth="yes"/>
      <point x="140" y="28"/>
      <point x="101" y="85"/>
      <point x="101" y="142" type="curve" smooth="yes"/>
      <point x="101" y="215"/>
      <point x="163" y="281"/>
      <point x="231" y="311" type="curve"/>
      <point x="218" y="341" type="line"/>
      <point x="142" y="310"/>
      <point x="42" y="235"/>
      <point x="46" y="130" type="curve" smooth="yes"/>
      <point x="49" y="60"/>
      <point x="97" y="-15"/>
      <point x="217" y="-15" type="curve" smooth="yes"/>
      <point x="346" y="-15"/>
      <point x="417" y="73"/>
      <point x="417" y="164" type="curve" smooth="yes"/>
      <point x="417" y="258"/>
      <point x="341" y="303"/>
      <point x="268" y="345" type="curve" smooth="yes"/>
      <point x="194" y="387"/>
      <point x="136" y="422"/>
      <point x="136" y="484" type="curve" smooth="yes"/>
      <point x="136" y="537"/>
      <point x="178" y="580"/>
      <point x="241" y="580" type="curve" smooth="yes"/>
      <point x="303" y="580"/>
      <point x="335" y="538"/>
    </contour>
  </outline>
</glyph>
<glyph name="semicolon" format="1">
  <advance width="189"/>
  <unicode hex="003B"/>
  <outline>
    <contour>
      <point x="86" y="291" type="curve" smooth="yes"/>
      <point x="113" y="291"/>
      <point x="132" y="311"/>
      <point x="132" y="338" type="curve" smooth="yes"/>
      <point x="132" y="365"/>
      <point x="113" y="385"/>
      <point x="86" y="385" type="curve" smooth="yes"/>
      <point x="59" y="385"/>
      <point x="40" y="365"/>
      <point x="40" y="338" type="curve" smooth="yes"/>
      <point x="40" y="311"/>
      <point x="59" y="291"/>
    </contour>
    <component base="comma" xOffset="17"/>
  </outline>
</glyph>
<glyph name="at" format="1">
  <advance width="950"/>
  <unicode hex="0040"/>
  <outline>
    <contour>
      <point x="500" y="684" type="curve" smooth="yes"/>
      <point x="230" y="684"/>
      <point x="50" y="510"/>
      <point x="50" y="248" type="curve" smooth="yes"/>
      <point x="50" y="1"/>
      <point x="227" y="-163"/>
      <point x="493" y="-163" type="curve" smooth="yes"/>
      <point x="593" y="-163"/>
      <point x="673" y="-139"/>
      <point x="740" y="-103" type="curve"/>
      <point x="728" y="-63" type="line"/>
      <point x="667" y="-102"/>
      <point x="586" y="-123"/>
      <point x="500" y="-123" type="curve" smooth="yes"/>
      <point x="260" y="-123"/>
      <point x="100" y="29"/>
      <point x="100" y="256" type="curve" smooth="yes"/>
      <point x="100" y="489"/>
      <point x="259" y="644"/>
      <point x="498" y="644" type="curve" smooth="yes"/>
      <point x="710" y="644"/>
      <point x="852" y="530"/>
      <point x="852" y="359" type="curve" smooth="yes"/>
      <point x="852" y="194"/>
      <point x="753" y="88"/>
      <point x="604" y="93" type="curve"/>
      <point x="657" y="480" type="line"/>
      <point x="609" y="473" type="line"/>
      <point x="557" y="100" type="line"/>
      <point x="553" y="56"/>
      <point x="575" y="53"/>
      <point x="600" y="53" type="curve" smooth="yes"/>
      <point x="780" y="53"/>
      <point x="900" y="177"/>
      <point x="900" y="363" type="curve" smooth="yes"/>
      <point x="900" y="556"/>
      <point x="740" y="684"/>
    </contour>
    <contour>
      <point x="508" y="481" type="curve" smooth="yes"/>
      <point x="381" y="481"/>
      <point x="291" y="390"/>
      <point x="274" y="246" type="curve" smooth="yes"/>
      <point x="258" y="109"/>
      <point x="322" y="41"/>
      <point x="410" y="41" type="curve" smooth="yes"/>
      <point x="490" y="41"/>
      <point x="553" y="98"/>
      <point x="585" y="134" type="curve"/>
      <point x="583" y="161" type="line"/>
      <point x="528" y="121"/>
      <point x="491" y="90"/>
      <point x="434" y="90" type="curve" smooth="yes"/>
      <point x="336" y="90"/>
      <point x="315" y="178"/>
      <point x="327" y="260" type="curve" smooth="yes"/>
      <point x="339" y="344"/>
      <point x="388" y="436"/>
      <point x="489" y="436" type="curve" smooth="yes"/>
      <point x="554" y="436"/>
      <point x="597" y="398"/>
      <point x="603" y="386" type="curve"/>
      <point x="633" y="443" type="line"/>
      <point x="595" y="465"/>
      <point x="562" y="481"/>
    </contour>
  </outline>
</glyph>
<glyph name="B" format="1">
  <advance width="531"/>
  <unicode hex="0042"/>
  <outline>
    <contour>
      <point x="178" y="647" type="line"/>
      <point x="120" y="647" type="line"/>
      <point x="120" y="0" type="line"/>
      <point x="178" y="0" type="line"/>
    </contour>
    <contour>
      <point x="279" y="0" type="line"/>
      <point x="410" y="0"/>
      <point x="502" y="71"/>
      <point x="501" y="196" type="curve" smooth="yes"/>
      <point x="500" y="305"/>
      <point x="405" y="363"/>
      <point x="327" y="363" type="curve"/>
      <point x="327" y="348" type="line"/>
      <point x="401" y="370"/>
      <point x="467" y="419"/>
      <point x="467" y="511" type="curve" smooth="yes"/>
      <point x="467" y="601"/>
      <point x="405" y="677"/>
      <point x="274" y="677" type="curve" smooth="yes"/>
      <point x="70" y="677" type="line" smooth="yes"/>
      <point x="42" y="677"/>
      <point x="46" y="648"/>
      <point x="47" y="638" type="curve"/>
      <point x="121" y="632" type="line"/>
      <point x="179" y="634" type="line"/>
      <point x="229" y="637" type="line" smooth="yes"/>
      <point x="341" y="644"/>
      <point x="405" y="602"/>
      <point x="405" y="511" type="curve" smooth="yes"/>
      <point x="405" y="423"/>
      <point x="357" y="372"/>
      <point x="227" y="372" type="curve" smooth="yes"/>
      <point x="161" y="372" type="line"/>
      <point x="159" y="331" type="line"/>
      <point x="239" y="332" type="line" smooth="yes"/>
      <point x="379" y="334"/>
      <point x="439" y="298"/>
      <point x="439" y="187" type="curve" smooth="yes"/>
      <point x="439" y="100"/>
      <point x="398" y="40"/>
      <point x="254" y="42" type="curve" smooth="yes"/>
      <point x="178" y="43" type="line"/>
      <point x="120" y="43" type="line"/>
      <point x="70" y="40" type="line" smooth="yes"/>
      <point x="37" y="38"/>
      <point x="43" y="10"/>
      <point x="42" y="0" type="curve"/>
    </contour>
  </outline>
</glyph>
<glyph name="D" format="1">
  <advance width="652"/>
  <unicode hex="0044"/>
  <outline>
    <contour>
      <point x="319" y="354" type="move" name="center"/>
    </contour>
    <contour>
      <point x="273" y="677" type="move" name="top"/>
    </contour>
    <contour>
      <point x="178" y="647" type="line"/>
      <point x="120" y="647" type="line"/>
      <point x="120" y="0" type="line"/>
      <point x="178" y="0" type="line"/>
    </contour>
    <contour>
      <point x="178" y="42" type="line"/>
      <point x="120" y="43" type="line"/>
      <point x="70" y="40" type="line" smooth="yes"/>
      <point x="37" y="38"/>
      <point x="43" y="10"/>
      <point x="42" y="0" type="curve"/>
      <point x="273" y="0" type="line" smooth="yes"/>
      <point x="498" y="0"/>
      <point x="612" y="119"/>
      <point x="612" y="346" type="curve" smooth="yes"/>
      <point x="612" y="564"/>
      <point x="518" y="677"/>
      <point x="273" y="677" type="curve" smooth="yes"/>
      <point x="70" y="677" type="line" smooth="yes"/>
      <point x="42" y="677"/>
      <point x="46" y="648"/>
      <point x="47" y="638" type="curve"/>
      <point x="121" y="632" type="line"/>
      <point x="179" y="634" type="line"/>
      <point x="229" y="636" type="line" smooth="yes"/>
      <point x="438" y="644"/>
      <point x="550" y="558"/>
      <point x="550" y="338" type="curve" smooth="yes"/>
      <point x="550" y="134"/>
      <point x="438" y="42"/>
      <point x="252" y="42" type="curve" smooth="yes"/>
    </contour>
  </outline>
</glyph>
<glyph name="E" format="1">
  <advance width="547"/>
  <unicode hex="0045"/>
  <outline>
    <contour>
      <point x="301" y="0" type="move" name="bottom"/>
    </contour>
    <contour>
      <point x="538" y="10" type="move" name="ogonek"/>
    </contour>
    <contour>
      <point x="301" y="675" type="move" name="top"/>
    </contour>
    <contour>
      <point x="178" y="630" type="line"/>
      <point x="440" y="625" type="line"/>
      <point x="450" y="513" type="line"/>
      <point x="460" y="512"/>
      <point x="489" y="508"/>
      <point x="489" y="536" type="curve" smooth="yes"/>
      <point x="489" y="675" type="line"/>
      <point x="71" y="675" type="line" smooth="yes"/>
      <point x="42" y="675"/>
      <point x="46" y="647"/>
      <point x="47" y="637" type="curve"/>
      <point x="120" y="630" type="line"/>
      <point x="120" y="43" type="line"/>
      <point x="70" y="40" type="line" smooth="yes"/>
      <point x="37" y="38"/>
      <point x="43" y="10"/>
      <point x="42" y="0" type="curve"/>
      <point x="501" y="0" type="line"/>
      <point x="501" y="129" type="line" smooth="yes"/>
      <point x="501" y="159"/>
      <point x="472" y="153"/>
      <point x="462" y="152" type="curve"/>
      <point x="452" y="51" type="line"/>
      <point x="178" y="45" type="line"/>
      <point x="178" y="315" type="line"/>
      <point x="374" y="304" type="line"/>
      <point x="378" y="326"/>
      <point x="378" y="350"/>
      <point x="374" y="369" type="curve"/>
      <point x="178" y="358" type="line"/>
    </contour>
  </outline>
</glyph>
<glyph name="F" format="1">
  <advance width="510"/>
  <unicode hex="0046"/>
  <outline>
    <contour>
      <point x="490" y="675" type="line"/>
      <point x="71" y="675" type="line" smooth="yes"/>
      <point x="42" y="675"/>
      <point x="46" y="647"/>
      <point x="47" y="637" type="curve"/>
      <point x="120" y="630" type="line"/>
      <point x="120" y="43" type="line"/>
      <point x="70" y="40" type="line" smooth="yes"/>
      <point x="37" y="38"/>
      <point x="43" y="10"/>
      <point x="42" y="0" type="curve"/>
      <point x="243" y="0" type="line" smooth="yes"/>
      <point x="271" y="0"/>
      <point x="267" y="29"/>
      <point x="266" y="39" type="curve"/>
      <point x="180" y="45" type="line"/>
      <point x="180" y="327" type="line"/>
      <point x="375" y="316" type="line"/>
      <point x="379" y="338"/>
      <point x="379" y="362"/>
      <point x="375" y="381" type="curve"/>
      <point x="180" y="370" type="line"/>
      <point x="180" y="630" type="line"/>
      <point x="440" y="630" type="line"/>
      <point x="451" y="523" type="line"/>
      <point x="461" y="522"/>
      <point x="490" y="518"/>
      <point x="490" y="546" type="curve" smooth="yes"/>
    </contour>
  </outline>
</glyph>
<glyph name="H" format="1">
  <advance width="699"/>
  <unicode hex="0048"/>
  <outline>
    <contour>
      <point x="354" y="675" type="move" name="top"/>
    </contour>
    <contour>
      <point x="178" y="45" type="line"/>
      <point x="179" y="632" type="line"/>
      <point x="229" y="635" type="line" smooth="yes"/>
      <point x="262" y="637"/>
      <point x="256" y="665"/>
      <point x="257" y="675" type="curve"/>
      <point x="70" y="675" type="line" smooth="yes"/>
      <point x="42" y="675"/>
      <point x="46" y="646"/>
      <point x="47" y="636" type="curve"/>
      <point x="120" y="630" type="line"/>
      <point x="120" y="43" type="line"/>
      <point x="70" y="40" type="line" smooth="yes"/>
      <point x="37" y="38"/>
      <point x="43" y="10"/>
      <point x="42" y="0" type="curve"/>
      <point x="229" y="0" type="line" smooth="yes"/>
      <point x="257" y="0"/>
      <point x="253" y="29"/>
      <point x="252" y="39" type="curve"/>
    </contour>
    <contour>
      <point x="521" y="630" type="line"/>
      <point x="521" y="43" type="line"/>
      <point x="471" y="40" type="line" smooth="yes"/>
      <point x="438" y="38"/>
      <point x="444" y="10"/>
      <point x="443" y="0" type="curve"/>
      <point x="629" y="0" type="line" smooth="yes"/>
      <point x="657" y="0"/>
      <point x="653" y="29"/>
      <point x="652" y="39" type="curve"/>
      <point x="579" y="45" type="line"/>
      <point x="579" y="632" type="line"/>
      <point x="629" y="635" type="line" smooth="yes"/>
      <point x="662" y="637"/>
      <point x="656" y="665"/>
      <point x="657" y="675" type="curve"/>
      <point x="471" y="675" type="line" smooth="yes"/>
      <point x="443" y="675"/>
      <point x="447" y="646"/>
      <point x="448" y="636" type="curve"/>
    </contour>
    <contour>
      <point x="532" y="316" type="line"/>
      <point x="532" y="361" type="line"/>
      <point x="167" y="361" type="line"/>
      <point x="167" y="316" type="line"/>
    </contour>
  </outline>
</glyph>
<glyph name="J" format="1">
  <advance width="306"/>
  <unicode hex="004A"/>
  <outline>
    <contour>
      <point x="167" y="675" type="move" name="top"/>
    </contour>
    <contour>
      <point x="191" y="647" type="line"/>
      <point x="133" y="647" type="line"/>
      <point x="133" y="117" type="line" smooth="yes"/>
      <point x="133" y="17"/>
      <point x="111" y="-15"/>
      <point x="68" y="-15" type="curve" smooth="yes"/>
      <point x="35" y="-15"/>
      <point x="21" y="0"/>
      <point x="19" y="27" type="curve"/>
      <point x="-6" y="29"/>
      <point x="-20" y="14"/>
      <point x="-20" y="-7" type="curve" smooth="yes"/>
      <point x="-20" y="-39"/>
      <point x="15" y="-62"/>
      <point x="54" y="-62" type="curve" smooth="yes"/>
      <point x="141" y="-62"/>
      <point x="191" y="19"/>
      <point x="191" y="128" type="curve" smooth="yes"/>
    </contour>
    <contour>
      <point x="72" y="675" type="line"/>
      <point x="44" y="675"/>
      <point x="48" y="646"/>
      <point x="49" y="636" type="curve"/>
      <point x="133" y="630" type="line"/>
      <point x="191" y="632" type="line"/>
      <point x="236" y="635" type="line" smooth="yes"/>
      <point x="269" y="637"/>
      <point x="263" y="665"/>
      <point x="264" y="675" type="curve"/>
    </contour>
  </outline>
</glyph>
<glyph name="K" format="1">
  <advance width="590"/>
  <unicode hex="004B"/>
  <outline>
    <contour>
      <point x="274" y="0" type="move" name="bottom"/>
    </contour>
    <contour>
      <point x="304" y="675" type="move" name="top"/>
    </contour>
    <contour>
      <point x="395" y="675" type="line"/>
      <point x="367" y="675"/>
      <point x="371" y="646"/>
      <point x="372" y="636" type="curve"/>
      <point x="435" y="630" type="line"/>
      <point x="178" y="317" type="line"/>
      <point x="179" y="632" type="line"/>
      <point x="229" y="635" type="line" smooth="yes"/>
      <point x="262" y="637"/>
      <point x="256" y="665"/>
      <point x="257" y="675" type="curve"/>
      <point x="70" y="675" type="line" smooth="yes"/>
      <point x="42" y="675"/>
      <point x="46" y="646"/>
      <point x="47" y="636" type="curve"/>
      <point x="120" y="630" type="line"/>
      <point x="120" y="43" type="line"/>
      <point x="70" y="40" type="line" smooth="yes"/>
      <point x="37" y="38"/>
      <point x="43" y="10"/>
      <point x="42" y="0" type="curve"/>
      <point x="229" y="0" type="line" smooth="yes"/>
      <point x="257" y="0"/>
      <point x="253" y="29"/>
      <point x="252" y="39" type="curve"/>
      <point x="178" y="45" type="line"/>
      <point x="178" y="253" type="line"/>
      <point x="231" y="317" type="line"/>
      <point x="454" y="0" type="line"/>
      <point x="537" y="0" type="line" smooth="yes"/>
      <point x="565" y="0"/>
      <point x="561" y="25"/>
      <point x="560" y="35" type="curve"/>
      <point x="499" y="41" type="line"/>
      <point x="268" y="361" type="line"/>
      <point x="494" y="632" type="line"/>
      <point x="533" y="635" type="line" smooth="yes"/>
      <point x="566" y="637"/>
      <point x="560" y="665"/>
      <point x="561" y="675" type="curve"/>
    </contour>
  </outline>
</glyph>
<glyph name="L" format="1">
  <advance width="519"/>
  <unicode hex="004C"/>
  <outline>
    <contour>
      <point x="240" y="0" type="move" name="bottom"/>
    </contour>
    <contour>
      <point x="194" y="675" type="move" name="top"/>
    </contour>
    <contour>
      <point x="206" y="597" type="move" name="topright"/>
    </contour>
    <contour>
      <point x="120" y="647" type="line"/>
      <point x="120" y="0" type="line"/>
      <point x="178" y="0" type="line"/>
      <point x="178" y="647" type="line"/>
    </contour>
    <contour>
      <point x="498" y="50" type="line"/>
      <point x="178" y="45" type="line"/>
      <point x="120" y="43" type="line"/>
      <point x="70" y="40" type="line" smooth="yes"/>
      <point x="37" y="38"/>
      <point x="43" y="10"/>
      <point x="42" y="0" type="curve"/>
      <point x="475" y="0" type="line"/>
    </contour>
    <contour>
      <point x="449" y="35" type="line"/>
      <point x="456" y="0" type="line"/>
      <point x="499" y="0" type="line"/>
      <point x="499" y="129" type="line" smooth="yes"/>
      <point x="499" y="157"/>
      <point x="470" y="153"/>
      <point x="460" y="152" type="curve"/>
    </contour>
    <contour>
      <point x="69" y="677" type="line"/>
      <point x="41" y="677"/>
      <point x="45" y="648"/>
      <point x="46" y="638" type="curve"/>
      <point x="120" y="632" type="line"/>
      <point x="178" y="634" type="line"/>
      <point x="228" y="637" type="line" smooth="yes"/>
      <point x="261" y="639"/>
      <point x="255" y="667"/>
      <point x="256" y="677" type="curve"/>
    </contour>
  </outline>
</glyph>
<glyph name="M" format="1">
  <advance width="786"/>
  <unicode hex="004D"/>
  <outline>
    <contour>
      <point x="598" y="677" type="line"/>
      <point x="395" y="186" type="line"/>
      <point x="415" y="186" type="line"/>
      <point x="195" y="677" type="line"/>
      <point x="89" y="677" type="line" smooth="yes"/>
      <point x="61" y="677"/>
      <point x="65" y="648"/>
      <point x="66" y="638" type="curve"/>
      <point x="138" y="632" type="line"/>
      <point x="89" y="43" type="line"/>
      <point x="43" y="40" type="line" smooth="yes"/>
      <point x="10" y="38"/>
      <point x="16" y="10"/>
      <point x="15" y="0" type="curve"/>
      <point x="190" y="0" type="line" smooth="yes"/>
      <point x="218" y="0"/>
      <point x="214" y="29"/>
      <point x="213" y="39" type="curve"/>
      <point x="142" y="45" type="line"/>
      <point x="184" y="585" type="line"/>
      <point x="171" y="583" type="line"/>
      <point x="379" y="125" type="line"/>
      <point x="389" y="123"/>
      <point x="408" y="125"/>
      <point x="418" y="127" type="curve"/>
      <point x="621" y="605" type="line"/>
      <point x="606" y="605" type="line"/>
      <point x="646" y="43" type="line"/>
      <point x="600" y="40" type="line" smooth="yes"/>
      <point x="567" y="38"/>
      <point x="573" y="10"/>
      <point x="572" y="0" type="curve"/>
      <point x="747" y="0" type="line" smooth="yes"/>
      <point x="775" y="0"/>
      <point x="771" y="29"/>
      <point x="770" y="39" type="curve"/>
      <point x="706" y="47" type="line"/>
      <point x="660" y="632" type="line"/>
      <point x="730" y="638" type="line"/>
      <point x="731" y="648"/>
      <point x="735" y="677"/>
      <point x="707" y="677" type="curve" smooth="yes"/>
    </contour>
  </outline>
</glyph>
<glyph name="N" format="1">
  <advance width="682"/>
  <unicode hex="004E"/>
  <outline>
    <contour>
      <point x="354" y="0" type="move" name="bottom"/>
    </contour>
    <contour>
      <point x="336" y="675" type="move" name="top"/>
    </contour>
    <contour>
      <point x="478" y="675" type="line"/>
      <point x="450" y="675"/>
      <point x="454" y="646"/>
      <point x="455" y="636" type="curve"/>
      <point x="529" y="630" type="line"/>
      <point x="529" y="89" type="line"/>
      <point x="543" y="93" type="line"/>
      <point x="169" y="675" type="line"/>
      <point x="70" y="675" type="line" smooth="yes"/>
      <point x="42" y="675"/>
      <point x="46" y="646"/>
      <point x="47" y="636" type="curve"/>
      <point x="121" y="630" type="line"/>
      <point x="121" y="43" type="line"/>
      <point x="70" y="40" type="line" smooth="yes"/>
      <point x="37" y="38"/>
      <point x="43" y="10"/>
      <point x="42" y="0" type="curve"/>
      <point x="221" y="0" type="line" smooth="yes"/>
      <point x="249" y="0"/>
      <point x="245" y="29"/>
      <point x="244" y="39" type="curve"/>
      <point x="170" y="45" type="line"/>
      <point x="170" y="583" type="line"/>
      <point x="159" y="579" type="line"/>
      <point x="532" y="0" type="line"/>
      <point x="549" y="0"/>
      <point x="560" y="3"/>
      <point x="577" y="11" type="curve"/>
      <point x="577" y="632" type="line"/>
      <point x="629" y="635" type="line" smooth="yes"/>
      <point x="662" y="637"/>
      <point x="656" y="665"/>
      <point x="657" y="675" type="curve"/>
    </contour>
  </outline>
</glyph>
<glyph name="Q" format="1">
  <advance width="646"/>
  <unicode hex="0051"/>
  <outline>
    <contour>
      <point x="265" y="-5" type="line"/>
      <point x="345" y="-52"/>
      <point x="450" y="-141"/>
      <point x="547" y="-141" type="curve" smooth="yes"/>
      <point x="581" y="-141"/>
      <point x="606" y="-123"/>
      <point x="606" y="-89" type="curve" smooth="yes"/>
      <point x="606" y="-81"/>
      <point x="603" y="-72"/>
      <point x="598" y="-66" type="curve"/>
      <point x="581" y="-77"/>
      <point x="564" y="-82"/>
      <point x="548" y="-82" type="curve" smooth="yes"/>
      <point x="500" y="-82"/>
      <point x="416" y="-42"/>
      <point x="323" y="8" type="curve"/>
    </contour>
    <component base="O"/>
  </outline>
</glyph>
<glyph name="T" format="1">
  <advance width="594"/>
  <unicode hex="0054"/>
  <outline>
    <contour>
      <point x="290" y="0" type="move" name="bottom"/>
    </contour>
    <contour>
      <point x="301" y="675" type="move" name="top"/>
    </contour>
    <contour>
      <point x="315" y="46" type="line"/>
      <point x="285" y="44" type="line"/>
      <point x="220" y="40" type="line" smooth="yes"/>
      <point x="187" y="38"/>
      <point x="193" y="10"/>
      <point x="192" y="0" type="curve"/>
      <point x="379" y="0" type="line" smooth="yes"/>
      <point x="407" y="0"/>
      <point x="403" y="29"/>
      <point x="402" y="39" type="curve"/>
    </contour>
    <contour>
      <point x="65" y="630" type="line"/>
      <point x="529" y="630" type="line"/>
      <point x="535" y="537" type="line"/>
      <point x="545" y="536"/>
      <point x="574" y="532"/>
      <point x="574" y="560" type="curve" smooth="yes"/>
      <point x="574" y="675" type="line"/>
      <point x="20" y="675" type="line"/>
      <point x="20" y="560" type="line" smooth="yes"/>
      <point x="20" y="532"/>
      <point x="49" y="536"/>
      <point x="59" y="537" type="curve"/>
    </contour>
    <contour>
      <point x="270" y="27" type="line"/>
      <point x="328" y="29" type="line"/>
      <point x="328" y="646" type="line"/>
      <point x="270" y="646" type="line"/>
    </contour>
  </outline>
</glyph>
<glyph name="U" format="1">
  <advance width="640"/>
  <unicode hex="0055"/>
  <outline>
    <contour>
      <point x="364" y="-8" type="move" name="ogonek"/>
    </contour>
    <contour>
      <point x="322" y="675" type="move" name="top"/>
    </contour>
    <contour>
      <point x="442" y="675" type="line"/>
      <point x="414" y="675"/>
      <point x="418" y="646"/>
      <point x="419" y="636" type="curve"/>
      <point x="492" y="630" type="line"/>
      <point x="492" y="236" type="line" smooth="yes"/>
      <point x="492" y="94"/>
      <point x="424" y="30"/>
      <point x="314" y="30" type="curve" smooth="yes"/>
      <point x="222" y="30"/>
      <point x="156" y="86"/>
      <point x="156" y="237" type="curve" smooth="yes"/>
      <point x="157" y="632" type="line"/>
      <point x="207" y="635" type="line" smooth="yes"/>
      <point x="240" y="637"/>
      <point x="234" y="665"/>
      <point x="235" y="675" type="curve"/>
      <point x="49" y="675" type="line" smooth="yes"/>
      <point x="21" y="675"/>
      <point x="25" y="646"/>
      <point x="26" y="636" type="curve"/>
      <point x="99" y="630" type="line"/>
      <point x="99" y="228" type="line" smooth="yes"/>
      <point x="99" y="95"/>
      <point x="145" y="-15"/>
      <point x="307" y="-15" type="curve" smooth="yes"/>
      <point x="475" y="-15"/>
      <point x="539" y="95"/>
      <point x="539" y="244" type="curve" smooth="yes"/>
      <point x="539" y="632" type="line"/>
      <point x="587" y="635" type="line" smooth="yes"/>
      <point x="620" y="637"/>
      <point x="614" y="665"/>
      <point x="615" y="675" type="curve"/>
    </contour>
  </outline>
</glyph>
<glyph name="W" format="1">
  <advance width="938"/>
  <unicode hex="0057"/>
  <outline>
    <contour>
      <point x="481" y="675" type="move" name="top"/>
    </contour>
    <contour>
      <point x="780" y="675" type="line"/>
      <point x="752" y="675"/>
      <point x="756" y="646"/>
      <point x="757" y="636" type="curve"/>
      <point x="831" y="630" type="line"/>
      <point x="655" y="71" type="line"/>
      <point x="667" y="71" type="line"/>
      <point x="505" y="616" type="line"/>
      <point x="453" y="616" type="line"/>
      <point x="268" y="70" type="line"/>
      <point x="283" y="70" type="line"/>
      <point x="125" y="632" type="line"/>
      <point x="172" y="635" type="line" smooth="yes"/>
      <point x="205" y="637"/>
      <point x="199" y="665"/>
      <point x="200" y="675" type="curve"/>
      <point x="29" y="675" type="line" smooth="yes"/>
      <point x="1" y="675"/>
      <point x="5" y="646"/>
      <point x="6" y="636" type="curve"/>
      <point x="59" y="630" type="line"/>
      <point x="248" y="0" type="line"/>
      <point x="291" y="0" type="line"/>
      <point x="480" y="536" type="line"/>
      <point x="463" y="536" type="line"/>
      <point x="632" y="0" type="line"/>
      <point x="679" y="0" type="line"/>
      <point x="887" y="633" type="line"/>
      <point x="905" y="635" type="line" smooth="yes"/>
      <point x="938" y="638"/>
      <point x="932" y="665"/>
      <point x="933" y="675" type="curve"/>
    </contour>
  </outline>
</glyph>
<glyph name="Z" format="1">
  <advance width="518"/>
  <unicode hex="005A"/>
  <outline>
    <contour>
      <point x="286" y="675" type="move" name="top"/>
    </contour>
    <contour>
      <point x="67" y="685" type="line"/>
      <point x="70" y="628" type="line"/>
      <point x="436" y="639" type="line"/>
      <point x="426" y="664" type="line"/>
      <point x="23" y="21" type="line"/>
      <point x="26" y="14"/>
      <point x="28" y="7"/>
      <point x="33" y="0" type="curve"/>
      <point x="490" y="0" type="line"/>
      <point x="465" y="55" type="line"/>
      <point x="51" y="43" type="line"/>
      <point x="99" y="38" type="line"/>
      <point x="491" y="664" type="line"/>
      <point x="488" y="671"/>
      <point x="485" y="678"/>
      <point x="481" y="685" type="curve"/>
    </contour>
    <contour>
      <point x="490" y="0" type="line"/>
      <point x="490" y="184" type="line"/>
      <point x="475" y="187"/>
      <point x="454" y="182"/>
      <point x="450" y="153" type="curve" smooth="yes"/>
      <point x="436" y="43" type="line"/>
    </contour>
    <contour>
      <point x="67" y="507" type="line"/>
      <point x="81" y="504"/>
      <point x="102" y="509"/>
      <point x="106" y="538" type="curve" smooth="yes"/>
      <point x="121" y="642" type="line"/>
      <point x="67" y="685" type="line"/>
    </contour>
  </outline>
</glyph>
<glyph name="asciicircum" format="1">
  <advance width="478"/>
  <unicode hex="005E"/>
  <outline>
    <contour>
      <point x="263" y="653" type="line"/>
      <point x="225" y="653" type="line"/>
      <point x="50" y="204" type="line"/>
      <point x="106" y="204" type="line"/>
      <point x="263" y="615" type="line"/>
      <point x="225" y="615" type="line"/>
      <point x="374" y="204" type="line"/>
      <point x="428" y="204" type="line"/>
    </contour>
  </outline>
</glyph>
<glyph name="b" format="1">
  <advance width="543"/>
  <unicode hex="0062"/>
  <outline>
    <contour>
      <point x="311" y="500" type="curve" smooth="yes"/>
      <point x="217" y="500"/>
      <point x="154" y="434"/>
      <point x="121" y="393" type="curve"/>
      <point x="128" y="366" type="line"/>
      <point x="186" y="413"/>
      <point x="224" y="448"/>
      <point x="290" y="448" type="curve" smooth="yes"/>
      <point x="402" y="448"/>
      <point x="443" y="349"/>
      <point x="443" y="244" type="curve" smooth="yes"/>
      <point x="443" y="133"/>
      <point x="398" y="32"/>
      <point x="286" y="32" type="curve" smooth="yes"/>
      <point x="207" y="32"/>
      <point x="152" y="76"/>
      <point x="142" y="90" type="curve"/>
      <point x="116" y="29" type="line"/>
      <point x="164" y="4"/>
      <point x="205" y="-15"/>
      <point x="268" y="-15" type="curve" smooth="yes"/>
      <point x="418" y="-15"/>
      <point x="507" y="92"/>
      <point x="503" y="261" type="curve" smooth="yes"/>
      <point x="499" y="422"/>
      <point x="412" y="500"/>
    </contour>
    <contour>
      <point x="147" y="694" type="line"/>
      <point x="16" y="676" type="line"/>
      <point x="16" y="663"/>
      <point x="15" y="640"/>
      <point x="36" y="638" type="curve" smooth="yes"/>
      <point x="92" y="632" type="line"/>
      <point x="92" y="36" type="line"/>
      <point x="147" y="14" type="line"/>
    </contour>
  </outline>
</glyph>
<glyph name="c" format="1">
  <advance width="447"/>
  <unicode hex="0063"/>
  <outline>
    <contour>
      <point x="231" y="0" type="move" name="bottom"/>
    </contour>
    <contour>
      <point x="259" y="485" type="move" name="top"/>
    </contour>
    <contour>
      <point x="272" y="500" type="curve" smooth="yes"/>
      <point x="118" y="500"/>
      <point x="38" y="374"/>
      <point x="40" y="219" type="curve" smooth="yes"/>
      <point x="42" y="87"/>
      <point x="106" y="-15"/>
      <point x="233" y="-15" type="curve" smooth="yes"/>
      <point x="316" y="-15"/>
      <point x="408" y="28"/>
      <point x="408" y="68" type="curve" smooth="yes"/>
      <point x="408" y="76"/>
      <point x="405" y="82"/>
      <point x="398" y="87" type="curve"/>
      <point x="351" y="50"/>
      <point x="306" y="34"/>
      <point x="258" y="34" type="curve" smooth="yes"/>
      <point x="133" y="34"/>
      <point x="100" y="142"/>
      <point x="100" y="237" type="curve" smooth="yes"/>
      <point x="100" y="350"/>
      <point x="149" y="453"/>
      <point x="256" y="453" type="curve" smooth="yes"/>
      <point x="329" y="453"/>
      <point x="356" y="404"/>
      <point x="357" y="363" type="curve"/>
      <point x="384" y="363"/>
      <point x="405" y="373"/>
      <point x="405" y="409" type="curve" smooth="yes"/>
      <point x="405" y="462"/>
      <point x="356" y="500"/>
    </contour>
  </outline>
</glyph>
<glyph name="d" format="1">
  <advance width="535"/>
  <unicode hex="0064"/>
  <outline>
    <contour>
      <point x="452" y="694" type="line"/>
      <point x="321" y="676" type="line"/>
      <point x="321" y="663"/>
      <point x="320" y="640"/>
      <point x="341" y="638" type="curve" smooth="yes"/>
      <point x="397" y="632" type="line"/>
      <point x="397" y="76" type="line" smooth="yes"/>
      <point x="397" y="26"/>
      <point x="412" y="-15"/>
      <point x="461" y="-15" type="curve" smooth="yes"/>
      <point x="493" y="-15"/>
      <point x="514" y="0"/>
      <point x="515" y="28" type="curve"/>
      <point x="452" y="36" type="line"/>
    </contour>
    <contour>
      <point x="428" y="456" type="line"/>
      <point x="380" y="481"/>
      <point x="339" y="500"/>
      <point x="276" y="500" type="curve" smooth="yes"/>
      <point x="126" y="500"/>
      <point x="36" y="394"/>
      <point x="40" y="225" type="curve" smooth="yes"/>
      <point x="44" y="64"/>
      <point x="132" y="-15"/>
      <point x="233" y="-15" type="curve" smooth="yes"/>
      <point x="327" y="-15"/>
      <point x="390" y="52"/>
      <point x="423" y="93" type="curve"/>
      <point x="416" y="120" type="line"/>
      <point x="358" y="73"/>
      <point x="320" y="37"/>
      <point x="254" y="37" type="curve" smooth="yes"/>
      <point x="142" y="37"/>
      <point x="100" y="137"/>
      <point x="100" y="242" type="curve" smooth="yes"/>
      <point x="100" y="353"/>
      <point x="146" y="453"/>
      <point x="258" y="453" type="curve" smooth="yes"/>
      <point x="337" y="453"/>
      <point x="392" y="409"/>
      <point x="402" y="395" type="curve"/>
    </contour>
  </outline>
</glyph>
<glyph name="h" format="1">
  <advance width="611"/>
  <unicode hex="0068"/>
  <outline>
    <contour>
      <point x="313" y="243" type="move" name="center"/>
    </contour>
    <contour>
      <point x="313" y="485" type="move" name="top"/>
    </contour>
    <contour>
      <point x="340" y="500" type="curve" smooth="yes"/>
      <point x="229" y="500"/>
      <point x="181" y="429"/>
      <point x="146" y="388" type="curve"/>
      <point x="153" y="354" type="line"/>
      <point x="209" y="408"/>
      <point x="251" y="448"/>
      <point x="329" y="448" type="curve" smooth="yes"/>
      <point x="406" y="448"/>
      <point x="453" y="395"/>
      <point x="453" y="291" type="curve" smooth="yes"/>
      <point x="453" y="0" type="line"/>
      <point x="508" y="0" type="line"/>
      <point x="507" y="300" type="line" smooth="yes"/>
      <point x="506" y="453"/>
      <point x="416" y="500"/>
    </contour>
    <contour>
      <point x="176" y="41" type="line"/>
      <point x="125" y="39" type="line"/>
      <point x="80" y="36" type="line" smooth="yes"/>
      <point x="47" y="34"/>
      <point x="53" y="10"/>
      <point x="52" y="0" type="curve"/>
      <point x="234" y="0" type="line" smooth="yes"/>
      <point x="262" y="0"/>
      <point x="258" y="25"/>
      <point x="257" y="35" type="curve"/>
    </contour>
    <contour>
      <point x="180" y="694" type="line"/>
      <point x="49" y="676" type="line"/>
      <point x="49" y="663"/>
      <point x="48" y="640"/>
      <point x="69" y="638" type="curve" smooth="yes"/>
      <point x="125" y="632" type="line"/>
      <point x="125" y="0" type="line"/>
      <point x="180" y="0" type="line"/>
    </contour>
    <contour>
      <point x="507" y="41" type="line"/>
      <point x="454" y="39" type="line"/>
      <point x="409" y="36" type="line" smooth="yes"/>
      <point x="376" y="34"/>
      <point x="382" y="10"/>
      <point x="381" y="0" type="curve"/>
      <point x="562" y="0" type="line" smooth="yes"/>
      <point x="590" y="0"/>
      <point x="586" y="25"/>
      <point x="585" y="35" type="curve"/>
    </contour>
  </outline>
</glyph>
<glyph name="j" format="1">
  <advance width="237"/>
  <unicode hex="006A"/>
  <outline>
    <contour>
      <point x="155" y="500" type="line"/>
      <point x="24" y="485" type="line"/>
      <point x="24" y="472"/>
      <point x="23" y="451"/>
      <point x="44" y="449" type="curve" smooth="yes"/>
      <point x="100" y="443" type="line"/>
      <point x="100" y="-45" type="line" smooth="yes"/>
      <point x="100" y="-145"/>
      <point x="71" y="-177"/>
      <point x="28" y="-177" type="curve" smooth="yes"/>
      <point x="-5" y="-177"/>
      <point x="-19" y="-162"/>
      <point x="-21" y="-135" type="curve"/>
      <point x="-46" y="-133"/>
      <point x="-60" y="-148"/>
      <point x="-60" y="-173" type="curve" smooth="yes"/>
      <point x="-60" y="-207"/>
      <point x="-23" y="-224"/>
      <point x="14" y="-224" type="curve" smooth="yes"/>
      <point x="122" y="-224"/>
      <point x="155" y="-117"/>
      <point x="155" y="-9" type="curve" smooth="yes"/>
    </contour>
    <contour>
      <point x="120" y="672" type="curve" smooth="yes"/>
      <point x="94" y="672"/>
      <point x="77" y="655"/>
      <point x="77" y="629" type="curve" smooth="yes"/>
      <point x="77" y="603"/>
      <point x="94" y="586"/>
      <point x="120" y="586" type="curve" smooth="yes"/>
      <point x="146" y="586"/>
      <point x="163" y="603"/>
      <point x="163" y="629" type="curve" smooth="yes"/>
      <point x="163" y="655"/>
      <point x="146" y="672"/>
    </contour>
  </outline>
</glyph>
<glyph name="k" format="1">
  <advance width="524"/>
  <unicode hex="006B"/>
  <outline>
    <contour>
      <point x="281" y="0" type="move" name="bottom"/>
    </contour>
    <contour>
      <point x="180" y="694" type="line"/>
      <point x="49" y="676" type="line"/>
      <point x="49" y="663"/>
      <point x="48" y="640"/>
      <point x="69" y="638" type="curve" smooth="yes"/>
      <point x="125" y="632" type="line"/>
      <point x="125" y="39" type="line"/>
      <point x="80" y="36" type="line" smooth="yes"/>
      <point x="47" y="34"/>
      <point x="53" y="10"/>
      <point x="52" y="0" type="curve"/>
      <point x="234" y="0" type="line" smooth="yes"/>
      <point x="262" y="0"/>
      <point x="258" y="25"/>
      <point x="257" y="35" type="curve"/>
      <point x="180" y="41" type="line"/>
      <point x="180" y="170" type="line"/>
      <point x="249" y="246" type="line"/>
      <point x="430" y="0" type="line"/>
      <point x="506" y="0" type="line" smooth="yes"/>
      <point x="534" y="0"/>
      <point x="530" y="25"/>
      <point x="529" y="35" type="curve"/>
      <point x="462" y="40" type="line"/>
      <point x="284" y="284" type="line"/>
      <point x="433" y="446" type="line"/>
      <point x="464" y="449" type="line" smooth="yes"/>
      <point x="497" y="452"/>
      <point x="491" y="475"/>
      <point x="492" y="485" type="curve"/>
      <point x="340" y="485" type="line" smooth="yes"/>
      <point x="312" y="485"/>
      <point x="316" y="460"/>
      <point x="317" y="450" type="curve"/>
      <point x="377" y="444" type="line"/>
      <point x="180" y="225" type="line"/>
    </contour>
  </outline>
</glyph>
<glyph name="l" format="1">
  <advance width="277"/>
  <unicode hex="006C"/>
  <outline>
    <contour>
      <point x="148" y="0" type="move" name="bottom"/>
    </contour>
    <contour>
      <point x="164" y="485" type="move" name="top"/>
    </contour>
    <contour>
      <point x="309" y="485" type="move" name="topright"/>
    </contour>
    <contour>
      <point x="180" y="693" type="line"/>
      <point x="49" y="675" type="line"/>
      <point x="49" y="662"/>
      <point x="48" y="641"/>
      <point x="69" y="639" type="curve" smooth="yes"/>
      <point x="125" y="633" type="line"/>
      <point x="125" y="0" type="line"/>
      <point x="180" y="0" type="line"/>
    </contour>
    <contour>
      <point x="180" y="41" type="line"/>
      <point x="125" y="39" type="line"/>
      <point x="78" y="36" type="line" smooth="yes"/>
      <point x="45" y="34"/>
      <point x="51" y="10"/>
      <point x="50" y="0" type="curve"/>
      <point x="228" y="0" type="line" smooth="yes"/>
      <point x="256" y="0"/>
      <point x="252" y="25"/>
      <point x="251" y="35" type="curve"/>
    </contour>
  </outline>
</glyph>
<glyph name="m" format="1">
  <advance width="922"/>
  <unicode hex="006D"/>
  <outline>
    <contour>
      <point x="819" y="41" type="line"/>
      <point x="819" y="299" type="line" smooth="yes"/>
      <point x="819" y="452"/>
      <point x="727" y="500"/>
      <point x="651" y="500" type="curve" smooth="yes"/>
      <point x="562" y="500"/>
      <point x="514" y="448"/>
      <point x="480" y="405" type="curve"/>
      <point x="448" y="476"/>
      <point x="384" y="500"/>
      <point x="330" y="500" type="curve" smooth="yes"/>
      <point x="257" y="500"/>
      <point x="213" y="464"/>
      <point x="180" y="428" type="curve"/>
      <point x="177" y="428" type="line"/>
      <point x="164" y="500" type="line"/>
      <point x="49" y="484" type="line"/>
      <point x="49" y="471"/>
      <point x="48" y="446"/>
      <point x="79" y="446" type="curve" smooth="yes"/>
      <point x="125" y="446" type="line"/>
      <point x="125" y="39" type="line"/>
      <point x="80" y="36" type="line" smooth="yes"/>
      <point x="47" y="34"/>
      <point x="53" y="10"/>
      <point x="52" y="0" type="curve"/>
      <point x="234" y="0" type="line" smooth="yes"/>
      <point x="262" y="0"/>
      <point x="258" y="25"/>
      <point x="257" y="35" type="curve"/>
      <point x="180" y="41" type="line"/>
      <point x="180" y="379" type="line"/>
      <point x="220" y="417"/>
      <point x="259" y="447"/>
      <point x="319" y="447" type="curve" smooth="yes"/>
      <point x="396" y="447"/>
      <point x="446" y="394"/>
      <point x="446" y="290" type="curve" smooth="yes"/>
      <point x="446" y="39" type="line"/>
      <point x="402" y="36" type="line" smooth="yes"/>
      <point x="369" y="34"/>
      <point x="375" y="10"/>
      <point x="374" y="0" type="curve"/>
      <point x="555" y="0" type="line" smooth="yes"/>
      <point x="583" y="0"/>
      <point x="579" y="25"/>
      <point x="578" y="35" type="curve"/>
      <point x="501" y="41" type="line"/>
      <point x="501" y="299" type="line" smooth="yes"/>
      <point x="501" y="326"/>
      <point x="499" y="350"/>
      <point x="492" y="371" type="curve"/>
      <point x="536" y="413"/>
      <point x="576" y="447"/>
      <point x="640" y="447" type="curve" smooth="yes"/>
      <point x="717" y="447"/>
      <point x="764" y="394"/>
      <point x="764" y="290" type="curve" smooth="yes"/>
      <point x="764" y="39" type="line"/>
      <point x="720" y="36" type="line" smooth="yes"/>
      <point x="687" y="34"/>
      <point x="693" y="10"/>
      <point x="692" y="0" type="curve"/>
      <point x="873" y="0" type="line" smooth="yes"/>
      <point x="901" y="0"/>
      <point x="897" y="25"/>
      <point x="896" y="35" type="curve"/>
    </contour>
  </outline>
</glyph>
<glyph name="n" format="1">
  <advance width="604"/>
  <unicode hex="006E"/>
  <outline>
    <contour>
      <point x="310" y="0" type="move" name="bottom"/>
    </contour>
    <contour>
      <point x="310" y="485" type="move" name="top"/>
    </contour>
    <contour>
      <point x="508" y="41" type="line"/>
      <point x="508" y="312" type="line" smooth="yes"/>
      <point x="508" y="452"/>
      <point x="427" y="500"/>
      <point x="352" y="500" type="curve" smooth="yes"/>
      <point x="277" y="500"/>
      <point x="219" y="456"/>
      <point x="181" y="420" type="curve"/>
      <point x="178" y="420" type="line"/>
      <point x="164" y="500" type="line"/>
      <point x="49" y="484" type="line"/>
      <point x="49" y="471"/>
      <point x="48" y="451"/>
      <point x="69" y="449" type="curve" smooth="yes"/>
      <point x="125" y="443" type="line"/>
      <point x="125" y="39" type="line"/>
      <point x="78" y="36" type="line" smooth="yes"/>
      <point x="45" y="34"/>
      <point x="51" y="10"/>
      <point x="50" y="0" type="curve"/>
      <point x="228" y="0" type="line" smooth="yes"/>
      <point x="256" y="0"/>
      <point x="252" y="25"/>
      <point x="251" y="35" type="curve"/>
      <point x="180" y="41" type="line"/>
      <point x="180" y="378" type="line"/>
      <point x="235" y="425"/>
      <point x="278" y="450"/>
      <point x="337" y="450" type="curve" smooth="yes"/>
      <point x="418" y="450"/>
      <point x="453" y="392"/>
      <point x="453" y="301" type="curve" smooth="yes"/>
      <point x="453" y="39" type="line"/>
      <point x="406" y="36" type="line" smooth="yes"/>
      <point x="373" y="34"/>
      <point x="379" y="10"/>
      <point x="378" y="0" type="curve"/>
      <point x="555" y="0" type="line" smooth="yes"/>
      <point x="583" y="0"/>
      <point x="579" y="25"/>
      <point x="578" y="35" type="curve"/>
    </contour>
  </outline>
</glyph>
<glyph name="q" format="1">
  <advance width="513"/>
  <unicode hex="0071"/>
  <outline>
    <contour>
      <point x="272" y="500" type="curve" smooth="yes"/>
      <point x="123" y="500"/>
      <point x="37" y="392"/>
      <point x="40" y="224" type="curve" smooth="yes"/>
      <point x="43" y="65"/>
      <point x="135" y="-15"/>
      <point x="232" y="-15" type="curve" smooth="yes"/>
      <point x="333" y="-15"/>
      <point x="393" y="42"/>
      <point x="426" y="83" type="curve"/>
      <point x="419" y="113" type="line"/>
      <point x="361" y="69"/>
      <point x="325" y="39"/>
      <point x="256" y="39" type="curve" smooth="yes"/>
      <point x="143" y="39"/>
      <point x="100" y="136"/>
      <point x="100" y="243" type="curve" smooth="yes"/>
      <point x="100" y="354"/>
      <point x="147" y="453"/>
      <point x="255" y="453" type="curve" smooth="yes"/>
      <point x="337" y="453"/>
      <point x="390" y="411"/>
      <point x="400" y="397" type="curve"/>
      <point x="427" y="456" type="line"/>
      <point x="379" y="481"/>
      <point x="339" y="500"/>
    </contour>
    <contour>
      <point x="446" y="-172" type="line"/>
      <point x="395" y="-174" type="line"/>
      <point x="350" y="-177" type="line" smooth="yes"/>
      <point x="317" y="-179"/>
      <point x="323" y="-203"/>
      <point x="322" y="-213" type="curve"/>
      <point x="504" y="-213" type="line" smooth="yes"/>
      <point x="532" y="-213"/>
      <point x="528" y="-188"/>
      <point x="527" y="-178" type="curve"/>
    </contour>
    <contour>
      <point x="450" y="485" type="line"/>
      <point x="395" y="485" type="line"/>
      <point x="395" y="-213" type="line"/>
      <point x="450" y="-213" type="line"/>
    </contour>
  </outline>
</glyph>
<glyph name="t" format="1">
  <advance width="365"/>
  <unicode hex="0074"/>
  <outline>
    <contour>
      <point x="217" y="0" type="move" name="bottom"/>
    </contour>
    <contour>
      <point x="96" y="601" type="line"/>
      <point x="96" y="134" type="line" smooth="yes"/>
      <point x="96" y="42"/>
      <point x="122" y="-16"/>
      <point x="214" y="-16" type="curve" smooth="yes"/>
      <point x="266" y="-16"/>
      <point x="350" y="19"/>
      <point x="350" y="55" type="curve" smooth="yes"/>
      <point x="350" y="64"/>
      <point x="344" y="74"/>
      <point x="333" y="78" type="curve"/>
      <point x="279" y="36"/>
      <point x="254" y="34"/>
      <point x="215" y="34" type="curve" smooth="yes"/>
      <point x="159" y="34"/>
      <point x="151" y="73"/>
      <point x="151" y="146" type="curve" smooth="yes"/>
      <point x="151" y="620" type="line"/>
    </contour>
    <contour>
      <point x="49" y="485" type="line"/>
      <point x="21" y="485"/>
      <point x="25" y="455"/>
      <point x="26" y="445" type="curve"/>
      <point x="334" y="445" type="line"/>
      <point x="338" y="458"/>
      <point x="341" y="472"/>
      <point x="340" y="485" type="curve"/>
    </contour>
  </outline>
</glyph>
<glyph name="v" format="1">
  <advance width="466"/>
  <unicode hex="0076"/>
  <outline>
    <contour>
      <point x="92" y="482" type="line"/>
      <point x="28" y="480" type="line"/>
      <point x="207" y="0" type="line"/>
      <point x="249" y="0" type="line"/>
      <point x="441" y="479" type="line"/>
      <point x="384" y="473" type="line"/>
      <point x="215" y="18" type="line"/>
      <point x="247" y="33" type="line"/>
    </contour>
    <contour>
      <point x="26" y="485" type="line"/>
      <point x="6" y="485"/>
      <point x="4" y="460"/>
      <point x="5" y="450" type="curve"/>
      <point x="43" y="444" type="line"/>
      <point x="104" y="446" type="line"/>
      <point x="148" y="449" type="line" smooth="yes"/>
      <point x="181" y="451"/>
      <point x="175" y="475"/>
      <point x="176" y="485" type="curve"/>
    </contour>
    <contour>
      <point x="336" y="485" type="line"/>
      <point x="308" y="485"/>
      <point x="312" y="460"/>
      <point x="313" y="450" type="curve"/>
      <point x="374" y="444" type="line"/>
      <point x="416" y="448" type="line"/>
      <point x="433" y="449" type="line" smooth="yes"/>
      <point x="463" y="451"/>
      <point x="463" y="475"/>
      <point x="461" y="485" type="curve"/>
    </contour>
  </outline>
</glyph>
<glyph name="x" format="1">
  <advance width="475"/>
  <unicode hex="0078"/>
  <outline>
    <contour>
      <point x="110" y="472" type="line"/>
      <point x="51" y="466" type="line"/>
      <point x="376" y="18" type="line"/>
      <point x="431" y="30" type="line"/>
    </contour>
    <contour>
      <point x="127" y="41" type="line"/>
      <point x="75" y="39" type="line"/>
      <point x="38" y="36" type="line" smooth="yes"/>
      <point x="4" y="33"/>
      <point x="11" y="10"/>
      <point x="10" y="0" type="curve"/>
      <point x="165" y="0" type="line" smooth="yes"/>
      <point x="193" y="0"/>
      <point x="189" y="25"/>
      <point x="188" y="35" type="curve"/>
    </contour>
    <contour>
      <point x="234" y="269" type="line"/>
      <point x="70" y="31" type="line"/>
      <point x="119" y="28" type="line"/>
      <point x="259" y="245" type="line"/>
    </contour>
    <contour>
      <point x="422" y="41" type="line"/>
      <point x="361" y="39" type="line"/>
      <point x="326" y="36" type="line" smooth="yes"/>
      <point x="293" y="33"/>
      <point x="299" y="10"/>
      <point x="298" y="0" type="curve"/>
      <point x="446" y="0" type="line" smooth="yes"/>
      <point x="474" y="0"/>
      <point x="470" y="25"/>
      <point x="469" y="35" type="curve"/>
    </contour>
    <contour>
      <point x="41" y="485" type="line"/>
      <point x="13" y="485"/>
      <point x="17" y="460"/>
      <point x="18" y="450" type="curve"/>
      <point x="66" y="444" type="line"/>
      <point x="128" y="446" type="line"/>
      <point x="163" y="449" type="line" smooth="yes"/>
      <point x="196" y="452"/>
      <point x="190" y="475"/>
      <point x="191" y="485" type="curve"/>
    </contour>
    <contour>
      <point x="373" y="469" type="line"/>
      <point x="233" y="252" type="line"/>
      <point x="258" y="228" type="line"/>
      <point x="422" y="466" type="line"/>
    </contour>
    <contour>
      <point x="325" y="485" type="line"/>
      <point x="297" y="485"/>
      <point x="301" y="460"/>
      <point x="302" y="450" type="curve"/>
      <point x="357" y="444" type="line"/>
      <point x="410" y="448" type="line"/>
      <point x="434" y="449" type="line" smooth="yes"/>
      <point x="468" y="450"/>
      <point x="461" y="475"/>
      <point x="462" y="485" type="curve"/>
    </contour>
  </outline>
</glyph>
<glyph name="y" format="1">
  <advance width="484"/>
  <unicode hex="0079"/>
  <outline>
    <contour>
      <point x="243" y="485" type="move" name="top"/>
    </contour>
    <contour>
      <point x="102" y="482" type="line"/>
      <point x="39" y="480" type="line"/>
      <point x="229" y="12" type="line"/>
      <point x="264" y="12" type="line"/>
      <point x="452" y="479" type="line"/>
      <point x="399" y="473" type="line"/>
      <point x="232" y="38" type="line"/>
      <point x="268" y="45" type="line"/>
    </contour>
    <contour>
      <point x="228" y="23" type="line"/>
      <point x="205" y="-33"/>
      <point x="147" y="-163"/>
      <point x="108" y="-163" type="curve" smooth="yes"/>
      <point x="82" y="-163"/>
      <point x="80" y="-145"/>
      <point x="84" y="-127" type="curve"/>
      <point x="79" y="-125"/>
      <point x="75" y="-125"/>
      <point x="71" y="-125" type="curve" smooth="yes"/>
      <point x="49" y="-125"/>
      <point x="35" y="-142"/>
      <point x="35" y="-167" type="curve" smooth="yes"/>
      <point x="35" y="-190"/>
      <point x="54" y="-215"/>
      <point x="97" y="-215" type="curve" smooth="yes"/>
      <point x="178" y="-215"/>
      <point x="233" y="-65"/>
      <point x="268" y="23" type="curve"/>
    </contour>
    <contour>
      <point x="29" y="485" type="line"/>
      <point x="1" y="485"/>
      <point x="5" y="460"/>
      <point x="6" y="450" type="curve"/>
      <point x="54" y="444" type="line"/>
      <point x="115" y="446" type="line"/>
      <point x="159" y="449" type="line" smooth="yes"/>
      <point x="192" y="451"/>
      <point x="186" y="475"/>
      <point x="187" y="485" type="curve"/>
    </contour>
    <contour>
      <point x="351" y="485" type="line"/>
      <point x="323" y="485"/>
      <point x="327" y="460"/>
      <point x="328" y="450" type="curve"/>
      <point x="389" y="444" type="line"/>
      <point x="415" y="446" type="line"/>
      <point x="452" y="449" type="line" smooth="yes"/>
      <point x="486" y="452"/>
      <point x="479" y="475"/>
      <point x="480" y="485" type="curve"/>
    </contour>
  </outline>
</glyph>
<glyph name="braceleft" format="1">
  <advance width="306"/>
  <unicode hex="007B"/>
  <outline>
    <contour>
      <point x="221" y="701" type="curve" smooth="yes"/>
      <point x="155" y="701"/>
      <point x="101" y="651"/>
      <point x="101" y="569" type="curve" smooth="yes"/>
      <point x="101" y="492"/>
      <point x="117" y="445"/>
      <point x="117" y="369" type="curve" smooth="yes"/>
      <point x="117" y="325"/>
      <point x="110" y="312"/>
      <point x="94" y="293" type="curve"/>
      <point x="87" y="284"/>
      <point x="84" y="278"/>
      <point x="50" y="265" type="curve"/>
      <point x="50" y="241" type="line"/>
      <point x="81" y="228"/>
      <point x="84" y="226"/>
      <point x="94" y="213" type="curve"/>
      <point x="110" y="194"/>
      <point x="117" y="183"/>
      <point x="117" y="140" type="curve" smooth="yes"/>
      <point x="117" y="59"/>
      <point x="101" y="11"/>
      <point x="101" y="-64" type="curve" smooth="yes"/>
      <point x="101" y="-146"/>
      <point x="155" y="-196"/>
      <point x="221" y="-196" type="curve" smooth="yes"/>
      <point x="251" y="-196"/>
      <point x="281" y="-192"/>
      <point x="296" y="-183" type="curve"/>
      <point x="289" y="-154" type="line"/>
      <point x="278" y="-155"/>
      <point x="268" y="-156"/>
      <point x="259" y="-156" type="curve" smooth="yes"/>
      <point x="193" y="-156"/>
      <point x="157" y="-132"/>
      <point x="157" y="-59" type="curve" smooth="yes"/>
      <point x="157" y="-9"/>
      <point x="174" y="64"/>
      <point x="174" y="125" type="curve" smooth="yes"/>
      <point x="174" y="209"/>
      <point x="150" y="241"/>
      <point x="123" y="250" type="curve"/>
      <point x="123" y="256" type="line"/>
      <point x="150" y="265"/>
      <point x="174" y="297"/>
      <point x="174" y="381" type="curve" smooth="yes"/>
      <point x="174" y="442"/>
      <point x="157" y="514"/>
      <point x="157" y="564" type="curve" smooth="yes"/>
      <point x="157" y="637"/>
      <point x="193" y="661"/>
      <point x="259" y="661" type="curve" smooth="yes"/>
      <point x="268" y="661"/>
      <point x="278" y="660"/>
      <point x="289" y="659" type="curve"/>
      <point x="296" y="688" type="line"/>
      <point x="281" y="697"/>
      <point x="251" y="701"/>
    </contour>
  </outline>
</glyph>
<glyph name="bar" format="1">
  <advance width="254"/>
  <unicode hex="007C"/>
  <outline>
    <contour>
      <point x="100" y="-196" type="line"/>
      <point x="154" y="-196" type="line"/>
      <point x="154" y="701" type="line"/>
      <point x="100" y="701" type="line"/>
    </contour>
  </outline>
</glyph>
<glyph name="asciitilde" format="1">
  <advance width="534"/>
  <unicode hex="007E"/>
  <outline>
    <contour>
      <point x="129" y="244" type="line"/>
      <point x="139" y="267"/>
      <point x="160" y="291"/>
      <point x="187" y="290" type="curve" smooth="yes"/>
      <point x="240" y="286"/>
      <point x="261" y="234"/>
      <point x="323" y="230" type="curve" smooth="yes"/>
      <point x="385" y="226"/>
      <point x="421" y="268"/>
      <point x="434" y="317" type="curve"/>
      <point x="405" y="328" type="line"/>
      <point x="396" y="300"/>
      <point x="372" y="279"/>
      <point x="340" y="281" type="curve" smooth="yes"/>
      <point x="287" y="285"/>
      <point x="267" y="338"/>
      <point x="208" y="342" type="curve" smooth="yes"/>
      <point x="167" y="345"/>
      <point x="120" y="319"/>
      <point x="100" y="258" type="curve"/>
    </contour>
  </outline>
</glyph>
<glyph name="currency" format="1">
  <advance width="578"/>
  <unicode hex="00A4"/>
  <outline>
    <contour>
      <point x="486" y="278" type="curve" smooth="yes"/>
      <point x="486" y="329"/>
      <point x="471" y="372"/>
      <point x="444" y="405" type="curve"/>
      <point x="528" y="479" type="line"/>
      <point x="514" y="498"/>
      <point x="505" y="507"/>
      <point x="488" y="517" type="curve"/>
      <point x="413" y="434" type="line"/>
      <point x="381" y="457"/>
      <point x="341" y="470"/>
      <point x="294" y="470" type="curve" smooth="yes"/>
      <point x="244" y="470"/>
      <point x="201" y="455"/>
      <point x="169" y="430" type="curve"/>
      <point x="90" y="517" type="line"/>
      <point x="73" y="507"/>
      <point x="64" y="498"/>
      <point x="50" y="479" type="curve"/>
      <point x="140" y="399" type="line"/>
      <point x="116" y="367"/>
      <point x="103" y="326"/>
      <point x="103" y="278" type="curve" smooth="yes"/>
      <point x="103" y="232"/>
      <point x="115" y="192"/>
      <point x="137" y="161" type="curve"/>
      <point x="50" y="83" type="line"/>
      <point x="64" y="64"/>
      <point x="73" y="55"/>
      <point x="90" y="45" type="curve"/>
      <point x="166" y="129" type="line"/>
      <point x="199" y="102"/>
      <point x="242" y="87"/>
      <point x="293" y="87" type="curve" smooth="yes"/>
      <point x="342" y="87"/>
      <point x="384" y="100"/>
      <point x="416" y="125" type="curve"/>
      <point x="488" y="45" type="line"/>
      <point x="505" y="55"/>
      <point x="514" y="64"/>
      <point x="528" y="83" type="curve"/>
      <point x="447" y="155" type="line"/>
      <point x="472" y="187"/>
      <point x="486" y="229"/>
    </contour>
    <contour>
      <point x="296" y="135" type="curve" smooth="yes"/>
      <point x="213" y="135"/>
      <point x="157" y="193"/>
      <point x="157" y="278" type="curve" smooth="yes"/>
      <point x="157" y="363"/>
      <point x="213" y="422"/>
      <point x="296" y="422" type="curve" smooth="yes"/>
      <point x="378" y="422"/>
      <point x="432" y="363"/>
      <point x="432" y="278" type="curve" smooth="yes"/>
      <point x="432" y="193"/>
      <point x="378" y="135"/>
    </contour>
  </outline>
</glyph>
<glyph name="section" format="1">
  <advance width="516"/>
  <unicode hex="00A7"/>
  <outline>
    <contour>
      <point x="140" y="410" type="line"/>
      <point x="96" y="380"/>
      <point x="66" y="335"/>
      <point x="66" y="278" type="curve" smooth="yes"/>
      <point x="66" y="178"/>
      <point x="160" y="131"/>
      <point x="266" y="85" type="curve" smooth="yes"/>
      <point x="354" y="47"/>
      <point x="416" y="25"/>
      <point x="416" y="-63" type="curve" smooth="yes"/>
      <point x="416" y="-162"/>
      <point x="336" y="-205"/>
      <point x="250" y="-205" type="curve" smooth="yes"/>
      <point x="168" y="-205"/>
      <point x="105" y="-166"/>
      <point x="85" y="-91" type="curve"/>
      <point x="57" y="-91"/>
      <point x="40" y="-114"/>
      <point x="40" y="-143" type="curve" smooth="yes"/>
      <point x="40" y="-212"/>
      <point x="139" y="-257"/>
      <point x="236" y="-257" type="curve" smooth="yes"/>
      <point x="383" y="-257"/>
      <point x="476" y="-152"/>
      <point x="476" y="-41" type="curve" smooth="yes"/>
      <point x="476" y="62"/>
      <point x="396" y="98"/>
      <point x="292" y="141" type="curve" smooth="yes"/>
      <point x="215" y="173"/>
      <point x="126" y="211"/>
      <point x="126" y="293" type="curve" smooth="yes"/>
      <point x="126" y="332"/>
      <point x="146" y="361"/>
      <point x="178" y="378" type="curve"/>
    </contour>
    <contour>
      <point x="390" y="34" type="line"/>
      <point x="445" y="75"/>
      <point x="476" y="137"/>
      <point x="476" y="201" type="curve" smooth="yes"/>
      <point x="476" y="304"/>
      <point x="396" y="340"/>
      <point x="292" y="383" type="curve" smooth="yes"/>
      <point x="215" y="415"/>
      <point x="126" y="453"/>
      <point x="126" y="535" type="curve" smooth="yes"/>
      <point x="126" y="604"/>
      <point x="188" y="639"/>
      <point x="264" y="639" type="curve" smooth="yes"/>
      <point x="351" y="639"/>
      <point x="389" y="594"/>
      <point x="389" y="529" type="curve"/>
      <point x="413" y="529"/>
      <point x="444" y="542"/>
      <point x="444" y="586" type="curve" smooth="yes"/>
      <point x="444" y="670"/>
      <point x="328" y="693"/>
      <point x="266" y="691" type="curve" smooth="yes"/>
      <point x="167" y="689"/>
      <point x="66" y="624"/>
      <point x="66" y="520" type="curve" smooth="yes"/>
      <point x="66" y="420"/>
      <point x="160" y="373"/>
      <point x="266" y="327" type="curve" smooth="yes"/>
      <point x="354" y="289"/>
      <point x="416" y="267"/>
      <point x="416" y="179" type="curve" smooth="yes"/>
      <point x="416" y="128"/>
      <point x="395" y="92"/>
      <point x="362" y="69" type="curve"/>
    </contour>
  </outline>
</glyph>
<glyph name="ordfeminine" format="1">
  <advance width="312"/>
  <unicode hex="00AA"/>
  <outline>
    <contour>
      <point x="250" y="44" type="move" name="ogonek"/>
    </contour>
    <contour>
      <point x="145" y="315" type="move" name="top"/>
    </contour>
    <contour>
      <point x="142" y="621" type="curve" smooth="yes"/>
      <point x="88" y="621"/>
      <point x="52" y="598"/>
      <point x="52" y="566" type="curve" smooth="yes"/>
      <point x="52" y="543"/>
      <point x="70" y="535"/>
      <point x="88" y="537" type="curve"/>
      <point x="90" y="557"/>
      <point x="102" y="584"/>
      <point x="144" y="584" type="curve" smooth="yes"/>
      <point x="182" y="584"/>
      <point x="198" y="559"/>
      <point x="198" y="522" type="curve" smooth="yes"/>
      <point x="198" y="396" type="line" smooth="yes"/>
      <point x="198" y="369"/>
      <point x="211" y="346"/>
      <point x="250" y="346" type="curve" smooth="yes"/>
      <point x="275" y="346"/>
      <point x="288" y="361"/>
      <point x="288" y="378" type="curve"/>
      <point x="251" y="382" type="line"/>
      <point x="251" y="525" type="line" smooth="yes"/>
      <point x="251" y="603"/>
      <point x="189" y="621"/>
    </contour>
    <contour>
      <point x="147" y="495" type="curve" smooth="yes"/>
      <point x="59" y="495"/>
      <point x="35" y="456"/>
      <point x="35" y="418" type="curve" smooth="yes"/>
      <point x="35" y="373"/>
      <point x="68" y="346"/>
      <point x="120" y="346" type="curve" smooth="yes"/>
      <point x="166" y="346"/>
      <point x="203" y="370"/>
      <point x="221" y="397" type="curve"/>
      <point x="219" y="423" type="line"/>
      <point x="197" y="399"/>
      <point x="167" y="384"/>
      <point x="145" y="384" type="curve" smooth="yes"/>
      <point x="106" y="384"/>
      <point x="93" y="405"/>
      <point x="93" y="424" type="curve" smooth="yes"/>
      <point x="93" y="446"/>
      <point x="112" y="463"/>
      <point x="147" y="463" type="curve" smooth="yes"/>
      <point x="184" y="463"/>
      <point x="217" y="447"/>
      <point x="229" y="430" type="curve"/>
      <point x="228" y="481" type="line"/>
      <point x="209" y="490"/>
      <point x="178" y="495"/>
    </contour>
  </outline>
</glyph>
<glyph name="guillemotleft" format="1">
  <advance width="539"/>
  <unicode hex="00AB"/>
  <outline>
    <contour>
      <point x="505" y="436" type="line"/>
      <point x="482" y="460" type="line"/>
      <point x="238" y="261" type="line"/>
      <point x="234" y="241"/>
      <point x="234" y="239"/>
      <point x="238" y="221" type="curve"/>
      <point x="482" y="21" type="line"/>
      <point x="506" y="45" type="line"/>
      <point x="304" y="238" type="line"/>
      <point x="304" y="243" type="line"/>
    </contour>
    <contour>
      <point x="330" y="436" type="line"/>
      <point x="307" y="460" type="line"/>
      <point x="63" y="261" type="line"/>
      <point x="59" y="241"/>
      <point x="59" y="239"/>
      <point x="63" y="221" type="curve"/>
      <point x="307" y="21" type="line"/>
      <point x="331" y="45" type="line"/>
      <point x="129" y="238" type="line"/>
      <point x="129" y="243" type="line"/>
    </contour>
  </outline>
</glyph>
<glyph name="logicalnot" format="1">
  <advance width="472"/>
  <unicode hex="00AC"/>
  <outline>
    <contour>
      <point x="50" y="318" type="line"/>
      <point x="50" y="268" type="line"/>
      <point x="422" y="268" type="line"/>
      <point x="422" y="318" type="line"/>
    </contour>
    <contour>
      <point x="422" y="318" type="line"/>
      <point x="370" y="318" type="line"/>
      <point x="370" y="161" type="line"/>
      <point x="422" y="161" type="line"/>
    </contour>
  </outline>
</glyph>
<glyph name="registered" format="1">
  <advance width="585"/>
  <unicode hex="00AE"/>
  <outline>
    <contour>
      <point x="293" y="695" type="curve" smooth="yes"/>
      <point x="160" y="695"/>
      <point x="70" y="604"/>
      <point x="70" y="470" type="curve" smooth="yes"/>
      <point x="70" y="336"/>
      <point x="161" y="247"/>
      <point x="293" y="247" type="curve" smooth="yes"/>
      <point x="424" y="247"/>
      <point x="515" y="334"/>
      <point x="515" y="471" type="curve" smooth="yes"/>
      <point x="515" y="608"/>
      <point x="424" y="695"/>
    </contour>
    <contour>
      <point x="295" y="655" type="curve" smooth="yes"/>
      <point x="403" y="655"/>
      <point x="470" y="577"/>
      <point x="470" y="470" type="curve" smooth="yes"/>
      <point x="470" y="357"/>
      <point x="399" y="286"/>
      <point x="293" y="286" type="curve" smooth="yes"/>
      <point x="189" y="286"/>
      <point x="115" y="360"/>
      <point x="115" y="471" type="curve" smooth="yes"/>
      <point x="115" y="582"/>
      <point x="190" y="655"/>
    </contour>
    <contour>
      <point x="204" y="604" type="line"/>
      <point x="193" y="604"/>
      <point x="193" y="586"/>
      <point x="193" y="578" type="curve"/>
      <point x="221" y="577" type="line"/>
      <point x="263" y="578" type="line"/>
      <point x="283" y="578" type="line" smooth="yes"/>
      <point x="311" y="578"/>
      <point x="339" y="570"/>
      <point x="339" y="539" type="curve" smooth="yes"/>
      <point x="339" y="513"/>
      <point x="317" y="495"/>
      <point x="279" y="495" type="curve" smooth="yes"/>
      <point x="271" y="495"/>
      <point x="263" y="496"/>
      <point x="254" y="497" type="curve"/>
      <point x="250" y="471" type="line"/>
      <point x="263" y="470"/>
      <point x="272" y="470"/>
      <point x="283" y="470" type="curve" smooth="yes"/>
      <point x="341" y="470"/>
      <point x="383" y="495"/>
      <point x="383" y="543" type="curve" smooth="yes"/>
      <point x="383" y="579"/>
      <point x="360" y="604"/>
      <point x="295" y="604" type="curve" smooth="yes"/>
    </contour>
    <contour>
      <point x="263" y="385" type="line"/>
      <point x="221" y="385" type="line"/>
      <point x="205" y="384" type="line" smooth="yes"/>
      <point x="189" y="383"/>
      <point x="192" y="361"/>
      <point x="192" y="357" type="curve"/>
      <point x="280" y="357" type="line" smooth="yes"/>
      <point x="294" y="357"/>
      <point x="293" y="378"/>
      <point x="293" y="383" type="curve"/>
    </contour>
    <contour>
      <point x="263" y="591" type="line"/>
      <point x="221" y="591" type="line"/>
      <point x="221" y="357" type="line"/>
      <point x="263" y="357" type="line"/>
    </contour>
    <contour>
      <point x="273" y="477" type="line"/>
      <point x="290" y="427"/>
      <point x="332" y="353"/>
      <point x="378" y="353" type="curve" smooth="yes"/>
      <point x="397" y="353"/>
      <point x="406" y="363"/>
      <point x="407" y="378" type="curve"/>
      <point x="380" y="378"/>
      <point x="343" y="413"/>
      <point x="312" y="479" type="curve"/>
    </contour>
  </outline>
</glyph>
<glyph name="threesuperior" format="1">
  <advance width="296"/>
  <unicode hex="00B3"/>
  <outline>
    <contour>
      <point x="145" y="620" type="curve" smooth="yes"/>
      <point x="89" y="620"/>
      <point x="52" y="595"/>
      <point x="50" y="565" type="curve" smooth="yes"/>
      <point x="49" y="547"/>
      <point x="61" y="534"/>
      <point x="88" y="533" type="curve"/>
      <point x="89" y="562"/>
      <point x="105" y="587"/>
      <point x="142" y="587" type="curve" smooth="yes"/>
      <point x="175" y="587"/>
      <point x="194" y="570"/>
      <point x="194" y="541" type="curve" smooth="yes"/>
      <point x="194" y="484"/>
      <point x="124" y="469"/>
      <point x="93" y="469" type="curve"/>
      <point x="93" y="431" type="line"/>
      <point x="146" y="434"/>
      <point x="209" y="424"/>
      <point x="211" y="368" type="curve" smooth="yes"/>
      <point x="212" y="327"/>
      <point x="179" y="302"/>
      <point x="134" y="302" type="curve" smooth="yes"/>
      <point x="93" y="302"/>
      <point x="70" y="325"/>
      <point x="66" y="355" type="curve"/>
      <point x="42" y="353"/>
      <point x="34" y="337"/>
      <point x="34" y="322" type="curve" smooth="yes"/>
      <point x="34" y="291"/>
      <point x="72" y="268"/>
      <point x="129" y="268" type="curve" smooth="yes"/>
      <point x="212" y="268"/>
      <point x="266" y="315"/>
      <point x="266" y="372" type="curve" smooth="yes"/>
      <point x="266" y="433"/>
      <point x="205" y="470"/>
      <point x="120" y="458" type="curve"/>
      <point x="123" y="448" type="line"/>
      <point x="217" y="460"/>
      <point x="248" y="505"/>
      <point x="248" y="543" type="curve" smooth="yes"/>
      <point x="248" y="591"/>
      <point x="205" y="620"/>
    </contour>
  </outline>
</glyph>
<glyph name="mu.math" format="1">
  <advance width="557"/>
  <unicode hex="00B5"/>
  <outline>
    <contour>
      <point x="161" y="485" type="line"/>
      <point x="106" y="485" type="line"/>
      <point x="106" y="186" type="line" smooth="yes"/>
      <point x="106" y="33"/>
      <point x="198" y="-15"/>
      <point x="274" y="-15" type="curve" smooth="yes"/>
      <point x="350" y="-15"/>
      <point x="396" y="19"/>
      <point x="429" y="53" type="curve"/>
      <point x="424" y="97" type="line"/>
      <point x="384" y="62"/>
      <point x="345" y="37"/>
      <point x="285" y="37" type="curve" smooth="yes"/>
      <point x="208" y="37"/>
      <point x="161" y="91"/>
      <point x="161" y="195" type="curve" smooth="yes"/>
    </contour>
    <contour>
      <point x="107" y="162" type="line"/>
      <point x="101" y="-187" type="line"/>
      <point x="117" y="-191"/>
      <point x="144" y="-191"/>
      <point x="158" y="-187" type="curve"/>
      <point x="152" y="45" type="line"/>
    </contour>
    <contour>
      <point x="474" y="485" type="line"/>
      <point x="419" y="485" type="line"/>
      <point x="419" y="75" type="line" smooth="yes"/>
      <point x="419" y="23"/>
      <point x="433" y="-16"/>
      <point x="486" y="-16" type="curve" smooth="yes"/>
      <point x="510" y="-16"/>
      <point x="541" y="-8"/>
      <point x="541" y="27" type="curve"/>
      <point x="474" y="35" type="line"/>
    </contour>
  </outline>
</glyph>
<glyph name="cedilla" format="1">
  <advance width="600"/>
  <unicode hex="00B8"/>
  <outline>
    <contour>
      <point x="294" y="0" type="move" name="_bottom"/>
    </contour>
    <contour>
      <point x="312" y="18" type="line"/>
      <point x="277" y="18" type="line"/>
      <point x="252" y="-77" type="line"/>
      <point x="313" y="-77"/>
      <point x="326" y="-92"/>
      <point x="326" y="-112" type="curve" smooth="yes"/>
      <point x="326" y="-136"/>
      <point x="308" y="-151"/>
      <point x="277" y="-151" type="curve" smooth="yes"/>
      <point x="254" y="-151"/>
      <point x="240" y="-143"/>
      <point x="226" y="-132" type="curve"/>
      <point x="220" y="-136"/>
      <point x="212" y="-146"/>
      <point x="214" y="-161" type="curve"/>
      <point x="228" y="-176"/>
      <point x="252" y="-189"/>
      <point x="287" y="-189" type="curve" smooth="yes"/>
      <point x="339" y="-189"/>
      <point x="378" y="-160"/>
      <point x="378" y="-110" type="curve" smooth="yes"/>
      <point x="378" y="-71"/>
      <point x="355" y="-41"/>
      <point x="298" y="-41" type="curve"/>
    </contour>
  </outline>
</glyph>
<glyph name="onesuperior" format="1">
  <advance width="268"/>
  <unicode hex="00B9"/>
  <outline>
    <contour>
      <point x="166" y="595" type="line"/>
      <point x="166" y="610"/>
      <point x="158" y="617"/>
      <point x="147" y="617" type="curve" smooth="yes"/>
      <point x="139" y="617"/>
      <point x="130" y="616"/>
      <point x="121" y="611" type="curve" smooth="yes"/>
      <point x="45" y="572" type="line"/>
      <point x="45" y="566"/>
      <point x="56" y="545"/>
      <point x="73" y="550" type="curve" smooth="yes"/>
      <point x="114" y="562" type="line"/>
      <point x="114" y="287" type="line"/>
      <point x="166" y="287" type="line"/>
    </contour>
    <contour>
      <point x="166" y="318" type="line"/>
      <point x="114" y="317" type="line"/>
      <point x="76" y="316" type="line" smooth="yes"/>
      <point x="52" y="315"/>
      <point x="56" y="293"/>
      <point x="55" y="287" type="curve"/>
      <point x="202" y="287" type="line" smooth="yes"/>
      <point x="225" y="287"/>
      <point x="223" y="310"/>
      <point x="222" y="315" type="curve"/>
    </contour>
  </outline>
</glyph>
<glyph name="ordmasculine" format="1">
  <advance width="355"/>
  <unicode hex="00BA"/>
  <outline>
    <contour>
      <point x="179" y="296" type="move" name="top"/>
    </contour>
    <contour>
      <point x="174" y="621" type="curve" smooth="yes"/>
      <point x="94" y="621"/>
      <point x="45" y="565"/>
      <point x="46" y="473" type="curve" smooth="yes"/>
      <point x="47" y="391"/>
      <point x="88" y="341"/>
      <point x="164" y="341" type="curve" smooth="yes"/>
      <point x="246" y="341"/>
      <point x="293" y="400"/>
      <point x="292" y="487" type="curve" smooth="yes"/>
      <point x="291" y="586"/>
      <point x="231" y="621"/>
    </contour>
    <contour>
      <point x="169" y="584" type="curve" smooth="yes"/>
      <point x="215" y="584"/>
      <point x="236" y="536"/>
      <point x="236" y="479" type="curve" smooth="yes"/>
      <point x="236" y="420"/>
      <point x="211" y="378"/>
      <point x="169" y="378" type="curve" smooth="yes"/>
      <point x="124" y="378"/>
      <point x="101" y="422"/>
      <point x="101" y="480" type="curve" smooth="yes"/>
      <point x="101" y="538"/>
      <point x="126" y="584"/>
    </contour>
  </outline>
</glyph>
<glyph name="onehalf" format="1">
  <advance width="600"/>
  <unicode hex="00BD"/>
  <outline>
    <contour>
      <point x="498" y="620" type="line"/>
      <point x="446" y="620" type="line"/>
      <point x="92" y="0" type="line"/>
      <point x="144" y="0" type="line"/>
    </contour>
    <contour>
      <point x="139" y="309" type="line"/>
      <point x="87" y="308" type="line"/>
      <point x="49" y="306" type="line" smooth="yes"/>
      <point x="25" y="305"/>
      <point x="29" y="282"/>
      <point x="28" y="276" type="curve"/>
      <point x="175" y="276" type="line" smooth="yes"/>
      <point x="198" y="276"/>
      <point x="196" y="300"/>
      <point x="195" y="305" type="curve"/>
    </contour>
    <contour>
      <point x="120" y="620" type="curve" smooth="yes"/>
      <point x="112" y="620"/>
      <point x="103" y="619"/>
      <point x="94" y="614" type="curve" smooth="yes"/>
      <point x="18" y="573" type="line"/>
      <point x="18" y="566"/>
      <point x="29" y="544"/>
      <point x="46" y="549" type="curve" smooth="yes"/>
      <point x="87" y="562" type="line"/>
      <point x="87" y="276" type="line"/>
      <point x="139" y="276" type="line"/>
      <point x="139" y="597" type="line" smooth="yes"/>
      <point x="139" y="613"/>
      <point x="131" y="620"/>
    </contour>
    <contour>
      <point x="461" y="344" type="curve" smooth="yes"/>
      <point x="396" y="344"/>
      <point x="349" y="311"/>
      <point x="349" y="268" type="curve" smooth="yes"/>
      <point x="349" y="239"/>
      <point x="372" y="231"/>
      <point x="391" y="232" type="curve"/>
      <point x="391" y="277"/>
      <point x="409" y="309"/>
      <point x="455" y="309" type="curve" smooth="yes"/>
      <point x="496" y="309"/>
      <point x="517" y="285"/>
      <point x="517" y="251" type="curve" smooth="yes"/>
      <point x="517" y="169"/>
      <point x="406" y="82"/>
      <point x="340" y="27" type="curve"/>
      <point x="339" y="20"/>
      <point x="343" y="5"/>
      <point x="345" y="0" type="curve"/>
      <point x="583" y="0" type="line"/>
      <point x="583" y="89" type="line"/>
      <point x="574" y="93"/>
      <point x="554" y="89"/>
      <point x="551" y="70" type="curve" smooth="yes"/>
      <point x="546" y="37" type="line"/>
      <point x="379" y="37" type="line"/>
      <point x="397" y="31" type="line"/>
      <point x="437" y="63"/>
      <point x="571" y="156"/>
      <point x="571" y="252" type="curve" smooth="yes"/>
      <point x="571" y="307"/>
      <point x="529" y="344"/>
    </contour>
  </outline>
</glyph>
<glyph name="threequarters" format="1">
  <advance width="600"/>
  <unicode hex="00BE"/>
  <outline>
    <contour>
      <point x="531" y="620" type="line"/>
      <point x="479" y="620" type="line"/>
      <point x="125" y="0" type="line"/>
      <point x="177" y="0" type="line"/>
    </contour>
    <contour>
      <point x="132" y="620" type="curve" smooth="yes"/>
      <point x="76" y="620"/>
      <point x="39" y="595"/>
      <point x="37" y="565" type="curve" smooth="yes"/>
      <point x="36" y="547"/>
      <point x="48" y="534"/>
      <point x="75" y="533" type="curve"/>
      <point x="76" y="562"/>
      <point x="92" y="587"/>
      <point x="129" y="587" type="curve" smooth="yes"/>
      <point x="162" y="587"/>
      <point x="181" y="570"/>
      <point x="181" y="541" type="curve" smooth="yes"/>
      <point x="181" y="484"/>
      <point x="111" y="469"/>
      <point x="80" y="469" type="curve"/>
      <point x="80" y="431" type="line"/>
      <point x="133" y="434"/>
      <point x="196" y="424"/>
      <point x="198" y="368" type="curve" smooth="yes"/>
      <point x="199" y="327"/>
      <point x="166" y="302"/>
      <point x="121" y="302" type="curve" smooth="yes"/>
      <point x="80" y="302"/>
      <point x="57" y="325"/>
      <point x="53" y="355" type="curve"/>
      <point x="29" y="353"/>
      <point x="21" y="337"/>
      <point x="21" y="322" type="curve" smooth="yes"/>
      <point x="21" y="291"/>
      <point x="59" y="268"/>
      <point x="116" y="268" type="curve" smooth="yes"/>
      <point x="199" y="268"/>
      <point x="253" y="315"/>
      <point x="253" y="372" type="curve" smooth="yes"/>
      <point x="253" y="433"/>
      <point x="192" y="470"/>
      <point x="107" y="458" type="curve"/>
      <point x="110" y="448" type="line"/>
      <point x="204" y="460"/>
      <point x="235" y="505"/>
      <point x="235" y="543" type="curve" smooth="yes"/>
      <point x="235" y="591"/>
      <point x="192" y="620"/>
    </contour>
    <contour>
      <point x="529" y="338" type="line"/>
      <point x="515" y="341"/>
      <point x="501" y="340"/>
      <point x="486" y="336" type="curve"/>
      <point x="318" y="101" type="line"/>
      <point x="319" y="89"/>
      <point x="326" y="79"/>
      <point x="332" y="70" type="curve"/>
      <point x="583" y="70" type="line"/>
      <point x="583" y="105" type="line"/>
      <point x="336" y="105" type="line"/>
      <point x="353" y="94" type="line"/>
      <point x="516" y="322" type="line"/>
      <point x="479" y="304" type="line"/>
      <point x="479" y="-9" type="line"/>
      <point x="530" y="-3" type="line"/>
    </contour>
  </outline>
</glyph>
<glyph name="Acircumflex" format="1">
  <advance width="597"/>
  <unicode hex="00C2"/>
  <outline>
    <contour>
      <point x="127" y="45" type="line"/>
      <point x="78" y="43" type="line"/>
      <point x="38" y="40" type="line" smooth="yes"/>
      <point x="5" y="38"/>
      <point x="11" y="10"/>
      <point x="10" y="0" type="curve"/>
      <point x="178" y="0" type="line" smooth="yes"/>
      <point x="206" y="0"/>
      <point x="202" y="29"/>
      <point x="201" y="39" type="curve"/>
    </contour>
    <contour>
      <point x="522" y="45" type="line"/>
      <point x="460" y="43" type="line"/>
      <point x="410" y="40" type="line" smooth="yes"/>
      <point x="377" y="38"/>
      <point x="383" y="10"/>
      <point x="382" y="0" type="curve"/>
      <point x="563" y="0" type="line" smooth="yes"/>
      <point x="591" y="0"/>
      <point x="587" y="29"/>
      <point x="586" y="39" type="curve"/>
    </contour>
    <contour>
      <point x="167" y="281" type="line"/>
      <point x="167" y="236" type="line"/>
      <point x="420" y="236" type="line"/>
      <point x="420" y="281" type="line"/>
    </contour>
    <contour>
      <point x="473" y="0" type="line"/>
      <point x="535" y="0" type="line"/>
      <point x="328" y="676" type="line"/>
      <point x="309" y="679"/>
      <point x="291" y="679"/>
      <point x="272" y="676" type="curve"/>
      <point x="72" y="22" type="line"/>
      <point x="120" y="20" type="line"/>
      <point x="305" y="650" type="line"/>
      <point x="281" y="650" type="line"/>
    </contour>
    <contour>
      <point x="328" y="864" type="line"/>
      <point x="313" y="868"/>
      <point x="289" y="869"/>
      <point x="270" y="864" type="curve"/>
      <point x="140" y="745" type="line"/>
      <point x="146" y="735"/>
      <point x="154" y="725"/>
      <point x="166" y="719" type="curve"/>
      <point x="322" y="823" type="line"/>
      <point x="276" y="823" type="line"/>
      <point x="432" y="719" type="line"/>
      <point x="444" y="725"/>
      <point x="452" y="735"/>
      <point x="458" y="745" type="curve"/>
    </contour>
  </outline>
</glyph>
<glyph name="Atilde" format="1">
  <advance width="597"/>
  <unicode hex="00C3"/>
  <outline>
    <contour>
      <point x="127" y="45" type="line"/>
      <point x="78" y="43" type="line"/>
      <point x="38" y="40" type="line" smooth="yes"/>
      <point x="5" y="38"/>
      <point x="11" y="10"/>
      <point x="10" y="0" type="curve"/>
      <point x="178" y="0" type="line" smooth="yes"/>
      <point x="206" y="0"/>
      <point x="202" y="29"/>
      <point x="201" y="39" type="curve"/>
    </contour>
    <contour>
      <point x="522" y="45" type="line"/>
      <point x="460" y="43" type="line"/>
      <point x="410" y="40" type="line" smooth="yes"/>
      <point x="377" y="38"/>
      <point x="383" y="10"/>
      <point x="382" y="0" type="curve"/>
      <point x="563" y="0" type="line" smooth="yes"/>
      <point x="591" y="0"/>
      <point x="587" y="29"/>
      <point x="586" y="39" type="curve"/>
    </contour>
    <contour>
      <point x="167" y="281" type="line"/>
      <point x="167" y="236" type="line"/>
      <point x="420" y="236" type="line"/>
      <point x="420" y="281" type="line"/>
    </contour>
    <contour>
      <point x="473" y="0" type="line"/>
      <point x="535" y="0" type="line"/>
      <point x="328" y="676" type="line"/>
      <point x="309" y="679"/>
      <point x="291" y="679"/>
      <point x="272" y="676" type="curve"/>
      <point x="72" y="22" type="line"/>
      <point x="120" y="20" type="line"/>
      <point x="305" y="650" type="line"/>
      <point x="281" y="650" type="line"/>
    </contour>
    <contour>
      <point x="164" y="757" type="line"/>
      <point x="172" y="780"/>
      <point x="191" y="806"/>
      <point x="218" y="806" type="curve" smooth="yes"/>
      <point x="271" y="806"/>
      <point x="296" y="756"/>
      <point x="358" y="756" type="curve" smooth="yes"/>
      <point x="420" y="756"/>
      <point x="453" y="801"/>
      <point x="463" y="851" type="curve"/>
      <point x="433" y="860" type="line"/>
      <point x="426" y="831"/>
      <point x="404" y="808"/>
      <point x="371" y="808" type="curve" smooth="yes"/>
      <point x="318" y="808"/>
      <point x="295" y="860"/>
      <point x="236" y="860" type="curve" smooth="yes"/>
      <point x="194" y="860"/>
      <point x="149" y="831"/>
      <point x="134" y="768" type="curve"/>
    </contour>
  </outline>
</glyph>
<glyph name="Adieresis" format="1">
  <advance width="597"/>
  <unicode hex="00C4"/>
  <outline>
    <contour>
      <point x="127" y="45" type="line"/>
      <point x="78" y="43" type="line"/>
      <point x="38" y="40" type="line" smooth="yes"/>
      <point x="5" y="38"/>
      <point x="11" y="10"/>
      <point x="10" y="0" type="curve"/>
      <point x="178" y="0" type="line" smooth="yes"/>
      <point x="206" y="0"/>
      <point x="202" y="29"/>
      <point x="201" y="39" type="curve"/>
    </contour>
    <contour>
      <point x="522" y="45" type="line"/>
      <point x="460" y="43" type="line"/>
      <point x="410" y="40" type="line" smooth="yes"/>
      <point x="377" y="38"/>
      <point x="383" y="10"/>
      <point x="382" y="0" type="curve"/>
      <point x="563" y="0" type="line" smooth="yes"/>
      <point x="591" y="0"/>
      <point x="587" y="29"/>
      <point x="586" y="39" type="curve"/>
    </contour>
    <contour>
      <point x="167" y="281" type="line"/>
      <point x="167" y="236" type="line"/>
      <point x="420" y="236" type="line"/>
      <point x="420" y="281" type="line"/>
    </contour>
    <contour>
      <point x="473" y="0" type="line"/>
      <point x="535" y="0" type="line"/>
      <point x="328" y="676" type="line"/>
      <point x="309" y="679"/>
      <point x="291" y="679"/>
      <point x="272" y="676" type="curve"/>
      <point x="72" y="22" type="line"/>
      <point x="120" y="20" type="line"/>
      <point x="305" y="650" type="line"/>
      <point x="281" y="650" type="line"/>
    </contour>
    <contour>
      <point x="221" y="750" type="curve" smooth="yes"/>
      <point x="247" y="750"/>
      <point x="267" y="771"/>
      <point x="267" y="797" type="curve" smooth="yes"/>
      <point x="267" y="822"/>
      <point x="247" y="844"/>
      <point x="221" y="844" type="curve" smooth="yes"/>
      <point x="194" y="844"/>
      <point x="173" y="822"/>
      <point x="173" y="797" type="curve" smooth="yes"/>
      <point x="173" y="771"/>
      <point x="194" y="750"/>
    </contour>
    <contour>
      <point x="377" y="750" type="curve" smooth="yes"/>
      <point x="405" y="750"/>
      <point x="425" y="771"/>
      <point x="425" y="797" type="curve" smooth="yes"/>
      <point x="425" y="822"/>
      <point x="405" y="844"/>
      <point x="377" y="844" type="curve" smooth="yes"/>
      <point x="352" y="844"/>
      <point x="331" y="822"/>
      <point x="331" y="797" type="curve" smooth="yes"/>
      <point x="331" y="771"/>
      <point x="352" y="750"/>
    </contour>
  </outline>
</glyph>
<glyph name="Aring" format="1">
  <advance width="597"/>
  <unicode hex="00C5"/>
  <outline>
    <contour>
      <point x="127" y="45" type="line"/>
      <point x="78" y="43" type="line"/>
      <point x="38" y="40" type="line" smooth="yes"/>
      <point x="5" y="38"/>
      <point x="11" y="10"/>
      <point x="10" y="0" type="curve"/>
      <point x="178" y="0" type="line" smooth="yes"/>
      <point x="206" y="0"/>
      <point x="202" y="29"/>
      <point x="201" y="39" type="curve"/>
    </contour>
    <contour>
      <point x="522" y="45" type="line"/>
      <point x="460" y="43" type="line"/>
      <point x="410" y="40" type="line" smooth="yes"/>
      <point x="377" y="38"/>
      <point x="383" y="10"/>
      <point x="382" y="0" type="curve"/>
      <point x="563" y="0" type="line" smooth="yes"/>
      <point x="591" y="0"/>
      <point x="587" y="29"/>
      <point x="586" y="39" type="curve"/>
    </contour>
    <contour>
      <point x="167" y="281" type="line"/>
      <point x="167" y="236" type="line"/>
      <point x="420" y="236" type="line"/>
      <point x="420" y="281" type="line"/>
    </contour>
    <contour>
      <point x="473" y="0" type="line"/>
      <point x="535" y="0" type="line"/>
      <point x="328" y="676" type="line"/>
      <point x="309" y="679"/>
      <point x="291" y="679"/>
      <point x="272" y="676" type="curve"/>
      <point x="72" y="22" type="line"/>
      <point x="120" y="20" type="line"/>
      <point x="305" y="650" type="line"/>
      <point x="281" y="650" type="line"/>
    </contour>
    <contour>
      <point x="303" y="904" type="curve" smooth="yes"/>
      <point x="248" y="904"/>
      <point x="211" y="869"/>
      <point x="211" y="816" type="curve" smooth="yes"/>
      <point x="211" y="766"/>
      <point x="246" y="732"/>
      <point x="299" y="732" type="curve" smooth="yes"/>
      <point x="353" y="732"/>
      <point x="390" y="767"/>
      <point x="391" y="820" type="curve" smooth="yes"/>
      <point x="391" y="870"/>
      <point x="357" y="904"/>
    </contour>
    <contour>
      <point x="301" y="864" type="curve" smooth="yes"/>
      <point x="329" y="864"/>
      <point x="347" y="846"/>
      <point x="347" y="818" type="curve" smooth="yes"/>
      <point x="347" y="790"/>
      <point x="329" y="772"/>
      <point x="301" y="772" type="curve" smooth="yes"/>
      <point x="273" y="772"/>
      <point x="255" y="790"/>
      <point x="255" y="818" type="curve" smooth="yes"/>
      <point x="255" y="846"/>
      <point x="273" y="864"/>
    </contour>
  </outline>
</glyph>
<glyph name="AE" format="1">
  <advance width="854"/>
  <unicode hex="00C6"/>
  <outline>
    <contour>
      <point x="815" y="0" type="move" name="bottom"/>
    </contour>
    <contour>
      <point x="1052" y="10" type="move" name="ogonek"/>
    </contour>
    <contour>
      <point x="815" y="707" type="move" name="top"/>
    </contour>
    <contour>
      <point x="788" y="677" type="line"/>
      <point x="387" y="676" type="line"/>
      <point x="67" y="22" type="line"/>
      <point x="115" y="20" type="line"/>
      <point x="411" y="632" type="line"/>
      <point x="419" y="632" type="line"/>
      <point x="419" y="43" type="line"/>
      <point x="369" y="40" type="line" smooth="yes"/>
      <point x="336" y="38"/>
      <point x="342" y="10"/>
      <point x="341" y="0" type="curve"/>
      <point x="808" y="0" type="line"/>
      <point x="808" y="129" type="line" smooth="yes"/>
      <point x="808" y="159"/>
      <point x="779" y="153"/>
      <point x="769" y="152" type="curve"/>
      <point x="759" y="51" type="line"/>
      <point x="477" y="45" type="line"/>
      <point x="477" y="317" type="line"/>
      <point x="673" y="306" type="line"/>
      <point x="677" y="328"/>
      <point x="677" y="352"/>
      <point x="673" y="371" type="curve"/>
      <point x="477" y="360" type="line"/>
      <point x="477" y="632" type="line"/>
      <point x="739" y="627" type="line"/>
      <point x="749" y="515" type="line"/>
      <point x="759" y="514"/>
      <point x="788" y="510"/>
      <point x="788" y="538" type="curve" smooth="yes"/>
    </contour>
    <contour>
      <point x="127" y="45" type="line"/>
      <point x="78" y="43" type="line"/>
      <point x="38" y="40" type="line" smooth="yes"/>
      <point x="5" y="38"/>
      <point x="11" y="10"/>
      <point x="10" y="0" type="curve"/>
      <point x="178" y="0" type="line" smooth="yes"/>
      <point x="206" y="0"/>
      <point x="202" y="29"/>
      <point x="201" y="39" type="curve"/>
    </contour>
    <contour>
      <point x="439" y="362" type="line"/>
      <point x="241" y="362" type="line"/>
      <point x="241" y="317" type="line"/>
      <point x="439" y="317" type="line"/>
    </contour>
  </outline>
</glyph>
<glyph name="Ecircumflex" format="1">
  <advance width="547"/>
  <unicode hex="00CA"/>
  <outline>
    <contour>
      <point x="178" y="630" type="line"/>
      <point x="440" y="625" type="line"/>
      <point x="450" y="513" type="line"/>
      <point x="460" y="512"/>
      <point x="489" y="508"/>
      <point x="489" y="536" type="curve" smooth="yes"/>
      <point x="489" y="675" type="line"/>
      <point x="71" y="675" type="line" smooth="yes"/>
      <point x="42" y="675"/>
      <point x="46" y="647"/>
      <point x="47" y="637" type="curve"/>
      <point x="120" y="630" type="line"/>
      <point x="120" y="43" type="line"/>
      <point x="70" y="40" type="line" smooth="yes"/>
      <point x="37" y="38"/>
      <point x="43" y="10"/>
      <point x="42" y="0" type="curve"/>
      <point x="501" y="0" type="line"/>
      <point x="501" y="129" type="line" smooth="yes"/>
      <point x="501" y="159"/>
      <point x="472" y="153"/>
      <point x="462" y="152" type="curve"/>
      <point x="452" y="51" type="line"/>
      <point x="178" y="45" type="line"/>
      <point x="178" y="315" type="line"/>
      <point x="374" y="304" type="line"/>
      <point x="378" y="326"/>
      <point x="378" y="350"/>
      <point x="374" y="369" type="curve"/>
      <point x="178" y="358" type="line"/>
    </contour>
    <contour>
      <point x="330" y="864" type="line"/>
      <point x="315" y="868"/>
      <point x="291" y="869"/>
      <point x="272" y="864" type="curve"/>
      <point x="142" y="745" type="line"/>
      <point x="148" y="735"/>
      <point x="156" y="725"/>
      <point x="168" y="719" type="curve"/>
      <point x="324" y="823" type="line"/>
      <point x="278" y="823" type="line"/>
      <point x="434" y="719" type="line"/>
      <point x="446" y="725"/>
      <point x="454" y="735"/>
      <point x="460" y="745" type="curve"/>
    </contour>
  </outline>
</glyph>
<glyph name="Edieresis" format="1">
  <advance width="547"/>
  <unicode hex="00CB"/>
  <outline>
    <contour>
      <point x="178" y="630" type="line"/>
      <point x="440" y="625" type="line"/>
      <point x="450" y="513" type="line"/>
      <point x="460" y="512"/>
      <point x="489" y="508"/>
      <point x="489" y="536" type="curve" smooth="yes"/>
      <point x="489" y="675" type="line"/>
      <point x="71" y="675" type="line" smooth="yes"/>
      <point x="42" y="675"/>
      <point x="46" y="647"/>
      <point x="47" y="637" type="curve"/>
      <point x="120" y="630" type="line"/>
      <point x="120" y="43" type="line"/>
      <point x="70" y="40" type="line" smooth="yes"/>
      <point x="37" y="38"/>
      <point x="43" y="10"/>
      <point x="42" y="0" type="curve"/>
      <point x="501" y="0" type="line"/>
      <point x="501" y="129" type="line" smooth="yes"/>
      <point x="501" y="159"/>
      <point x="472" y="153"/>
      <point x="462" y="152" type="curve"/>
      <point x="452" y="51" type="line"/>
      <point x="178" y="45" type="line"/>
      <point x="178" y="315" type="line"/>
      <point x="374" y="304" type="line"/>
      <point x="378" y="326"/>
      <point x="378" y="350"/>
      <point x="374" y="369" type="curve"/>
      <point x="178" y="358" type="line"/>
    </contour>
    <contour>
      <point x="223" y="750" type="curve" smooth="yes"/>
      <point x="249" y="750"/>
      <point x="269" y="771"/>
      <point x="269" y="797" type="curve" smooth="yes"/>
      <point x="269" y="822"/>
      <point x="249" y="844"/>
      <point x="223" y="844" type="curve" smooth="yes"/>
      <point x="196" y="844"/>
      <point x="175" y="822"/>
      <point x="175" y="797" type="curve" smooth="yes"/>
      <point x="175" y="771"/>
      <point x="196" y="750"/>
    </contour>
    <contour>
      <point x="379" y="750" type="curve" smooth="yes"/>
      <point x="407" y="750"/>
      <point x="427" y="771"/>
      <point x="427" y="797" type="curve" smooth="yes"/>
      <point x="427" y="822"/>
      <point x="407" y="844"/>
      <point x="379" y="844" type="curve" smooth="yes"/>
      <point x="354" y="844"/>
      <point x="333" y="822"/>
      <point x="333" y="797" type="curve" smooth="yes"/>
      <point x="333" y="771"/>
      <point x="354" y="750"/>
    </contour>
  </outline>
</glyph>
<glyph name="Iacute" format="1">
  <advance width="299"/>
  <unicode hex="00CD"/>
  <outline>
    <contour>
      <point x="178" y="645" type="line"/>
      <point x="120" y="645" type="line"/>
      <point x="120" y="0" type="line"/>
      <point x="178" y="0" type="line"/>
    </contour>
    <contour>
      <point x="178" y="45" type="line"/>
      <point x="120" y="43" type="line"/>
      <point x="70" y="40" type="line" smooth="yes"/>
      <point x="37" y="38"/>
      <point x="43" y="10"/>
      <point x="42" y="0" type="curve"/>
      <point x="229" y="0" type="line" smooth="yes"/>
      <point x="257" y="0"/>
      <point x="253" y="29"/>
      <point x="252" y="39" type="curve"/>
    </contour>
    <contour>
      <point x="121" y="630" type="line"/>
      <point x="179" y="632" type="line"/>
      <point x="229" y="635" type="line" smooth="yes"/>
      <point x="262" y="637"/>
      <point x="256" y="665"/>
      <point x="257" y="675" type="curve"/>
      <point x="70" y="675" type="line" smooth="yes"/>
      <point x="42" y="675"/>
      <point x="46" y="646"/>
      <point x="47" y="636" type="curve"/>
    </contour>
    <contour>
      <point x="297" y="835" type="line"/>
      <point x="286" y="857"/>
      <point x="262" y="878"/>
      <point x="239" y="879" type="curve"/>
      <point x="75" y="755" type="line"/>
      <point x="81" y="745"/>
      <point x="89" y="735"/>
      <point x="101" y="729" type="curve"/>
    </contour>
  </outline>
</glyph>
<glyph name="Icircumflex" format="1">
  <advance width="299"/>
  <unicode hex="00CE"/>
  <outline>
    <contour>
      <point x="178" y="645" type="line"/>
      <point x="120" y="645" type="line"/>
      <point x="120" y="0" type="line"/>
      <point x="178" y="0" type="line"/>
    </contour>
    <contour>
      <point x="178" y="45" type="line"/>
      <point x="120" y="43" type="line"/>
      <point x="70" y="40" type="line" smooth="yes"/>
      <point x="37" y="38"/>
      <point x="43" y="10"/>
      <point x="42" y="0" type="curve"/>
      <point x="229" y="0" type="line" smooth="yes"/>
      <point x="257" y="0"/>
      <point x="253" y="29"/>
      <point x="252" y="39" type="curve"/>
    </contour>
    <contour>
      <point x="121" y="630" type="line"/>
      <point x="179" y="632" type="line"/>
      <point x="229" y="635" type="line" smooth="yes"/>
      <point x="262" y="637"/>
      <point x="256" y="665"/>
      <point x="257" y="675" type="curve"/>
      <point x="70" y="675" type="line" smooth="yes"/>
      <point x="42" y="675"/>
      <point x="46" y="646"/>
      <point x="47" y="636" type="curve"/>
    </contour>
    <contour>
      <point x="183" y="864" type="line"/>
      <point x="168" y="868"/>
      <point x="144" y="869"/>
      <point x="125" y="864" type="curve"/>
      <point x="-5" y="745" type="line"/>
      <point x="1" y="735"/>
      <point x="9" y="725"/>
      <point x="21" y="719" type="curve"/>
      <point x="177" y="823" type="line"/>
      <point x="131" y="823" type="line"/>
      <point x="287" y="719" type="line"/>
      <point x="299" y="725"/>
      <point x="307" y="735"/>
      <point x="313" y="745" type="curve"/>
    </contour>
  </outline>
</glyph>
<glyph name="Eth" format="1">
  <advance width="685"/>
  <unicode hex="00D0"/>
  <outline>
    <contour>
      <point x="69" y="360" type="line"/>
      <point x="69" y="315" type="line"/>
      <point x="367" y="315" type="line"/>
      <point x="367" y="360" type="line"/>
    </contour>
    <component base="D"/>
  </outline>
</glyph>
<glyph name="Ocircumflex" format="1">
  <advance width="629"/>
  <unicode hex="00D4"/>
  <outline>
    <contour>
      <point x="326" y="690" type="curve" smooth="yes"/>
      <point x="138" y="690"/>
      <point x="35" y="531"/>
      <point x="40" y="310" type="curve" smooth="yes"/>
      <point x="45" y="110"/>
      <point x="140" y="-15"/>
      <point x="298" y="-15" type="curve" smooth="yes"/>
      <point x="496" y="-15"/>
      <point x="592" y="143"/>
      <point x="589" y="358" type="curve" smooth="yes"/>
      <point x="585" y="642"/>
      <point x="424" y="690"/>
    </contour>
    <contour>
      <point x="315" y="644" type="curve" smooth="yes"/>
      <point x="471" y="645"/>
      <point x="531" y="507"/>
      <point x="531" y="335" type="curve" smooth="yes"/>
      <point x="531" y="162"/>
      <point x="465" y="32"/>
      <point x="314" y="31" type="curve" smooth="yes"/>
      <point x="158" y="30"/>
      <point x="99" y="168"/>
      <point x="99" y="333" type="curve" smooth="yes"/>
      <point x="99" y="513"/>
      <point x="165" y="643"/>
    </contour>
    <contour>
      <point x="359" y="864" type="line"/>
      <point x="344" y="868"/>
      <point x="320" y="869"/>
      <point x="301" y="864" type="curve"/>
      <point x="171" y="745" type="line"/>
      <point x="177" y="735"/>
      <point x="185" y="725"/>
      <point x="197" y="719" type="curve"/>
      <point x="353" y="823" type="line"/>
      <point x="307" y="823" type="line"/>
      <point x="463" y="719" type="line"/>
      <point x="475" y="725"/>
      <point x="483" y="735"/>
      <point x="489" y="745" type="curve"/>
    </contour>
  </outline>
</glyph>
<glyph name="multiply" format="1">
  <advance width="412"/>
  <unicode hex="00D7"/>
  <outline>
    <contour>
      <point x="86" y="447" type="line"/>
      <point x="50" y="411" type="line"/>
      <point x="326" y="135" type="line"/>
      <point x="362" y="171" type="line"/>
    </contour>
    <contour>
      <point x="362" y="411" type="line"/>
      <point x="326" y="447" type="line"/>
      <point x="50" y="171" type="line"/>
      <point x="86" y="135" type="line"/>
    </contour>
  </outline>
</glyph>
<glyph name="Oslash" format="1">
  <advance width="680"/>
  <unicode hex="00D8"/>
  <outline>
    <contour>
      <point x="132" y="11" type="line"/>
      <point x="180" y="-15" type="line"/>
      <point x="575" y="663" type="line"/>
      <point x="526" y="687" type="line"/>
    </contour>
    <component base="O"/>
  </outline>
</glyph>
<glyph name="Ucircumflex" format="1">
  <advance width="640"/>
  <unicode hex="00DB"/>
  <outline>
    <contour>
      <point x="442" y="675" type="line"/>
      <point x="414" y="675"/>
      <point x="418" y="646"/>
      <point x="419" y="636" type="curve"/>
      <point x="492" y="630" type="line"/>
      <point x="492" y="236" type="line" smooth="yes"/>
      <point x="492" y="94"/>
      <point x="424" y="30"/>
      <point x="314" y="30" type="curve" smooth="yes"/>
      <point x="222" y="30"/>
      <point x="156" y="86"/>
      <point x="156" y="237" type="curve" smooth="yes"/>
      <point x="157" y="632" type="line"/>
      <point x="207" y="635" type="line" smooth="yes"/>
      <point x="240" y="637"/>
      <point x="234" y="665"/>
      <point x="235" y="675" type="curve"/>
      <point x="49" y="675" type="line" smooth="yes"/>
      <point x="21" y="675"/>
      <point x="25" y="646"/>
      <point x="26" y="636" type="curve"/>
      <point x="99" y="630" type="line"/>
      <point x="99" y="228" type="line" smooth="yes"/>
      <point x="99" y="95"/>
      <point x="145" y="-15"/>
      <point x="307" y="-15" type="curve" smooth="yes"/>
      <point x="475" y="-15"/>
      <point x="539" y="95"/>
      <point x="539" y="244" type="curve" smooth="yes"/>
      <point x="539" y="632" type="line"/>
      <point x="587" y="635" type="line" smooth="yes"/>
      <point x="620" y="637"/>
      <point x="614" y="665"/>
      <point x="615" y="675" type="curve"/>
    </contour>
    <contour>
      <point x="351" y="864" type="line"/>
      <point x="336" y="868"/>
      <point x="312" y="869"/>
      <point x="293" y="864" type="curve"/>
      <point x="163" y="745" type="line"/>
      <point x="169" y="735"/>
      <point x="177" y="725"/>
      <point x="189" y="719" type="curve"/>
      <point x="345" y="823" type="line"/>
      <point x="299" y="823" type="line"/>
      <point x="455" y="719" type="line"/>
      <point x="467" y="725"/>
      <point x="475" y="735"/>
      <point x="481" y="745" type="curve"/>
    </contour>
  </outline>
</glyph>
<glyph name="Yacute" format="1">
  <advance width="580"/>
  <unicode hex="00DD"/>
  <outline>
    <contour>
      <point x="324" y="305" type="line"/>
      <point x="264" y="305" type="line"/>
      <point x="264" y="0" type="line"/>
      <point x="324" y="0" type="line"/>
    </contour>
    <contour>
      <point x="324" y="45" type="line"/>
      <point x="264" y="43" type="line"/>
      <point x="214" y="40" type="line" smooth="yes"/>
      <point x="181" y="38"/>
      <point x="187" y="10"/>
      <point x="186" y="0" type="curve"/>
      <point x="375" y="0" type="line" smooth="yes"/>
      <point x="403" y="0"/>
      <point x="399" y="29"/>
      <point x="398" y="39" type="curve"/>
    </contour>
    <contour>
      <point x="51" y="648" type="line"/>
      <point x="272" y="258" type="line"/>
      <point x="316" y="258" type="line"/>
      <point x="536" y="651" type="line"/>
      <point x="480" y="645" type="line"/>
      <point x="285" y="282" type="line"/>
      <point x="314" y="299" type="line"/>
      <point x="117" y="650" type="line"/>
    </contour>
    <contour>
      <point x="474" y="632" type="line"/>
      <point x="527" y="634" type="line"/>
      <point x="547" y="637" type="line" smooth="yes"/>
      <point x="580" y="642"/>
      <point x="574" y="667"/>
      <point x="575" y="677" type="curve"/>
      <point x="427" y="677" type="line" smooth="yes"/>
      <point x="399" y="677"/>
      <point x="403" y="648"/>
      <point x="404" y="638" type="curve"/>
    </contour>
    <contour>
      <point x="60" y="632" type="line"/>
      <point x="126" y="634" type="line"/>
      <point x="174" y="637" type="line" smooth="yes"/>
      <point x="207" y="639"/>
      <point x="201" y="667"/>
      <point x="202" y="677" type="curve"/>
      <point x="29" y="677" type="line" smooth="yes"/>
      <point x="1" y="677"/>
      <point x="5" y="648"/>
      <point x="6" y="638" type="curve"/>
    </contour>
    <contour>
      <point x="442" y="835" type="line"/>
      <point x="431" y="857"/>
      <point x="407" y="878"/>
      <point x="384" y="879" type="curve"/>
      <point x="220" y="755" type="line"/>
      <point x="226" y="745"/>
      <point x="234" y="735"/>
      <point x="246" y="729" type="curve"/>
    </contour>
  </outline>
</glyph>
<glyph name="germandbls" format="1">
  <advance width="588"/>
  <unicode hex="00DF"/>
  <outline>
    <contour>
      <point x="343" y="705" type="curve" smooth="yes"/>
      <point x="234" y="707"/>
      <point x="124" y="653"/>
      <point x="124" y="455" type="curve" smooth="yes"/>
      <point x="124" y="0" type="line"/>
      <point x="179" y="0" type="line"/>
      <point x="179" y="470" type="line" smooth="yes"/>
      <point x="179" y="577"/>
      <point x="226" y="663"/>
      <point x="341" y="663" type="curve" smooth="yes"/>
      <point x="431" y="663"/>
      <point x="440" y="610"/>
      <point x="440" y="586" type="curve" smooth="yes"/>
      <point x="440" y="496"/>
      <point x="288" y="468"/>
      <point x="288" y="356" type="curve" smooth="yes"/>
      <point x="288" y="289"/>
      <point x="349" y="258"/>
      <point x="411" y="225" type="curve" smooth="yes"/>
      <point x="464" y="197"/>
      <point x="512" y="180"/>
      <point x="512" y="124" type="curve" smooth="yes"/>
      <point x="512" y="72"/>
      <point x="470" y="30"/>
      <point x="409" y="30" type="curve" smooth="yes"/>
      <point x="354" y="30"/>
      <point x="319" y="64"/>
      <point x="307" y="116" type="curve"/>
      <point x="284" y="116"/>
      <point x="268" y="103"/>
      <point x="268" y="75" type="curve" smooth="yes"/>
      <point x="268" y="19"/>
      <point x="331" y="-15"/>
      <point x="399" y="-15" type="curve" smooth="yes"/>
      <point x="506" y="-15"/>
      <point x="565" y="69"/>
      <point x="565" y="139" type="curve" smooth="yes"/>
      <point x="565" y="212"/>
      <point x="502" y="243"/>
      <point x="442" y="271" type="curve" smooth="yes"/>
      <point x="395" y="293"/>
      <point x="340" y="320"/>
      <point x="340" y="367" type="curve" smooth="yes"/>
      <point x="340" y="450"/>
      <point x="495" y="473"/>
      <point x="495" y="590" type="curve" smooth="yes"/>
      <point x="495" y="679"/>
      <point x="413" y="704"/>
    </contour>
    <contour>
      <point x="163" y="39" type="line"/>
      <point x="77" y="36" type="line" smooth="yes"/>
      <point x="44" y="35"/>
      <point x="50" y="10"/>
      <point x="49" y="0" type="curve"/>
      <point x="163" y="0" type="line"/>
    </contour>
  </outline>
</glyph>
<glyph name="atilde" format="1">
  <advance width="497"/>
  <unicode hex="00E3"/>
  <outline>
    <contour>
      <point x="231" y="500" type="curve" smooth="yes"/>
      <point x="140" y="500"/>
      <point x="79" y="457"/>
      <point x="79" y="403" type="curve" smooth="yes"/>
      <point x="79" y="365"/>
      <point x="102" y="355"/>
      <point x="125" y="357" type="curve"/>
      <point x="129" y="391"/>
      <point x="143" y="456"/>
      <point x="237" y="456" type="curve" smooth="yes"/>
      <point x="318" y="456"/>
      <point x="355" y="396"/>
      <point x="355" y="331" type="curve" smooth="yes"/>
      <point x="355" y="75" type="line" smooth="yes"/>
      <point x="355" y="23"/>
      <point x="369" y="-16"/>
      <point x="422" y="-16" type="curve" smooth="yes"/>
      <point x="446" y="-16"/>
      <point x="477" y="-8"/>
      <point x="477" y="27" type="curve"/>
      <point x="410" y="35" type="line"/>
      <point x="410" y="334" type="line" smooth="yes"/>
      <point x="410" y="487"/>
      <point x="280" y="500"/>
    </contour>
    <contour>
      <point x="240" y="258" type="curve" smooth="yes"/>
      <point x="87" y="258"/>
      <point x="50" y="179"/>
      <point x="50" y="118" type="curve" smooth="yes"/>
      <point x="50" y="34"/>
      <point x="106" y="-15"/>
      <point x="199" y="-15" type="curve" smooth="yes"/>
      <point x="282" y="-15"/>
      <point x="347" y="33"/>
      <point x="370" y="69" type="curve"/>
      <point x="365" y="108" type="line"/>
      <point x="330" y="64"/>
      <point x="272" y="33"/>
      <point x="214" y="33" type="curve" smooth="yes"/>
      <point x="152" y="33"/>
      <point x="114" y="68"/>
      <point x="114" y="128" type="curve" smooth="yes"/>
      <point x="114" y="175"/>
      <point x="147" y="215"/>
      <point x="234" y="215" type="curve" smooth="yes"/>
      <point x="318" y="215"/>
      <point x="369" y="180"/>
      <point x="379" y="165" type="curve"/>
      <point x="379" y="233" type="line"/>
      <point x="348" y="247"/>
      <point x="298" y="258"/>
    </contour>
    <contour>
      <point x="91" y="571" type="line"/>
      <point x="100" y="593"/>
      <point x="121" y="618"/>
      <point x="148" y="616" type="curve" smooth="yes"/>
      <point x="201" y="612"/>
      <point x="222" y="560"/>
      <point x="284" y="556" type="curve" smooth="yes"/>
      <point x="346" y="552"/>
      <point x="382" y="594"/>
      <point x="396" y="643" type="curve"/>
      <point x="366" y="654" type="line"/>
      <point x="357" y="626"/>
      <point x="334" y="605"/>
      <point x="301" y="607" type="curve" smooth="yes"/>
      <point x="248" y="611"/>
      <point x="229" y="664"/>
      <point x="170" y="668" type="curve" smooth="yes"/>
      <point x="128" y="671"/>
      <point x="81" y="645"/>
      <point x="62" y="584" type="curve"/>
    </contour>
  </outline>
</glyph>
<glyph name="aring" format="1">
  <advance width="497"/>
  <unicode hex="00E5"/>
  <outline>
    <contour>
      <point x="231" y="500" type="curve" smooth="yes"/>
      <point x="140" y="500"/>
      <point x="79" y="457"/>
      <point x="79" y="403" type="curve" smooth="yes"/>
      <point x="79" y="365"/>
      <point x="102" y="355"/>
      <point x="125" y="357" type="curve"/>
      <point x="129" y="391"/>
      <point x="143" y="456"/>
      <point x="237" y="456" type="curve" smooth="yes"/>
      <point x="318" y="456"/>
      <point x="355" y="396"/>
      <point x="355" y="331" type="curve" smooth="yes"/>
      <point x="355" y="75" type="line" smooth="yes"/>
      <point x="355" y="23"/>
      <point x="369" y="-16"/>
      <point x="422" y="-16" type="curve" smooth="yes"/>
      <point x="446" y="-16"/>
      <point x="477" y="-8"/>
      <point x="477" y="27" type="curve"/>
      <point x="410" y="35" type="line"/>
      <point x="410" y="334" type="line" smooth="yes"/>
      <point x="410" y="487"/>
      <point x="280" y="500"/>
    </contour>
    <contour>
      <point x="240" y="258" type="curve" smooth="yes"/>
      <point x="87" y="258"/>
      <point x="50" y="179"/>
      <point x="50" y="118" type="curve" smooth="yes"/>
      <point x="50" y="34"/>
      <point x="106" y="-15"/>
      <point x="199" y="-15" type="curve" smooth="yes"/>
      <point x="282" y="-15"/>
      <point x="347" y="33"/>
      <point x="370" y="69" type="curve"/>
      <point x="365" y="108" type="line"/>
      <point x="330" y="64"/>
      <point x="272" y="33"/>
      <point x="214" y="33" type="curve" smooth="yes"/>
      <point x="152" y="33"/>
      <point x="114" y="68"/>
      <point x="114" y="128" type="curve" smooth="yes"/>
      <point x="114" y="175"/>
      <point x="147" y="215"/>
      <point x="234" y="215" type="curve" smooth="yes"/>
      <point x="318" y="215"/>
      <point x="369" y="180"/>
      <point x="379" y="165" type="curve"/>
      <point x="379" y="233" type="line"/>
      <point x="348" y="247"/>
      <point x="298" y="258"/>
    </contour>
    <contour>
      <point x="233" y="714" type="curve" smooth="yes"/>
      <point x="178" y="714"/>
      <point x="141" y="679"/>
      <point x="141" y="626" type="curve" smooth="yes"/>
      <point x="141" y="576"/>
      <point x="176" y="542"/>
      <point x="229" y="542" type="curve" smooth="yes"/>
      <point x="283" y="542"/>
      <point x="320" y="577"/>
      <point x="321" y="630" type="curve" smooth="yes"/>
      <point x="321" y="680"/>
      <point x="287" y="714"/>
    </contour>
    <contour>
      <point x="231" y="674" type="curve" smooth="yes"/>
      <point x="259" y="674"/>
      <point x="277" y="656"/>
      <point x="277" y="628" type="curve" smooth="yes"/>
      <point x="277" y="600"/>
      <point x="259" y="582"/>
      <point x="231" y="582" type="curve" smooth="yes"/>
      <point x="203" y="582"/>
      <point x="185" y="600"/>
      <point x="185" y="628" type="curve" smooth="yes"/>
      <point x="185" y="656"/>
      <point x="203" y="674"/>
    </contour>
  </outline>
</glyph>
<glyph name="eth" format="1">
  <advance width="502"/>
  <unicode hex="00F0"/>
  <outline>
    <contour>
      <point x="111" y="651" type="line"/>
      <point x="177" y="642"/>
      <point x="402" y="560"/>
      <point x="402" y="278" type="curve" smooth="yes"/>
      <point x="402" y="133"/>
      <point x="342" y="37"/>
      <point x="236" y="37" type="curve" smooth="yes"/>
      <point x="143" y="37"/>
      <point x="100" y="111"/>
      <point x="100" y="221" type="curve" smooth="yes"/>
      <point x="100" y="334"/>
      <point x="146" y="433"/>
      <point x="258" y="433" type="curve" smooth="yes"/>
      <point x="320" y="433"/>
      <point x="375" y="416"/>
      <point x="402" y="376" type="curve"/>
      <point x="402" y="426" type="line"/>
      <point x="375" y="456"/>
      <point x="338" y="480"/>
      <point x="271" y="480" type="curve" smooth="yes"/>
      <point x="129" y="480"/>
      <point x="36" y="374"/>
      <point x="40" y="205" type="curve" smooth="yes"/>
      <point x="43" y="77"/>
      <point x="102" y="-15"/>
      <point x="229" y="-15" type="curve" smooth="yes"/>
      <point x="372" y="-15"/>
      <point x="462" y="102"/>
      <point x="462" y="284" type="curve" smooth="yes"/>
      <point x="462" y="555"/>
      <point x="264" y="671"/>
      <point x="136" y="694" type="curve"/>
    </contour>
    <contour>
      <point x="362" y="692" type="line"/>
      <point x="153" y="559" type="line"/>
      <point x="178" y="520" type="line"/>
      <point x="387" y="653" type="line"/>
    </contour>
  </outline>
</glyph>
<glyph name="ntilde" format="1">
  <advance width="604"/>
  <unicode hex="00F1"/>
  <outline>
    <contour>
      <point x="508" y="41" type="line"/>
      <point x="508" y="312" type="line" smooth="yes"/>
      <point x="508" y="452"/>
      <point x="427" y="500"/>
      <point x="352" y="500" type="curve" smooth="yes"/>
      <point x="277" y="500"/>
      <point x="219" y="456"/>
      <point x="181" y="420" type="curve"/>
      <point x="178" y="420" type="line"/>
      <point x="164" y="500" type="line"/>
      <point x="49" y="484" type="line"/>
      <point x="49" y="471"/>
      <point x="48" y="451"/>
      <point x="69" y="449" type="curve" smooth="yes"/>
      <point x="125" y="443" type="line"/>
      <point x="125" y="39" type="line"/>
      <point x="78" y="36" type="line" smooth="yes"/>
      <point x="45" y="34"/>
      <point x="51" y="10"/>
      <point x="50" y="0" type="curve"/>
      <point x="228" y="0" type="line" smooth="yes"/>
      <point x="256" y="0"/>
      <point x="252" y="25"/>
      <point x="251" y="35" type="curve"/>
      <point x="180" y="41" type="line"/>
      <point x="180" y="378" type="line"/>
      <point x="235" y="425"/>
      <point x="278" y="450"/>
      <point x="337" y="450" type="curve" smooth="yes"/>
      <point x="418" y="450"/>
      <point x="453" y="392"/>
      <point x="453" y="301" type="curve" smooth="yes"/>
      <point x="453" y="39" type="line"/>
      <point x="406" y="36" type="line" smooth="yes"/>
      <point x="373" y="34"/>
      <point x="379" y="10"/>
      <point x="378" y="0" type="curve"/>
      <point x="555" y="0" type="line" smooth="yes"/>
      <point x="583" y="0"/>
      <point x="579" y="25"/>
      <point x="578" y="35" type="curve"/>
    </contour>
    <contour>
      <point x="172" y="571" type="line"/>
      <point x="181" y="593"/>
      <point x="202" y="618"/>
      <point x="229" y="616" type="curve" smooth="yes"/>
      <point x="282" y="612"/>
      <point x="303" y="560"/>
      <point x="365" y="556" type="curve" smooth="yes"/>
      <point x="427" y="552"/>
      <point x="463" y="594"/>
      <point x="477" y="643" type="curve"/>
      <point x="447" y="654" type="line"/>
      <point x="438" y="626"/>
      <point x="415" y="605"/>
      <point x="382" y="607" type="curve" smooth="yes"/>
      <point x="329" y="611"/>
      <point x="310" y="664"/>
      <point x="251" y="668" type="curve" smooth="yes"/>
      <point x="209" y="671"/>
      <point x="162" y="645"/>
      <point x="143" y="584" type="curve"/>
    </contour>
  </outline>
</glyph>
<glyph name="ocircumflex" format="1">
  <advance width="499"/>
  <unicode hex="00F4"/>
  <outline>
    <contour>
      <point x="256" y="500" type="curve" smooth="yes"/>
      <point x="126" y="500"/>
      <point x="38" y="393"/>
      <point x="40" y="225" type="curve" smooth="yes"/>
      <point x="42" y="74"/>
      <point x="114" y="-15"/>
      <point x="241" y="-15" type="curve" smooth="yes"/>
      <point x="381" y="-15"/>
      <point x="461" y="100"/>
      <point x="459" y="261" type="curve" smooth="yes"/>
      <point x="457" y="465"/>
      <point x="333" y="500"/>
    </contour>
    <contour>
      <point x="250" y="455" type="curve" smooth="yes"/>
      <point x="358" y="456"/>
      <point x="399" y="347"/>
      <point x="399" y="243" type="curve" smooth="yes"/>
      <point x="399" y="122"/>
      <point x="347" y="31"/>
      <point x="249" y="30" type="curve" smooth="yes"/>
      <point x="145" y="29"/>
      <point x="100" y="128"/>
      <point x="100" y="241" type="curve" smooth="yes"/>
      <point x="100" y="358"/>
      <point x="151" y="454"/>
    </contour>
    <contour>
      <point x="281" y="674" type="line"/>
      <point x="266" y="678"/>
      <point x="242" y="679"/>
      <point x="223" y="674" type="curve"/>
      <point x="93" y="555" type="line"/>
      <point x="99" y="545"/>
      <point x="107" y="535"/>
      <point x="119" y="529" type="curve"/>
      <point x="275" y="633" type="line"/>
      <point x="229" y="633" type="line"/>
      <point x="385" y="529" type="line"/>
      <point x="397" y="535"/>
      <point x="405" y="545"/>
      <point x="411" y="555" type="curve"/>
    </contour>
  </outline>
</glyph>
<glyph name="otilde" format="1">
  <advance width="499"/>
  <unicode hex="00F5"/>
  <outline>
    <contour>
      <point x="256" y="500" type="curve" smooth="yes"/>
      <point x="126" y="500"/>
      <point x="38" y="393"/>
      <point x="40" y="225" type="curve" smooth="yes"/>
      <point x="42" y="74"/>
      <point x="114" y="-15"/>
      <point x="241" y="-15" type="curve" smooth="yes"/>
      <point x="381" y="-15"/>
      <point x="461" y="100"/>
      <point x="459" y="261" type="curve" smooth="yes"/>
      <point x="457" y="465"/>
      <point x="333" y="500"/>
    </contour>
    <contour>
      <point x="250" y="455" type="curve" smooth="yes"/>
      <point x="358" y="456"/>
      <point x="399" y="347"/>
      <point x="399" y="243" type="curve" smooth="yes"/>
      <point x="399" y="122"/>
      <point x="347" y="31"/>
      <point x="249" y="30" type="curve" smooth="yes"/>
      <point x="145" y="29"/>
      <point x="100" y="128"/>
      <point x="100" y="241" type="curve" smooth="yes"/>
      <point x="100" y="358"/>
      <point x="151" y="454"/>
    </contour>
    <contour>
      <point x="114" y="571" type="line"/>
      <point x="123" y="593"/>
      <point x="144" y="618"/>
      <point x="171" y="616" type="curve" smooth="yes"/>
      <point x="224" y="612"/>
      <point x="245" y="560"/>
      <point x="307" y="556" type="curve" smooth="yes"/>
      <point x="369" y="552"/>
      <point x="405" y="594"/>
      <point x="419" y="643" type="curve"/>
      <point x="389" y="654" type="line"/>
      <point x="380" y="626"/>
      <point x="357" y="605"/>
      <point x="324" y="607" type="curve" smooth="yes"/>
      <point x="271" y="611"/>
      <point x="252" y="664"/>
      <point x="193" y="668" type="curve" smooth="yes"/>
      <point x="151" y="671"/>
      <point x="104" y="645"/>
      <point x="85" y="584" type="curve"/>
    </contour>
  </outline>
</glyph>
<glyph name="divide" format="1">
  <advance width="470"/>
  <unicode hex="00F7"/>
  <outline>
    <contour>
      <point x="50" y="316" type="line"/>
      <point x="50" y="266" type="line"/>
      <point x="420" y="266" type="line"/>
      <point x="420" y="316" type="line"/>
    </contour>
    <contour>
      <point x="231" y="102" type="curve" smooth="yes"/>
      <point x="258" y="102"/>
      <point x="277" y="122"/>
      <point x="277" y="149" type="curve" smooth="yes"/>
      <point x="277" y="176"/>
      <point x="258" y="196"/>
      <point x="231" y="196" type="curve" smooth="yes"/>
      <point x="204" y="196"/>
      <point x="185" y="176"/>
      <point x="185" y="149" type="curve" smooth="yes"/>
      <point x="185" y="122"/>
      <point x="204" y="102"/>
    </contour>
    <contour>
      <point x="231" y="386" type="curve" smooth="yes"/>
      <point x="258" y="386"/>
      <point x="277" y="406"/>
      <point x="277" y="433" type="curve" smooth="yes"/>
      <point x="277" y="460"/>
      <point x="258" y="480"/>
      <point x="231" y="480" type="curve" smooth="yes"/>
      <point x="204" y="480"/>
      <point x="185" y="460"/>
      <point x="185" y="433" type="curve" smooth="yes"/>
      <point x="185" y="406"/>
      <point x="204" y="386"/>
    </contour>
  </outline>
</glyph>
<glyph name="oslash" format="1">
  <advance width="509"/>
  <unicode hex="00F8"/>
  <outline>
    <contour>
      <point x="89" y="10" type="line"/>
      <point x="134" y="-15" type="line"/>
      <point x="421" y="477" type="line"/>
      <point x="375" y="500" type="line"/>
    </contour>
    <component base="o"/>
  </outline>
</glyph>
<glyph name="thorn" format="1">
  <advance width="538"/>
  <unicode hex="00FE"/>
  <outline>
    <contour>
      <point x="306" y="500" type="curve" smooth="yes"/>
      <point x="221" y="500"/>
      <point x="149" y="433"/>
      <point x="116" y="393" type="curve"/>
      <point x="123" y="366" type="line"/>
      <point x="181" y="413"/>
      <point x="219" y="448"/>
      <point x="285" y="448" type="curve" smooth="yes"/>
      <point x="397" y="448"/>
      <point x="438" y="349"/>
      <point x="438" y="243" type="curve" smooth="yes"/>
      <point x="438" y="132"/>
      <point x="393" y="32"/>
      <point x="281" y="32" type="curve" smooth="yes"/>
      <point x="202" y="32"/>
      <point x="147" y="75"/>
      <point x="137" y="89" type="curve"/>
      <point x="111" y="29" type="line"/>
      <point x="159" y="4"/>
      <point x="200" y="-15"/>
      <point x="263" y="-15" type="curve" smooth="yes"/>
      <point x="413" y="-15"/>
      <point x="502" y="91"/>
      <point x="498" y="260" type="curve" smooth="yes"/>
      <point x="494" y="422"/>
      <point x="407" y="500"/>
    </contour>
    <contour>
      <point x="138" y="-172" type="line"/>
      <point x="87" y="-174" type="line"/>
      <point x="42" y="-177" type="line" smooth="yes"/>
      <point x="9" y="-179"/>
      <point x="15" y="-203"/>
      <point x="14" y="-213" type="curve"/>
      <point x="196" y="-213" type="line" smooth="yes"/>
      <point x="224" y="-213"/>
      <point x="220" y="-188"/>
      <point x="219" y="-178" type="curve"/>
    </contour>
    <contour>
      <point x="142" y="694" type="line"/>
      <point x="11" y="679" type="line"/>
      <point x="11" y="666"/>
      <point x="10" y="647"/>
      <point x="31" y="645" type="curve" smooth="yes"/>
      <point x="87" y="639" type="line"/>
      <point x="87" y="-213" type="line"/>
      <point x="142" y="-213" type="line"/>
    </contour>
  </outline>
</glyph>
<glyph name="Amacron" format="1">
  <advance width="597"/>
  <unicode hex="0100"/>
  <outline>
    <contour>
      <point x="127" y="45" type="line"/>
      <point x="78" y="43" type="line"/>
      <point x="38" y="40" type="line" smooth="yes"/>
      <point x="5" y="38"/>
      <point x="11" y="10"/>
      <point x="10" y="0" type="curve"/>
      <point x="178" y="0" type="line" smooth="yes"/>
      <point x="206" y="0"/>
      <point x="202" y="29"/>
      <point x="201" y="39" type="curve"/>
    </contour>
    <contour>
      <point x="522" y="45" type="line"/>
      <point x="460" y="43" type="line"/>
      <point x="410" y="40" type="line" smooth="yes"/>
      <point x="377" y="38"/>
      <point x="383" y="10"/>
      <point x="382" y="0" type="curve"/>
      <point x="563" y="0" type="line" smooth="yes"/>
      <point x="591" y="0"/>
      <point x="587" y="29"/>
      <point x="586" y="39" type="curve"/>
    </contour>
    <contour>
      <point x="167" y="281" type="line"/>
      <point x="167" y="236" type="line"/>
      <point x="420" y="236" type="line"/>
      <point x="420" y="281" type="line"/>
    </contour>
    <contour>
      <point x="473" y="0" type="line"/>
      <point x="535" y="0" type="line"/>
      <point x="328" y="676" type="line"/>
      <point x="309" y="679"/>
      <point x="291" y="679"/>
      <point x="272" y="676" type="curve"/>
      <point x="72" y="22" type="line"/>
      <point x="120" y="20" type="line"/>
      <point x="305" y="650" type="line"/>
      <point x="281" y="650" type="line"/>
    </contour>
    <contour>
      <point x="171" y="821" type="line"/>
      <point x="171" y="768" type="line"/>
      <point x="426" y="768" type="line"/>
      <point x="426" y="821" type="line"/>
    </contour>
  </outline>
</glyph>
<glyph name="abreve" format="1">
  <advance width="497"/>
  <unicode hex="0103"/>
  <outline>
    <contour>
      <point x="231" y="500" type="curve" smooth="yes"/>
      <point x="140" y="500"/>
      <point x="79" y="457"/>
      <point x="79" y="403" type="curve" smooth="yes"/>
      <point x="79" y="365"/>
      <point x="102" y="355"/>
      <point x="125" y="357" type="curve"/>
      <point x="129" y="391"/>
      <point x="143" y="456"/>
      <point x="237" y="456" type="curve" smooth="yes"/>
      <point x="318" y="456"/>
      <point x="355" y="396"/>
      <point x="355" y="331" type="curve" smooth="yes"/>
      <point x="355" y="75" type="line" smooth="yes"/>
      <point x="355" y="23"/>
      <point x="369" y="-16"/>
      <point x="422" y="-16" type="curve" smooth="yes"/>
      <point x="446" y="-16"/>
      <point x="477" y="-8"/>
      <point x="477" y="27" type="curve"/>
      <point x="410" y="35" type="line"/>
      <point x="410" y="334" type="line" smooth="yes"/>
      <point x="410" y="487"/>
      <point x="280" y="500"/>
    </contour>
    <contour>
      <point x="240" y="258" type="curve" smooth="yes"/>
      <point x="87" y="258"/>
      <point x="50" y="179"/>
      <point x="50" y="118" type="curve" smooth="yes"/>
      <point x="50" y="34"/>
      <point x="106" y="-15"/>
      <point x="199" y="-15" type="curve" smooth="yes"/>
      <point x="282" y="-15"/>
      <point x="347" y="33"/>
      <point x="370" y="69" type="curve"/>
      <point x="365" y="108" type="line"/>
      <point x="330" y="64"/>
      <point x="272" y="33"/>
      <point x="214" y="33" type="curve" smooth="yes"/>
      <point x="152" y="33"/>
      <point x="114" y="68"/>
      <point x="114" y="128" type="curve" smooth="yes"/>
      <point x="114" y="175"/>
      <point x="147" y="215"/>
      <point x="234" y="215" type="curve" smooth="yes"/>
      <point x="318" y="215"/>
      <point x="369" y="180"/>
      <point x="379" y="165" type="curve"/>
      <point x="379" y="233" type="line"/>
      <point x="348" y="247"/>
      <point x="298" y="258"/>
    </contour>
    <contour>
      <point x="230" y="588" type="curve" smooth="yes"/>
      <point x="156" y="588"/>
      <point x="121" y="638"/>
      <point x="110" y="667" type="curve"/>
      <point x="77" y="652" type="line"/>
      <point x="85" y="598"/>
      <point x="132" y="529"/>
      <point x="229" y="529" type="curve" smooth="yes"/>
      <point x="325" y="529"/>
      <point x="373" y="598"/>
      <point x="381" y="652" type="curve"/>
      <point x="348" y="665" type="line"/>
      <point x="337" y="636"/>
      <point x="312" y="588"/>
    </contour>
  </outline>
</glyph>
<glyph name="Aogonek" format="1">
  <advance width="597"/>
  <unicode hex="0104"/>
  <outline>
    <contour>
      <point x="127" y="45" type="line"/>
      <point x="78" y="43" type="line"/>
      <point x="38" y="40" type="line" smooth="yes"/>
      <point x="5" y="38"/>
      <point x="11" y="10"/>
      <point x="10" y="0" type="curve"/>
      <point x="178" y="0" type="line" smooth="yes"/>
      <point x="206" y="0"/>
      <point x="202" y="29"/>
      <point x="201" y="39" type="curve"/>
    </contour>
    <contour>
      <point x="522" y="45" type="line"/>
      <point x="460" y="43" type="line"/>
      <point x="410" y="40" type="line" smooth="yes"/>
      <point x="377" y="38"/>
      <point x="383" y="10"/>
      <point x="382" y="0" type="curve"/>
      <point x="563" y="0" type="line" smooth="yes"/>
      <point x="591" y="0"/>
      <point x="587" y="29"/>
      <point x="586" y="39" type="curve"/>
    </contour>
    <contour>
      <point x="167" y="281" type="line"/>
      <point x="167" y="236" type="line"/>
      <point x="420" y="236" type="line"/>
      <point x="420" y="281" type="line"/>
    </contour>
    <contour>
      <point x="473" y="0" type="line"/>
      <point x="535" y="0" type="line"/>
      <point x="328" y="676" type="line"/>
      <point x="309" y="679"/>
      <point x="291" y="679"/>
      <point x="272" y="676" type="curve"/>
      <point x="72" y="22" type="line"/>
      <point x="120" y="20" type="line"/>
      <point x="305" y="650" type="line"/>
      <point x="281" y="650" type="line"/>
    </contour>
    <contour>
      <point x="542" y="29" type="line"/>
      <point x="484" y="12"/>
      <point x="427" y="-27"/>
      <point x="427" y="-87" type="curve" smooth="yes"/>
      <point x="427" y="-138"/>
      <point x="468" y="-164"/>
      <point x="515" y="-164" type="curve" smooth="yes"/>
      <point x="551" y="-164"/>
      <point x="585" y="-149"/>
      <point x="599" y="-129" type="curve"/>
      <point x="601" y="-121"/>
      <point x="598" y="-104"/>
      <point x="592" y="-100" type="curve"/>
      <point x="580" y="-109"/>
      <point x="565" y="-123"/>
      <point x="534" y="-123" type="curve" smooth="yes"/>
      <point x="502" y="-123"/>
      <point x="481" y="-108"/>
      <point x="481" y="-76" type="curve" smooth="yes"/>
      <point x="481" y="-39"/>
      <point x="510" y="-13"/>
      <point x="561" y="5" type="curve"/>
    </contour>
  </outline>
</glyph>
<glyph name="ccaron" format="1">
  <advance width="447"/>
  <unicode hex="010D"/>
  <outline>
    <contour>
      <point x="272" y="500" type="curve" smooth="yes"/>
      <point x="118" y="500"/>
      <point x="38" y="374"/>
      <point x="40" y="219" type="curve" smooth="yes"/>
      <point x="42" y="87"/>
      <point x="106" y="-15"/>
      <point x="233" y="-15" type="curve" smooth="yes"/>
      <point x="316" y="-15"/>
      <point x="408" y="28"/>
      <point x="408" y="68" type="curve" smooth="yes"/>
      <point x="408" y="76"/>
      <point x="405" y="82"/>
      <point x="398" y="87" type="curve"/>
      <point x="351" y="50"/>
      <point x="306" y="34"/>
      <point x="258" y="34" type="curve" smooth="yes"/>
      <point x="133" y="34"/>
      <point x="100" y="142"/>
      <point x="100" y="237" type="curve" smooth="yes"/>
      <point x="100" y="350"/>
      <point x="149" y="453"/>
      <point x="256" y="453" type="curve" smooth="yes"/>
      <point x="329" y="453"/>
      <point x="356" y="404"/>
      <point x="357" y="363" type="curve"/>
      <point x="384" y="363"/>
      <point x="405" y="373"/>
      <point x="405" y="409" type="curve" smooth="yes"/>
      <point x="405" y="462"/>
      <point x="356" y="500"/>
    </contour>
    <contour>
      <point x="288" y="544" type="line"/>
      <point x="273" y="540"/>
      <point x="249" y="539"/>
      <point x="230" y="544" type="curve"/>
      <point x="100" y="663" type="line"/>
      <point x="106" y="673"/>
      <point x="114" y="683"/>
      <point x="126" y="689" type="curve"/>
      <point x="282" y="585" type="line"/>
      <point x="236" y="585" type="line"/>
      <point x="392" y="689" type="line"/>
      <point x="404" y="683"/>
      <point x="412" y="673"/>
      <point x="418" y="663" type="curve"/>
    </contour>
  </outline>
</glyph>
<glyph name="dcroat" format="1">
  <advance width="549"/>
  <unicode hex="0111"/>
  <outline>
    <contour>
      <point x="321" y="580" type="line"/>
      <point x="321" y="534" type="line"/>
      <point x="529" y="534" type="line"/>
      <point x="529" y="580" type="line"/>
    </contour>
    <component base="d"/>
  </outline>
</glyph>
<glyph name="edotaccent" format="1">
  <advance width="452"/>
  <unicode hex="0117"/>
  <outline>
    <contour>
      <point x="264" y="500" type="curve" smooth="yes"/>
      <point x="150" y="500"/>
      <point x="40" y="407"/>
      <point x="40" y="223" type="curve" smooth="yes"/>
      <point x="40" y="61"/>
      <point x="126" y="-15"/>
      <point x="238" y="-15" type="curve" smooth="yes"/>
      <point x="328" y="-15"/>
      <point x="410" y="34"/>
      <point x="410" y="67" type="curve" smooth="yes"/>
      <point x="410" y="74"/>
      <point x="407" y="82"/>
      <point x="400" y="87" type="curve"/>
      <point x="355" y="51"/>
      <point x="312" y="34"/>
      <point x="261" y="34" type="curve" smooth="yes"/>
      <point x="142" y="34"/>
      <point x="102" y="130"/>
      <point x="102" y="232" type="curve" smooth="yes"/>
      <point x="102" y="361"/>
      <point x="165" y="458"/>
      <point x="252" y="458" type="curve" smooth="yes"/>
      <point x="331" y="458"/>
      <point x="366" y="377"/>
      <point x="358" y="287" type="curve"/>
      <point x="385" y="307" type="line"/>
      <point x="74" y="307" type="line"/>
      <point x="77" y="268" type="line"/>
      <point x="421" y="268" type="line"/>
      <point x="421" y="314" type="line" smooth="yes"/>
      <point x="421" y="397"/>
      <point x="384" y="500"/>
    </contour>
    <contour>
      <point x="255" y="607" type="curve" smooth="yes"/>
      <point x="281" y="607"/>
      <point x="298" y="624"/>
      <point x="298" y="650" type="curve" smooth="yes"/>
      <point x="298" y="676"/>
      <point x="281" y="693"/>
      <point x="255" y="693" type="curve" smooth="yes"/>
      <point x="229" y="693"/>
      <point x="212" y="676"/>
      <point x="212" y="650" type="curve" smooth="yes"/>
      <point x="212" y="624"/>
      <point x="229" y="607"/>
    </contour>
  </outline>
</glyph>
<glyph name="Gbreve" format="1">
  <advance width="612"/>
  <unicode hex="011E"/>
  <outline>
    <contour>
      <point x="346" y="692" type="curve" smooth="yes"/>
      <point x="143" y="692"/>
      <point x="34" y="533"/>
      <point x="40" y="310" type="curve" smooth="yes"/>
      <point x="46" y="105"/>
      <point x="146" y="-15"/>
      <point x="314" y="-15" type="curve" smooth="yes"/>
      <point x="400" y="-15"/>
      <point x="496" y="17"/>
      <point x="544" y="65" type="curve"/>
      <point x="544" y="268" type="line"/>
      <point x="485" y="268" type="line"/>
      <point x="485" y="80" type="line"/>
      <point x="448" y="51"/>
      <point x="385" y="32"/>
      <point x="325" y="32" type="curve" smooth="yes"/>
      <point x="160" y="32"/>
      <point x="102" y="168"/>
      <point x="102" y="329" type="curve" smooth="yes"/>
      <point x="102" y="515"/>
      <point x="179" y="646"/>
      <point x="332" y="646" type="curve" smooth="yes"/>
      <point x="423" y="646"/>
      <point x="487" y="608"/>
      <point x="487" y="512" type="curve"/>
      <point x="534" y="512"/>
      <point x="540" y="545"/>
      <point x="540" y="565" type="curve" smooth="yes"/>
      <point x="540" y="625"/>
      <point x="488" y="692"/>
    </contour>
    <contour>
      <point x="402" y="303" type="line"/>
      <point x="375" y="303"/>
      <point x="379" y="274"/>
      <point x="380" y="264" type="curve"/>
      <point x="486" y="258" type="line"/>
      <point x="544" y="260" type="line"/>
      <point x="568" y="263" type="line" smooth="yes"/>
      <point x="600" y="267"/>
      <point x="595" y="293"/>
      <point x="596" y="303" type="curve"/>
    </contour>
    <contour>
      <point x="316" y="793" type="curve" smooth="yes"/>
      <point x="242" y="793"/>
      <point x="207" y="843"/>
      <point x="196" y="872" type="curve"/>
      <point x="163" y="857" type="line"/>
      <point x="171" y="803"/>
      <point x="218" y="734"/>
      <point x="315" y="734" type="curve" smooth="yes"/>
      <point x="411" y="734"/>
      <point x="459" y="803"/>
      <point x="467" y="857" type="curve"/>
      <point x="434" y="870" type="line"/>
      <point x="423" y="841"/>
      <point x="398" y="793"/>
    </contour>
  </outline>
</glyph>
<glyph name="gbreve" format="1">
  <advance width="458"/>
  <unicode hex="011F"/>
  <outline>
    <contour>
      <point x="381" y="334" type="curve" smooth="yes"/>
      <point x="383" y="455"/>
      <point x="298" y="500"/>
      <point x="219" y="500" type="curve" smooth="yes"/>
      <point x="102" y="500"/>
      <point x="34" y="403"/>
      <point x="42" y="301" type="curve" smooth="yes"/>
      <point x="49" y="216"/>
      <point x="107" y="155"/>
      <point x="207" y="155" type="curve" smooth="yes"/>
      <point x="324" y="155"/>
      <point x="379" y="238"/>
    </contour>
    <contour>
      <point x="211" y="194" type="curve" smooth="yes"/>
      <point x="135" y="193"/>
      <point x="98" y="264"/>
      <point x="98" y="328" type="curve" smooth="yes"/>
      <point x="98" y="397"/>
      <point x="141" y="458"/>
      <point x="212" y="460" type="curve" smooth="yes"/>
      <point x="290" y="463"/>
      <point x="325" y="393"/>
      <point x="325" y="330" type="curve" smooth="yes"/>
      <point x="325" y="263"/>
      <point x="285" y="195"/>
    </contour>
    <contour>
      <point x="151" y="196" type="line"/>
      <point x="112" y="160"/>
      <point x="75" y="127"/>
      <point x="75" y="90" type="curve" smooth="yes"/>
      <point x="75" y="43"/>
      <point x="132" y="41"/>
      <point x="210" y="39" type="curve" smooth="yes"/>
      <point x="322" y="36"/>
      <point x="403" y="28"/>
      <point x="403" y="-47" type="curve" smooth="yes"/>
      <point x="403" y="-110"/>
      <point x="346" y="-172"/>
      <point x="226" y="-172" type="curve" smooth="yes"/>
      <point x="139" y="-172"/>
      <point x="69" y="-140"/>
      <point x="69" y="-74" type="curve" smooth="yes"/>
      <point x="69" y="-20"/>
      <point x="115" y="47"/>
      <point x="175" y="63" type="curve"/>
      <point x="171" y="81" type="line"/>
      <point x="97" y="62"/>
      <point x="18" y="-8"/>
      <point x="18" y="-90" type="curve" smooth="yes"/>
      <point x="18" y="-167"/>
      <point x="89" y="-224"/>
      <point x="213" y="-224" type="curve" smooth="yes"/>
      <point x="360" y="-224"/>
      <point x="446" y="-144"/>
      <point x="446" y="-32" type="curve" smooth="yes"/>
      <point x="446" y="66"/>
      <point x="380" y="91"/>
      <point x="215" y="94" type="curve" smooth="yes"/>
      <point x="181" y="95"/>
      <point x="136" y="94"/>
      <point x="132" y="109" type="curve" smooth="yes"/>
      <point x="129" y="120"/>
      <point x="145" y="143"/>
      <point x="184" y="181" type="curve"/>
    </contour>
    <contour>
      <point x="291" y="463" type="line"/>
      <point x="313" y="445" type="line"/>
      <point x="320" y="447"/>
      <point x="415" y="438"/>
      <point x="437" y="450" type="curve"/>
      <point x="453" y="462"/>
      <point x="448" y="487"/>
      <point x="437" y="501" type="curve"/>
    </contour>
    <contour>
      <point x="231" y="588" type="curve" smooth="yes"/>
      <point x="157" y="588"/>
      <point x="122" y="638"/>
      <point x="111" y="667" type="curve"/>
      <point x="78" y="652" type="line"/>
      <point x="86" y="598"/>
      <point x="133" y="529"/>
      <point x="230" y="529" type="curve" smooth="yes"/>
      <point x="326" y="529"/>
      <point x="374" y="598"/>
      <point x="382" y="652" type="curve"/>
      <point x="349" y="665" type="line"/>
      <point x="338" y="636"/>
      <point x="313" y="588"/>
    </contour>
  </outline>
</glyph>
<glyph name="Hbar" format="1">
  <advance width="699"/>
  <unicode hex="0126"/>
  <outline>
    <contour>
      <point x="51" y="506" type="line"/>
      <point x="51" y="461" type="line"/>
      <point x="642" y="461" type="line"/>
      <point x="642" y="506" type="line"/>
    </contour>
    <component base="H"/>
  </outline>
</glyph>
<glyph name="hbar" format="1">
  <advance width="617"/>
  <unicode hex="0127"/>
  <outline>
    <contour>
      <point x="49" y="580" type="line"/>
      <point x="49" y="534" type="line"/>
      <point x="257" y="534" type="line"/>
      <point x="257" y="580" type="line"/>
    </contour>
    <component base="h" xOffset="6"/>
  </outline>
</glyph>
<glyph name="Idotaccent" format="1">
  <advance width="299"/>
  <unicode hex="0130"/>
  <outline>
    <contour>
      <point x="178" y="645" type="line"/>
      <point x="120" y="645" type="line"/>
      <point x="120" y="0" type="line"/>
      <point x="178" y="0" type="line"/>
    </contour>
    <contour>
      <point x="178" y="45" type="line"/>
      <point x="120" y="43" type="line"/>
      <point x="70" y="40" type="line" smooth="yes"/>
      <point x="37" y="38"/>
      <point x="43" y="10"/>
      <point x="42" y="0" type="curve"/>
      <point x="229" y="0" type="line" smooth="yes"/>
      <point x="257" y="0"/>
      <point x="253" y="29"/>
      <point x="252" y="39" type="curve"/>
    </contour>
    <contour>
      <point x="121" y="630" type="line"/>
      <point x="179" y="632" type="line"/>
      <point x="229" y="635" type="line" smooth="yes"/>
      <point x="262" y="637"/>
      <point x="256" y="665"/>
      <point x="257" y="675" type="curve"/>
      <point x="70" y="675" type="line" smooth="yes"/>
      <point x="42" y="675"/>
      <point x="46" y="646"/>
      <point x="47" y="636" type="curve"/>
    </contour>
    <contour>
      <point x="152" y="797" type="curve" smooth="yes"/>
      <point x="178" y="797"/>
      <point x="195" y="814"/>
      <point x="195" y="840" type="curve" smooth="yes"/>
      <point x="195" y="866"/>
      <point x="178" y="883"/>
      <point x="152" y="883" type="curve" smooth="yes"/>
      <point x="126" y="883"/>
      <point x="109" y="866"/>
      <point x="109" y="840" type="curve" smooth="yes"/>
      <point x="109" y="814"/>
      <point x="126" y="797"/>
    </contour>
  </outline>
</glyph>
<glyph name="dotlessi" format="1">
  <advance width="283"/>
  <unicode hex="0131"/>
  <outline>
    <contour>
      <point x="218" y="0" type="move" name="ogonek"/>
    </contour>
    <contour>
      <point x="138" y="485" type="move" name="top"/>
    </contour>
    <contour>
      <point x="180" y="500" type="line"/>
      <point x="49" y="485" type="line"/>
      <point x="49" y="472"/>
      <point x="48" y="450"/>
      <point x="69" y="448" type="curve" smooth="yes"/>
      <point x="125" y="443" type="line"/>
      <point x="125" y="0" type="line"/>
      <point x="180" y="0" type="line"/>
    </contour>
    <contour>
      <point x="176" y="41" type="line"/>
      <point x="125" y="39" type="line"/>
      <point x="80" y="36" type="line" smooth="yes"/>
      <point x="47" y="34"/>
      <point x="53" y="10"/>
      <point x="52" y="0" type="curve"/>
      <point x="234" y="0" type="line" smooth="yes"/>
      <point x="262" y="0"/>
      <point x="258" y="25"/>
      <point x="257" y="35" type="curve"/>
    </contour>
  </outline>
</glyph>
<glyph name="IJ" format="1">
  <advance width="559"/>
  <unicode hex="0132"/>
  <outline>
    <contour>
      <point x="397" y="707" type="move" name="top"/>
    </contour>
    <contour>
      <point x="443" y="647" type="line"/>
      <point x="381" y="647" type="line"/>
      <point x="379" y="79" type="line" smooth="yes"/>
      <point x="379" y="-21"/>
      <point x="358" y="-53"/>
      <point x="315" y="-53" type="curve" smooth="yes"/>
      <point x="282" y="-53"/>
      <point x="268" y="-38"/>
      <point x="266" y="-11" type="curve"/>
      <point x="241" y="-9"/>
      <point x="227" y="-24"/>
      <point x="227" y="-45" type="curve" smooth="yes"/>
      <point x="227" y="-77"/>
      <point x="262" y="-100"/>
      <point x="301" y="-100" type="curve" smooth="yes"/>
      <point x="402" y="-100"/>
      <point x="441" y="7"/>
      <point x="441" y="115" type="curve" smooth="yes"/>
    </contour>
    <contour>
      <point x="321" y="677" type="line"/>
      <point x="293" y="677"/>
      <point x="297" y="648"/>
      <point x="298" y="638" type="curve"/>
      <point x="382" y="632" type="line"/>
      <point x="444" y="634" type="line"/>
      <point x="489" y="637" type="line" smooth="yes"/>
      <point x="522" y="639"/>
      <point x="516" y="667"/>
      <point x="517" y="677" type="curve"/>
    </contour>
    <component base="I"/>
  </outline>
</glyph>
<glyph name="Lslash" format="1">
  <advance width="528"/>
  <unicode hex="0141"/>
  <outline>
    <contour>
      <point x="310" y="440" type="line"/>
      <point x="35" y="221" type="line"/>
      <point x="63" y="186" type="line"/>
      <point x="339" y="404" type="line"/>
    </contour>
    <component base="L" xOffset="9"/>
  </outline>
</glyph>
<glyph name="lslash" format="1">
  <advance width="328"/>
  <unicode hex="0142"/>
  <outline>
    <contour>
      <point x="236" y="450" type="line"/>
      <point x="38" y="271" type="line"/>
      <point x="69" y="237" type="line"/>
      <point x="267" y="416" type="line"/>
    </contour>
    <component base="l"/>
  </outline>
</glyph>
<glyph name="Nacute" format="1">
  <advance width="682"/>
  <unicode hex="0143"/>
  <outline>
    <contour>
      <point x="478" y="675" type="line"/>
      <point x="450" y="675"/>
      <point x="454" y="646"/>
      <point x="455" y="636" type="curve"/>
      <point x="529" y="630" type="line"/>
      <point x="529" y="89" type="line"/>
      <point x="543" y="93" type="line"/>
      <point x="169" y="675" type="line"/>
      <point x="70" y="675" type="line" smooth="yes"/>
      <point x="42" y="675"/>
      <point x="46" y="646"/>
      <point x="47" y="636" type="curve"/>
      <point x="121" y="630" type="line"/>
      <point x="121" y="43" type="line"/>
      <point x="70" y="40" type="line" smooth="yes"/>
      <point x="37" y="38"/>
      <point x="43" y="10"/>
      <point x="42" y="0" type="curve"/>
      <point x="221" y="0" type="line" smooth="yes"/>
      <point x="249" y="0"/>
      <point x="245" y="29"/>
      <point x="244" y="39" type="curve"/>
      <point x="170" y="45" type="line"/>
      <point x="170" y="583" type="line"/>
      <point x="159" y="579" type="line"/>
      <point x="532" y="0" type="line"/>
      <point x="549" y="0"/>
      <point x="560" y="3"/>
      <point x="577" y="11" type="curve"/>
      <point x="577" y="632" type="line"/>
      <point x="629" y="635" type="line" smooth="yes"/>
      <point x="662" y="637"/>
      <point x="656" y="665"/>
      <point x="657" y="675" type="curve"/>
    </contour>
    <contour>
      <point x="479" y="835" type="line"/>
      <point x="468" y="857"/>
      <point x="444" y="878"/>
      <point x="421" y="879" type="curve"/>
      <point x="257" y="755" type="line"/>
      <point x="263" y="745"/>
      <point x="271" y="735"/>
      <point x="283" y="729" type="curve"/>
    </contour>
  </outline>
</glyph>
<glyph name="ncaron" format="1">
  <advance width="604"/>
  <unicode hex="0148"/>
  <outline>
    <contour>
      <point x="508" y="41" type="line"/>
      <point x="508" y="312" type="line" smooth="yes"/>
      <point x="508" y="452"/>
      <point x="427" y="500"/>
      <point x="352" y="500" type="curve" smooth="yes"/>
      <point x="277" y="500"/>
      <point x="219" y="456"/>
      <point x="181" y="420" type="curve"/>
      <point x="178" y="420" type="line"/>
      <point x="164" y="500" type="line"/>
      <point x="49" y="484" type="line"/>
      <point x="49" y="471"/>
      <point x="48" y="451"/>
      <point x="69" y="449" type="curve" smooth="yes"/>
      <point x="125" y="443" type="line"/>
      <point x="125" y="39" type="line"/>
      <point x="78" y="36" type="line" smooth="yes"/>
      <point x="45" y="34"/>
      <point x="51" y="10"/>
      <point x="50" y="0" type="curve"/>
      <point x="228" y="0" type="line" smooth="yes"/>
      <point x="256" y="0"/>
      <point x="252" y="25"/>
      <point x="251" y="35" type="curve"/>
      <point x="180" y="41" type="line"/>
      <point x="180" y="378" type="line"/>
      <point x="235" y="425"/>
      <point x="278" y="450"/>
      <point x="337" y="450" type="curve" smooth="yes"/>
      <point x="418" y="450"/>
      <point x="453" y="392"/>
      <point x="453" y="301" type="curve" smooth="yes"/>
      <point x="453" y="39" type="line"/>
      <point x="406" y="36" type="line" smooth="yes"/>
      <point x="373" y="34"/>
      <point x="379" y="10"/>
      <point x="378" y="0" type="curve"/>
      <point x="555" y="0" type="line" smooth="yes"/>
      <point x="583" y="0"/>
      <point x="579" y="25"/>
      <point x="578" y="35" type="curve"/>
    </contour>
    <contour>
      <point x="339" y="544" type="line"/>
      <point x="324" y="540"/>
      <point x="300" y="539"/>
      <point x="281" y="544" type="curve"/>
      <point x="151" y="663" type="line"/>
      <point x="157" y="673"/>
      <point x="165" y="683"/>
      <point x="177" y="689" type="curve"/>
      <point x="333" y="585" type="line"/>
      <point x="287" y="585" type="line"/>
      <point x="443" y="689" type="line"/>
      <point x="455" y="683"/>
      <point x="463" y="673"/>
      <point x="469" y="663" type="curve"/>
    </contour>
  </outline>
</glyph>
<glyph name="Eng" format="1">
  <advance width="682"/>
  <unicode hex="014A"/>
  <outline>
    <contour>
      <point x="355" y="0" type="move" name="bottom"/>
    </contour>
    <contour>
      <point x="355" y="707" type="move" name="top"/>
    </contour>
    <contour>
      <point x="478" y="675" type="line"/>
      <point x="450" y="675"/>
      <point x="454" y="646"/>
      <point x="455" y="636" type="curve"/>
      <point x="529" y="630" type="line"/>
      <point x="529" y="89" type="line"/>
      <point x="543" y="93" type="line"/>
      <point x="169" y="675" type="line"/>
      <point x="70" y="675" type="line" smooth="yes"/>
      <point x="42" y="675"/>
      <point x="46" y="646"/>
      <point x="47" y="636" type="curve"/>
      <point x="121" y="630" type="line"/>
      <point x="121" y="43" type="line"/>
      <point x="70" y="40" type="line" smooth="yes"/>
      <point x="37" y="38"/>
      <point x="43" y="10"/>
      <point x="42" y="0" type="curve"/>
      <point x="221" y="0" type="line" smooth="yes"/>
      <point x="249" y="0"/>
      <point x="245" y="29"/>
      <point x="244" y="39" type="curve"/>
      <point x="170" y="45" type="line"/>
      <point x="170" y="581" type="line"/>
      <point x="159" y="577" type="line"/>
      <point x="529" y="4" type="line"/>
      <point x="528" y="-93"/>
      <point x="503" y="-130"/>
      <point x="457" y="-130" type="curve" smooth="yes"/>
      <point x="424" y="-130"/>
      <point x="410" y="-115"/>
      <point x="408" y="-88" type="curve"/>
      <point x="383" y="-86"/>
      <point x="369" y="-101"/>
      <point x="369" y="-122" type="curve" smooth="yes"/>
      <point x="369" y="-154"/>
      <point x="404" y="-177"/>
      <point x="443" y="-177" type="curve" smooth="yes"/>
      <point x="539" y="-177"/>
      <point x="577" y="-80"/>
      <point x="577" y="11" type="curve" smooth="yes"/>
      <point x="577" y="632" type="line"/>
      <point x="629" y="635" type="line" smooth="yes"/>
      <point x="662" y="637"/>
      <point x="656" y="665"/>
      <point x="657" y="675" type="curve"/>
    </contour>
  </outline>
</glyph>
<glyph name="eng" format="1">
  <advance width="582"/>
  <unicode hex="014B"/>
  <outline>
    <contour>
      <point x="310" y="0" type="move" name="bottom"/>
    </contour>
    <contour>
      <point x="310" y="485" type="move" name="top"/>
    </contour>
    <contour>
      <point x="352" y="500" type="curve" smooth="yes"/>
      <point x="277" y="500"/>
      <point x="219" y="456"/>
      <point x="181" y="420" type="curve"/>
      <point x="178" y="420" type="line"/>
      <point x="164" y="500" type="line"/>
      <point x="49" y="484" type="line"/>
      <point x="49" y="471"/>
      <point x="48" y="451"/>
      <point x="69" y="449" type="curve" smooth="yes"/>
      <point x="125" y="443" type="line"/>
      <point x="125" y="39" type="line"/>
      <point x="78" y="36" type="line" smooth="yes"/>
      <point x="45" y="34"/>
      <point x="51" y="10"/>
      <point x="50" y="0" type="curve"/>
      <point x="228" y="0" type="line" smooth="yes"/>
      <point x="256" y="0"/>
      <point x="252" y="25"/>
      <point x="251" y="35" type="curve"/>
      <point x="180" y="41" type="line"/>
      <point x="180" y="378" type="line"/>
      <point x="235" y="425"/>
      <point x="278" y="450"/>
      <point x="337" y="450" type="curve" smooth="yes"/>
      <point x="418" y="450"/>
      <point x="453" y="392"/>
      <point x="453" y="301" type="curve" smooth="yes"/>
      <point x="453" y="-2" type="line" smooth="yes"/>
      <point x="453" y="-102"/>
      <point x="424" y="-134"/>
      <point x="381" y="-134" type="curve" smooth="yes"/>
      <point x="348" y="-134"/>
      <point x="334" y="-119"/>
      <point x="332" y="-92" type="curve"/>
      <point x="307" y="-90"/>
      <point x="293" y="-105"/>
      <point x="293" y="-130" type="curve" smooth="yes"/>
      <point x="293" y="-164"/>
      <point x="330" y="-181"/>
      <point x="367" y="-181" type="curve" smooth="yes"/>
      <point x="475" y="-181"/>
      <point x="508" y="-74"/>
      <point x="508" y="34" type="curve" smooth="yes"/>
      <point x="508" y="312" type="line" smooth="yes"/>
      <point x="508" y="452"/>
      <point x="427" y="500"/>
    </contour>
  </outline>
</glyph>
<glyph name="Omacron" format="1">
  <advance width="629"/>
  <unicode hex="014C"/>
  <outline>
    <contour>
      <point x="326" y="690" type="curve" smooth="yes"/>
      <point x="138" y="690"/>
      <point x="35" y="531"/>
      <point x="40" y="310" type="curve" smooth="yes"/>
      <point x="45" y="110"/>
      <point x="140" y="-15"/>
      <point x="298" y="-15" type="curve" smooth="yes"/>
      <point x="496" y="-15"/>
      <point x="592" y="143"/>
      <point x="589" y="358" type="curve" smooth="yes"/>
      <point x="585" y="642"/>
      <point x="424" y="690"/>
    </contour>
    <contour>
      <point x="315" y="644" type="curve" smooth="yes"/>
      <point x="471" y="645"/>
      <point x="531" y="507"/>
      <point x="531" y="335" type="curve" smooth="yes"/>
      <point x="531" y="162"/>
      <point x="465" y="32"/>
      <point x="314" y="31" type="curve" smooth="yes"/>
      <point x="158" y="30"/>
      <point x="99" y="168"/>
      <point x="99" y="333" type="curve" smooth="yes"/>
      <point x="99" y="513"/>
      <point x="165" y="643"/>
    </contour>
    <contour>
      <point x="202" y="821" type="line"/>
      <point x="202" y="768" type="line"/>
      <point x="457" y="768" type="line"/>
      <point x="457" y="821" type="line"/>
    </contour>
  </outline>
</glyph>
<glyph name="OE" format="1">
  <advance width="874"/>
  <unicode hex="0152"/>
  <outline>
    <contour>
      <point x="620" y="0" type="move" name="bottom"/>
    </contour>
    <contour>
      <point x="857" y="10" type="move" name="ogonek"/>
    </contour>
    <contour>
      <point x="620" y="707" type="move" name="top"/>
    </contour>
    <contour>
      <point x="828" y="0" type="line"/>
      <point x="828" y="129" type="line" smooth="yes"/>
      <point x="828" y="159"/>
      <point x="799" y="153"/>
      <point x="789" y="152" type="curve"/>
      <point x="779" y="51" type="line"/>
      <point x="497" y="45" type="line"/>
      <point x="497" y="317" type="line"/>
      <point x="693" y="306" type="line"/>
      <point x="697" y="328"/>
      <point x="697" y="352"/>
      <point x="693" y="371" type="curve"/>
      <point x="497" y="360" type="line"/>
      <point x="497" y="632" type="line"/>
      <point x="759" y="627" type="line"/>
      <point x="769" y="515" type="line"/>
      <point x="779" y="514"/>
      <point x="808" y="510"/>
      <point x="808" y="538" type="curve" smooth="yes"/>
      <point x="808" y="677" type="line"/>
      <point x="440" y="677" type="line"/>
      <point x="406" y="688"/>
      <point x="372" y="692"/>
      <point x="343" y="692" type="curve" smooth="yes"/>
      <point x="144" y="692"/>
      <point x="34" y="533"/>
      <point x="40" y="310" type="curve" smooth="yes"/>
      <point x="45" y="110"/>
      <point x="146" y="-15"/>
      <point x="313" y="-15" type="curve" smooth="yes"/>
      <point x="351" y="-15"/>
      <point x="385" y="-10"/>
      <point x="416" y="0" type="curve"/>
    </contour>
    <contour>
      <point x="102" y="333" type="curve" smooth="yes"/>
      <point x="102" y="515"/>
      <point x="172" y="645"/>
      <point x="331" y="646" type="curve" smooth="yes"/>
      <point x="373" y="646"/>
      <point x="409" y="638"/>
      <point x="439" y="621" type="curve"/>
      <point x="439" y="57" type="line"/>
      <point x="409" y="40"/>
      <point x="373" y="31"/>
      <point x="330" y="31" type="curve" smooth="yes"/>
      <point x="165" y="30"/>
      <point x="102" y="168"/>
    </contour>
  </outline>
</glyph>
<glyph name="rcaron" format="1">
  <advance width="395"/>
  <unicode hex="0159"/>
  <outline>
    <contour>
      <point x="334" y="500" type="curve" smooth="yes"/>
      <point x="289" y="500"/>
      <point x="221" y="460"/>
      <point x="181" y="421" type="curve"/>
      <point x="178" y="421" type="line"/>
      <point x="172" y="496" type="line"/>
      <point x="49" y="480" type="line"/>
      <point x="49" y="467"/>
      <point x="48" y="447"/>
      <point x="69" y="445" type="curve" smooth="yes"/>
      <point x="125" y="439" type="line"/>
      <point x="125" y="39" type="line"/>
      <point x="80" y="36" type="line" smooth="yes"/>
      <point x="47" y="34"/>
      <point x="53" y="10"/>
      <point x="52" y="0" type="curve"/>
      <point x="244" y="0" type="line" smooth="yes"/>
      <point x="272" y="0"/>
      <point x="268" y="25"/>
      <point x="267" y="35" type="curve"/>
      <point x="180" y="41" type="line"/>
      <point x="180" y="377" type="line"/>
      <point x="226" y="419"/>
      <point x="268" y="446"/>
      <point x="303" y="446" type="curve" smooth="yes"/>
      <point x="336" y="446"/>
      <point x="341" y="410"/>
      <point x="341" y="375" type="curve"/>
      <point x="357" y="374"/>
      <point x="369" y="376"/>
      <point x="378" y="384" type="curve"/>
      <point x="386" y="394"/>
      <point x="390" y="430"/>
      <point x="390" y="451" type="curve" smooth="yes"/>
      <point x="390" y="489"/>
      <point x="360" y="500"/>
    </contour>
    <contour>
      <point x="249" y="544" type="line"/>
      <point x="234" y="540"/>
      <point x="210" y="539"/>
      <point x="191" y="544" type="curve"/>
      <point x="61" y="663" type="line"/>
      <point x="67" y="673"/>
      <point x="75" y="683"/>
      <point x="87" y="689" type="curve"/>
      <point x="243" y="585" type="line"/>
      <point x="197" y="585" type="line"/>
      <point x="353" y="689" type="line"/>
      <point x="365" y="683"/>
      <point x="373" y="673"/>
      <point x="379" y="663" type="curve"/>
    </contour>
  </outline>
</glyph>
<glyph name="uni015E" format="1">
  <advance width="486"/>
  <unicode hex="015E"/>
  <outline>
    <contour>
      <point x="251" y="690" type="curve" smooth="yes"/>
      <point x="138" y="687"/>
      <point x="51" y="621"/>
      <point x="51" y="519" type="curve" smooth="yes"/>
      <point x="51" y="419"/>
      <point x="145" y="373"/>
      <point x="251" y="327" type="curve" smooth="yes"/>
      <point x="336" y="290"/>
      <point x="401" y="268"/>
      <point x="401" y="180" type="curve" smooth="yes"/>
      <point x="401" y="90"/>
      <point x="334" y="35"/>
      <point x="236" y="35" type="curve" smooth="yes"/>
      <point x="153" y="35"/>
      <point x="90" y="74"/>
      <point x="70" y="151" type="curve"/>
      <point x="42" y="151"/>
      <point x="25" y="128"/>
      <point x="25" y="99" type="curve" smooth="yes"/>
      <point x="25" y="30"/>
      <point x="124" y="-15"/>
      <point x="221" y="-15" type="curve" smooth="yes"/>
      <point x="368" y="-15"/>
      <point x="461" y="90"/>
      <point x="461" y="201" type="curve" smooth="yes"/>
      <point x="461" y="301"/>
      <point x="385" y="336"/>
      <point x="277" y="381" type="curve" smooth="yes"/>
      <point x="200" y="413"/>
      <point x="111" y="450"/>
      <point x="111" y="534" type="curve" smooth="yes"/>
      <point x="111" y="605"/>
      <point x="173" y="640"/>
      <point x="249" y="640" type="curve" smooth="yes"/>
      <point x="336" y="640"/>
      <point x="374" y="595"/>
      <point x="374" y="528" type="curve"/>
      <point x="398" y="528"/>
      <point x="429" y="541"/>
      <point x="429" y="585" type="curve" smooth="yes"/>
      <point x="429" y="669"/>
      <point x="313" y="692"/>
    </contour>
    <contour>
      <point x="242" y="18" type="line"/>
      <point x="207" y="18" type="line"/>
      <point x="182" y="-77" type="line"/>
      <point x="243" y="-77"/>
      <point x="256" y="-92"/>
      <point x="256" y="-112" type="curve" smooth="yes"/>
      <point x="256" y="-136"/>
      <point x="238" y="-151"/>
      <point x="207" y="-151" type="curve" smooth="yes"/>
      <point x="184" y="-151"/>
      <point x="170" y="-143"/>
      <point x="156" y="-132" type="curve"/>
      <point x="150" y="-136"/>
      <point x="142" y="-146"/>
      <point x="144" y="-161" type="curve"/>
      <point x="158" y="-176"/>
      <point x="182" y="-189"/>
      <point x="217" y="-189" type="curve" smooth="yes"/>
      <point x="269" y="-189"/>
      <point x="308" y="-160"/>
      <point x="308" y="-110" type="curve" smooth="yes"/>
      <point x="308" y="-71"/>
      <point x="285" y="-41"/>
      <point x="228" y="-41" type="curve"/>
    </contour>
  </outline>
</glyph>
<glyph name="Scaron" format="1">
  <advance width="486"/>
  <unicode hex="0160"/>
  <outline>
    <contour>
      <point x="251" y="690" type="curve" smooth="yes"/>
      <point x="138" y="687"/>
      <point x="51" y="621"/>
      <point x="51" y="519" type="curve" smooth="yes"/>
      <point x="51" y="419"/>
      <point x="145" y="373"/>
      <point x="251" y="327" type="curve" smooth="yes"/>
      <point x="336" y="290"/>
      <point x="401" y="268"/>
      <point x="401" y="180" type="curve" smooth="yes"/>
      <point x="401" y="90"/>
      <point x="334" y="35"/>
      <point x="236" y="35" type="curve" smooth="yes"/>
      <point x="153" y="35"/>
      <point x="90" y="74"/>
      <point x="70" y="151" type="curve"/>
      <point x="42" y="151"/>
      <point x="25" y="128"/>
      <point x="25" y="99" type="curve" smooth="yes"/>
      <point x="25" y="30"/>
      <point x="124" y="-15"/>
      <point x="221" y="-15" type="curve" smooth="yes"/>
      <point x="368" y="-15"/>
      <point x="461" y="90"/>
      <point x="461" y="201" type="curve" smooth="yes"/>
      <point x="461" y="301"/>
      <point x="385" y="336"/>
      <point x="277" y="381" type="curve" smooth="yes"/>
      <point x="200" y="413"/>
      <point x="111" y="450"/>
      <point x="111" y="534" type="curve" smooth="yes"/>
      <point x="111" y="605"/>
      <point x="173" y="640"/>
      <point x="249" y="640" type="curve" smooth="yes"/>
      <point x="336" y="640"/>
      <point x="374" y="595"/>
      <point x="374" y="528" type="curve"/>
      <point x="398" y="528"/>
      <point x="429" y="541"/>
      <point x="429" y="585" type="curve" smooth="yes"/>
      <point x="429" y="669"/>
      <point x="313" y="692"/>
    </contour>
    <contour>
      <point x="279" y="734" type="line"/>
      <point x="264" y="730"/>
      <point x="240" y="729"/>
      <point x="221" y="734" type="curve"/>
      <point x="91" y="853" type="line"/>
      <point x="97" y="863"/>
      <point x="105" y="873"/>
      <point x="117" y="879" type="curve"/>
      <point x="273" y="775" type="line"/>
      <point x="227" y="775" type="line"/>
      <point x="383" y="879" type="line"/>
      <point x="395" y="873"/>
      <point x="403" y="863"/>
      <point x="409" y="853" type="curve"/>
    </contour>
  </outline>
</glyph>
<glyph name="tbar" format="1">
  <advance width="400"/>
  <unicode hex="0167"/>
  <outline>
    <contour>
      <point x="45" y="321" type="line"/>
      <point x="45" y="276" type="line"/>
      <point x="343" y="276" type="line"/>
      <point x="343" y="321" type="line"/>
    </contour>
    <component base="t"/>
  </outline>
</glyph>
<glyph name="Zacute" format="1">
  <advance width="518"/>
  <unicode hex="0179"/>
  <outline>
    <contour>
      <point x="67" y="685" type="line"/>
      <point x="70" y="628" type="line"/>
      <point x="436" y="639" type="line"/>
      <point x="426" y="664" type="line"/>
      <point x="23" y="21" type="line"/>
      <point x="26" y="14"/>
      <point x="28" y="7"/>
      <point x="33" y="0" type="curve"/>
      <point x="490" y="0" type="line"/>
      <point x="465" y="55" type="line"/>
      <point x="51" y="43" type="line"/>
      <point x="99" y="38" type="line"/>
      <point x="491" y="664" type="line"/>
      <point x="488" y="671"/>
      <point x="485" y="678"/>
      <point x="481" y="685" type="curve"/>
    </contour>
    <contour>
      <point x="490" y="184" type="line"/>
      <point x="475" y="187"/>
      <point x="454" y="182"/>
      <point x="450" y="153" type="curve" smooth="yes"/>
      <point x="436" y="43" type="line"/>
      <point x="490" y="0" type="line"/>
    </contour>
    <contour>
      <point x="67" y="507" type="line"/>
      <point x="81" y="504"/>
      <point x="102" y="509"/>
      <point x="106" y="538" type="curve" smooth="yes"/>
      <point x="121" y="642" type="line"/>
      <point x="67" y="685" type="line"/>
    </contour>
    <contour>
      <point x="429" y="835" type="line"/>
      <point x="418" y="857"/>
      <point x="394" y="878"/>
      <point x="371" y="879" type="curve"/>
      <point x="207" y="755" type="line"/>
      <point x="213" y="745"/>
      <point x="221" y="735"/>
      <point x="233" y="729" type="curve"/>
    </contour>
  </outline>
</glyph>
<glyph name="Zdotaccent" format="1">
  <advance width="518"/>
  <unicode hex="017B"/>
  <outline>
    <contour>
      <point x="67" y="685" type="line"/>
      <point x="70" y="628" type="line"/>
      <point x="436" y="639" type="line"/>
      <point x="426" y="664" type="line"/>
      <point x="23" y="21" type="line"/>
      <point x="26" y="14"/>
      <point x="28" y="7"/>
      <point x="33" y="0" type="curve"/>
      <point x="490" y="0" type="line"/>
      <point x="465" y="55" type="line"/>
      <point x="51" y="43" type="line"/>
      <point x="99" y="38" type="line"/>
      <point x="491" y="664" type="line"/>
      <point x="488" y="671"/>
      <point x="485" y="678"/>
      <point x="481" y="685" type="curve"/>
    </contour>
    <contour>
      <point x="490" y="184" type="line"/>
      <point x="475" y="187"/>
      <point x="454" y="182"/>
      <point x="450" y="153" type="curve" smooth="yes"/>
      <point x="436" y="43" type="line"/>
      <point x="490" y="0" type="line"/>
    </contour>
    <contour>
      <point x="67" y="507" type="line"/>
      <point x="81" y="504"/>
      <point x="102" y="509"/>
      <point x="106" y="538" type="curve" smooth="yes"/>
      <point x="121" y="642" type="line"/>
      <point x="67" y="685" type="line"/>
    </contour>
    <contour>
      <point x="284" y="797" type="curve" smooth="yes"/>
      <point x="310" y="797"/>
      <point x="327" y="814"/>
      <point x="327" y="840" type="curve" smooth="yes"/>
      <point x="327" y="866"/>
      <point x="310" y="883"/>
      <point x="284" y="883" type="curve" smooth="yes"/>
      <point x="258" y="883"/>
      <point x="241" y="866"/>
      <point x="241" y="840" type="curve" smooth="yes"/>
      <point x="241" y="814"/>
      <point x="258" y="797"/>
    </contour>
  </outline>
</glyph>
<glyph name="longs" format="1">
  <advance width="302"/>
  <unicode hex="017F"/>
  <outline>
    <contour>
      <point x="257" y="709" type="curve" smooth="yes"/>
      <point x="168" y="709"/>
      <point x="122" y="644"/>
      <point x="122" y="525" type="curve" smooth="yes"/>
      <point x="122" y="0" type="line"/>
      <point x="177" y="0" type="line"/>
      <point x="177" y="553" type="line" smooth="yes"/>
      <point x="177" y="634"/>
      <point x="197" y="669"/>
      <point x="242" y="669" type="curve" smooth="yes"/>
      <point x="268" y="669"/>
      <point x="291" y="651"/>
      <point x="293" y="619" type="curve"/>
      <point x="316" y="619"/>
      <point x="332" y="634"/>
      <point x="332" y="658" type="curve" smooth="yes"/>
      <point x="332" y="694"/>
      <point x="294" y="709"/>
    </contour>
    <contour>
      <point x="173" y="41" type="line"/>
      <point x="122" y="39" type="line"/>
      <point x="77" y="36" type="line" smooth="yes"/>
      <point x="44" y="34"/>
      <point x="50" y="10"/>
      <point x="49" y="0" type="curve"/>
      <point x="240" y="0" type="line" smooth="yes"/>
      <point x="268" y="0"/>
      <point x="263" y="20"/>
      <point x="263" y="35" type="curve"/>
    </contour>
    <contour>
      <point x="155" y="485" type="line"/>
      <point x="74" y="485" type="line" smooth="yes"/>
      <point x="45" y="485"/>
      <point x="51" y="459"/>
      <point x="51" y="445" type="curve"/>
      <point x="155" y="445" type="line"/>
    </contour>
  </outline>
</glyph>
<glyph name="dotlessj" format="1">
  <advance width="229"/>
  <unicode hex="0237"/>
  <outline>
    <contour>
      <point x="110" y="485" type="move" name="top"/>
    </contour>
    <contour>
      <point x="155" y="500" type="line"/>
      <point x="24" y="485" type="line"/>
      <point x="24" y="472"/>
      <point x="23" y="451"/>
      <point x="44" y="449" type="curve" smooth="yes"/>
      <point x="100" y="443" type="line"/>
      <point x="100" y="-45" type="line" smooth="yes"/>
      <point x="100" y="-145"/>
      <point x="71" y="-177"/>
      <point x="28" y="-177" type="curve" smooth="yes"/>
      <point x="-5" y="-177"/>
      <point x="-19" y="-162"/>
      <point x="-21" y="-135" type="curve"/>
      <point x="-46" y="-133"/>
      <point x="-60" y="-148"/>
      <point x="-60" y="-173" type="curve" smooth="yes"/>
      <point x="-60" y="-207"/>
      <point x="-23" y="-224"/>
      <point x="14" y="-224" type="curve" smooth="yes"/>
      <point x="122" y="-224"/>
      <point x="155" y="-117"/>
      <point x="155" y="-9" type="curve" smooth="yes"/>
    </contour>
  </outline>
</glyph>
<glyph name="circumflex" format="1">
  <advance width="600"/>
  <unicode hex="02C6"/>
  <outline>
    <contour>
      <point x="269" y="485" type="move" name="_top"/>
    </contour>
    <contour>
      <point x="298" y="674" type="line"/>
      <point x="283" y="678"/>
      <point x="259" y="679"/>
      <point x="240" y="674" type="curve"/>
      <point x="110" y="555" type="line"/>
      <point x="116" y="545"/>
      <point x="124" y="535"/>
      <point x="136" y="529" type="curve"/>
      <point x="292" y="633" type="line"/>
      <point x="246" y="633" type="line"/>
      <point x="402" y="529" type="line"/>
      <point x="414" y="535"/>
      <point x="422" y="545"/>
      <point x="428" y="555" type="curve"/>
    </contour>
  </outline>
</glyph>
<glyph name="breve" format="1">
  <advance width="600"/>
  <unicode hex="02D8"/>
  <outline>
    <contour>
      <point x="286" y="485" type="move" name="_top"/>
    </contour>
    <contour>
      <point x="287" y="588" type="curve" smooth="yes"/>
      <point x="213" y="588"/>
      <point x="178" y="638"/>
      <point x="167" y="667" type="curve"/>
      <point x="134" y="652" type="line"/>
      <point x="142" y="598"/>
      <point x="189" y="529"/>
      <point x="286" y="529" type="curve" smooth="yes"/>
      <point x="382" y="529"/>
      <point x="430" y="598"/>
      <point x="438" y="652" type="curve"/>
      <point x="405" y="665" type="line"/>
      <point x="394" y="636"/>
      <point x="369" y="588"/>
    </contour>
  </outline>
</glyph>
<glyph name="dotaccent" format="1">
  <advance width="600"/>
  <unicode hex="02D9"/>
  <outline>
    <contour>
      <point x="161" y="485" type="move" name="_top"/>
    </contour>
    <contour>
      <point x="159" y="607" type="curve" smooth="yes"/>
      <point x="185" y="607"/>
      <point x="202" y="624"/>
      <point x="202" y="650" type="curve" smooth="yes"/>
      <point x="202" y="676"/>
      <point x="185" y="693"/>
      <point x="159" y="693" type="curve" smooth="yes"/>
      <point x="133" y="693"/>
      <point x="116" y="676"/>
      <point x="116" y="650" type="curve" smooth="yes"/>
      <point x="116" y="624"/>
      <point x="133" y="607"/>
    </contour>
  </outline>
</glyph>
